<svg width="302" height="336" viewBox="0 0 302 336" fill="none" xmlns="http://www.w3.org/2000/svg">
<path d="M96.3047 17.5469H89.1562L87.5508 22H85.2305L91.7461 4.9375H93.7148L100.242 22H97.9336L96.3047 17.5469ZM89.8359 15.6953H95.6367L92.7305 7.71484L89.8359 15.6953ZM101.672 15.5547C101.672 13.6094 102.133 12.0469 103.055 10.8672C103.977 9.67969 105.184 9.08594 106.676 9.08594C108.16 9.08594 109.336 9.59375 110.203 10.6094V4H112.371V22H110.379L110.273 20.6406C109.406 21.7031 108.199 22.2344 106.652 22.2344C105.184 22.2344 103.984 21.6328 103.055 20.4297C102.133 19.2266 101.672 17.6562 101.672 15.7188V15.5547ZM103.84 15.8008C103.84 17.2383 104.137 18.3633 104.73 19.1758C105.324 19.9883 106.145 20.3945 107.191 20.3945C108.566 20.3945 109.57 19.7773 110.203 18.543V12.7188C109.555 11.5234 108.559 10.9258 107.215 10.9258C106.152 10.9258 105.324 11.3359 104.73 12.1562C104.137 12.9766 103.84 14.1914 103.84 15.8008ZM115.219 15.5547C115.219 13.6094 115.68 12.0469 116.602 10.8672C117.523 9.67969 118.73 9.08594 120.223 9.08594C121.707 9.08594 122.883 9.59375 123.75 10.6094V4H125.918V22H123.926L123.82 20.6406C122.953 21.7031 121.746 22.2344 120.199 22.2344C118.73 22.2344 117.531 21.6328 116.602 20.4297C115.68 19.2266 115.219 17.6562 115.219 15.7188V15.5547ZM117.387 15.8008C117.387 17.2383 117.684 18.3633 118.277 19.1758C118.871 19.9883 119.691 20.3945 120.738 20.3945C122.113 20.3945 123.117 19.7773 123.75 18.543V12.7188C123.102 11.5234 122.105 10.9258 120.762 10.9258C119.699 10.9258 118.871 11.3359 118.277 12.1562C117.684 12.9766 117.387 14.1914 117.387 15.8008ZM148.137 16.5859C147.926 18.3906 147.258 19.7852 146.133 20.7695C145.016 21.7461 143.527 22.2344 141.668 22.2344C139.652 22.2344 138.035 21.5117 136.816 20.0664C135.605 18.6211 135 16.6875 135 14.2656V12.625C135 11.0391 135.281 9.64453 135.844 8.44141C136.414 7.23828 137.219 6.31641 138.258 5.67578C139.297 5.02734 140.5 4.70312 141.867 4.70312C143.68 4.70312 145.133 5.21094 146.227 6.22656C147.32 7.23438 147.957 8.63281 148.137 10.4219H145.875C145.68 9.0625 145.254 8.07812 144.598 7.46875C143.949 6.85938 143.039 6.55469 141.867 6.55469C140.43 6.55469 139.301 7.08594 138.48 8.14844C137.668 9.21094 137.262 10.7227 137.262 12.6836V14.3359C137.262 16.1875 137.648 17.6602 138.422 18.7539C139.195 19.8477 140.277 20.3945 141.668 20.3945C142.918 20.3945 143.875 20.1133 144.539 19.5508C145.211 18.9805 145.656 17.9922 145.875 16.5859H148.137ZM158.707 22C158.582 21.75 158.48 21.3047 158.402 20.6641C157.395 21.7109 156.191 22.2344 154.793 22.2344C153.543 22.2344 152.516 21.8828 151.711 21.1797C150.914 20.4688 150.516 19.5703 150.516 18.4844C150.516 17.1641 151.016 16.1406 152.016 15.4141C153.023 14.6797 154.438 14.3125 156.258 14.3125H158.367V13.3164C158.367 12.5586 158.141 11.957 157.688 11.5117C157.234 11.0586 156.566 10.832 155.684 10.832C154.91 10.832 154.262 11.0273 153.738 11.418C153.215 11.8086 152.953 12.2812 152.953 12.8359H150.773C150.773 12.2031 150.996 11.5938 151.441 11.0078C151.895 10.4141 152.504 9.94531 153.27 9.60156C154.043 9.25781 154.891 9.08594 155.812 9.08594C157.273 9.08594 158.418 9.45312 159.246 10.1875C160.074 10.9141 160.504 11.918 160.535 13.1992V19.0352C160.535 20.1992 160.684 21.125 160.98 21.8125V22H158.707ZM155.109 20.3477C155.789 20.3477 156.434 20.1719 157.043 19.8203C157.652 19.4688 158.094 19.0117 158.367 18.4492V15.8477H156.668C154.012 15.8477 152.684 16.625 152.684 18.1797C152.684 18.8594 152.91 19.3906 153.363 19.7734C153.816 20.1562 154.398 20.3477 155.109 20.3477ZM165.984 9.32031L166.055 10.9141C167.023 9.69531 168.289 9.08594 169.852 9.08594C172.531 9.08594 173.883 10.5977 173.906 13.6211V22H171.738V13.6094C171.73 12.6953 171.52 12.0195 171.105 11.582C170.699 11.1445 170.062 10.9258 169.195 10.9258C168.492 10.9258 167.875 11.1133 167.344 11.4883C166.812 11.8633 166.398 12.3555 166.102 12.9648V22H163.934V9.32031H165.984ZM176.648 15.5547C176.648 13.6094 177.109 12.0469 178.031 10.8672C178.953 9.67969 180.16 9.08594 181.652 9.08594C183.137 9.08594 184.312 9.59375 185.18 10.6094V4H187.348V22H185.355L185.25 20.6406C184.383 21.7031 183.176 22.2344 181.629 22.2344C180.16 22.2344 178.961 21.6328 178.031 20.4297C177.109 19.2266 176.648 17.6562 176.648 15.7188V15.5547ZM178.816 15.8008C178.816 17.2383 179.113 18.3633 179.707 19.1758C180.301 19.9883 181.121 20.3945 182.168 20.3945C183.543 20.3945 184.547 19.7773 185.18 18.543V12.7188C184.531 11.5234 183.535 10.9258 182.191 10.9258C181.129 10.9258 180.301 11.3359 179.707 12.1562C179.113 12.9766 178.816 14.1914 178.816 15.8008ZM193.078 22H190.91V9.32031H193.078V22ZM190.734 5.95703C190.734 5.60547 190.84 5.30859 191.051 5.06641C191.27 4.82422 191.59 4.70312 192.012 4.70312C192.434 4.70312 192.754 4.82422 192.973 5.06641C193.191 5.30859 193.301 5.60547 193.301 5.95703C193.301 6.30859 193.191 6.60156 192.973 6.83594C192.754 7.07031 192.434 7.1875 192.012 7.1875C191.59 7.1875 191.27 7.07031 191.051 6.83594C190.84 6.60156 190.734 6.30859 190.734 5.95703ZM196.031 15.5547C196.031 13.6094 196.492 12.0469 197.414 10.8672C198.336 9.67969 199.543 9.08594 201.035 9.08594C202.52 9.08594 203.695 9.59375 204.562 10.6094V4H206.73V22H204.738L204.633 20.6406C203.766 21.7031 202.559 22.2344 201.012 22.2344C199.543 22.2344 198.344 21.6328 197.414 20.4297C196.492 19.2266 196.031 17.6562 196.031 15.7188V15.5547ZM198.199 15.8008C198.199 17.2383 198.496 18.3633 199.09 19.1758C199.684 19.9883 200.504 20.3945 201.551 20.3945C202.926 20.3945 203.93 19.7773 204.562 18.543V12.7188C203.914 11.5234 202.918 10.9258 201.574 10.9258C200.512 10.9258 199.684 11.3359 199.09 12.1562C198.496 12.9766 198.199 14.1914 198.199 15.8008ZM217.934 22C217.809 21.75 217.707 21.3047 217.629 20.6641C216.621 21.7109 215.418 22.2344 214.02 22.2344C212.77 22.2344 211.742 21.8828 210.938 21.1797C210.141 20.4688 209.742 19.5703 209.742 18.4844C209.742 17.1641 210.242 16.1406 211.242 15.4141C212.25 14.6797 213.664 14.3125 215.484 14.3125H217.594V13.3164C217.594 12.5586 217.367 11.957 216.914 11.5117C216.461 11.0586 215.793 10.832 214.91 10.832C214.137 10.832 213.488 11.0273 212.965 11.418C212.441 11.8086 212.18 12.2812 212.18 12.8359H210C210 12.2031 210.223 11.5938 210.668 11.0078C211.121 10.4141 211.73 9.94531 212.496 9.60156C213.27 9.25781 214.117 9.08594 215.039 9.08594C216.5 9.08594 217.645 9.45312 218.473 10.1875C219.301 10.9141 219.73 11.918 219.762 13.1992V19.0352C219.762 20.1992 219.91 21.125 220.207 21.8125V22H217.934ZM214.336 20.3477C215.016 20.3477 215.66 20.1719 216.27 19.8203C216.879 19.4688 217.32 19.0117 217.594 18.4492V15.8477H215.895C213.238 15.8477 211.91 16.625 211.91 18.1797C211.91 18.8594 212.137 19.3906 212.59 19.7734C213.043 20.1562 213.625 20.3477 214.336 20.3477ZM226.102 6.25V9.32031H228.469V10.9961H226.102V18.8594C226.102 19.3672 226.207 19.75 226.418 20.0078C226.629 20.2578 226.988 20.3828 227.496 20.3828C227.746 20.3828 228.09 20.3359 228.527 20.2422V22C227.957 22.1562 227.402 22.2344 226.863 22.2344C225.895 22.2344 225.164 21.9414 224.672 21.3555C224.18 20.7695 223.934 19.9375 223.934 18.8594V10.9961H221.625V9.32031H223.934V6.25H226.102ZM236.273 22.2344C234.555 22.2344 233.156 21.6719 232.078 20.5469C231 19.4141 230.461 17.9023 230.461 16.0117V15.6133C230.461 14.3555 230.699 13.2344 231.176 12.25C231.66 11.2578 232.332 10.4844 233.191 9.92969C234.059 9.36719 234.996 9.08594 236.004 9.08594C237.652 9.08594 238.934 9.62891 239.848 10.7148C240.762 11.8008 241.219 13.3555 241.219 15.3789V16.2812H232.629C232.66 17.5312 233.023 18.543 233.719 19.3164C234.422 20.082 235.312 20.4648 236.391 20.4648C237.156 20.4648 237.805 20.3086 238.336 19.9961C238.867 19.6836 239.332 19.2695 239.73 18.7539L241.055 19.7852C239.992 21.418 238.398 22.2344 236.273 22.2344ZM236.004 10.8672C235.129 10.8672 234.395 11.1875 233.801 11.8281C233.207 12.4609 232.84 13.3516 232.699 14.5H239.051V14.3359C238.988 13.2344 238.691 12.3828 238.16 11.7812C237.629 11.1719 236.91 10.8672 236.004 10.8672Z" fill="#585858"/>
<path d="M40.7227 66H39.5918L35.2969 59.4258V66H34.166V57.4688H35.2969L39.6035 64.0723V57.4688H40.7227V66ZM46.4648 66C46.4023 65.875 46.3516 65.6523 46.3125 65.332C45.8086 65.8555 45.207 66.1172 44.5078 66.1172C43.8828 66.1172 43.3691 65.9414 42.9668 65.5898C42.5684 65.2344 42.3691 64.7852 42.3691 64.2422C42.3691 63.582 42.6191 63.0703 43.1191 62.707C43.623 62.3398 44.3301 62.1562 45.2402 62.1562H46.2949V61.6582C46.2949 61.2793 46.1816 60.9785 45.9551 60.7559C45.7285 60.5293 45.3945 60.416 44.9531 60.416C44.5664 60.416 44.2422 60.5137 43.9805 60.709C43.7188 60.9043 43.5879 61.1406 43.5879 61.418H42.498C42.498 61.1016 42.6094 60.7969 42.832 60.5039C43.0586 60.207 43.3633 59.9727 43.7461 59.8008C44.1328 59.6289 44.5566 59.543 45.0176 59.543C45.748 59.543 46.3203 59.7266 46.7344 60.0938C47.1484 60.457 47.3633 60.959 47.3789 61.5996V64.5176C47.3789 65.0996 47.4531 65.5625 47.6016 65.9062V66H46.4648ZM44.666 65.1738C45.0059 65.1738 45.3281 65.0859 45.6328 64.9102C45.9375 64.7344 46.1582 64.5059 46.2949 64.2246V62.9238H45.4453C44.1172 62.9238 43.4531 63.3125 43.4531 64.0898C43.4531 64.4297 43.5664 64.6953 43.793 64.8867C44.0195 65.0781 44.3105 65.1738 44.666 65.1738ZM50.0977 59.6602L50.127 60.3633C50.5918 59.8164 51.2188 59.543 52.0078 59.543C52.8945 59.543 53.498 59.8828 53.8184 60.5625C54.0293 60.2578 54.3027 60.0117 54.6387 59.8242C54.9785 59.6367 55.3789 59.543 55.8398 59.543C57.2305 59.543 57.9375 60.2793 57.9609 61.752V66H56.877V61.8164C56.877 61.3633 56.7734 61.0254 56.5664 60.8027C56.3594 60.5762 56.0117 60.4629 55.5234 60.4629C55.1211 60.4629 54.7871 60.584 54.5215 60.8262C54.2559 61.0645 54.1016 61.3867 54.0586 61.793V66H52.9688V61.8457C52.9688 60.9238 52.5176 60.4629 51.6152 60.4629C50.9043 60.4629 50.418 60.7656 50.1562 61.3711V66H49.0723V59.6602H50.0977ZM62.2324 66.1172C61.373 66.1172 60.6738 65.8359 60.1348 65.2734C59.5957 64.707 59.3262 63.9512 59.3262 63.0059V62.8066C59.3262 62.1777 59.4453 61.6172 59.6836 61.125C59.9258 60.6289 60.2617 60.2422 60.6914 59.9648C61.125 59.6836 61.5938 59.543 62.0977 59.543C62.9219 59.543 63.5625 59.8145 64.0195 60.3574C64.4766 60.9004 64.7051 61.6777 64.7051 62.6895V63.1406H60.4102C60.4258 63.7656 60.6074 64.2715 60.9551 64.6582C61.3066 65.041 61.752 65.2324 62.291 65.2324C62.6738 65.2324 62.998 65.1543 63.2637 64.998C63.5293 64.8418 63.7617 64.6348 63.9609 64.377L64.623 64.8926C64.0918 65.709 63.2949 66.1172 62.2324 66.1172ZM62.0977 60.4336C61.6602 60.4336 61.293 60.5938 60.9961 60.9141C60.6992 61.2305 60.5156 61.6758 60.4453 62.25H63.6211V62.168C63.5898 61.6172 63.4414 61.1914 63.1758 60.8906C62.9102 60.5859 62.5508 60.4336 62.0977 60.4336ZM68.6543 62.7715C68.6543 62.1504 68.7754 61.5918 69.0176 61.0957C69.2637 60.5996 69.6035 60.2168 70.0371 59.9473C70.4746 59.6777 70.9727 59.543 71.5312 59.543C72.3945 59.543 73.0918 59.8418 73.623 60.4395C74.1582 61.0371 74.4258 61.832 74.4258 62.8242V62.9004C74.4258 63.5176 74.3066 64.0723 74.0684 64.5645C73.834 65.0527 73.4961 65.4336 73.0547 65.707C72.6172 65.9805 72.1133 66.1172 71.543 66.1172C70.6836 66.1172 69.9863 65.8184 69.4512 65.2207C68.9199 64.623 68.6543 63.832 68.6543 62.8477V62.7715ZM69.7441 62.9004C69.7441 63.6035 69.9062 64.168 70.2305 64.5938C70.5586 65.0195 70.9961 65.2324 71.543 65.2324C72.0938 65.2324 72.5312 65.0176 72.8555 64.5879C73.1797 64.1543 73.3418 63.5488 73.3418 62.7715C73.3418 62.0762 73.1758 61.5137 72.8438 61.084C72.5156 60.6504 72.0781 60.4336 71.5312 60.4336C70.9961 60.4336 70.5645 60.6465 70.2363 61.0723C69.9082 61.498 69.7441 62.1074 69.7441 62.9004ZM76.3184 66V60.498H75.3164V59.6602H76.3184V59.0098C76.3184 58.3301 76.5 57.8047 76.8633 57.4336C77.2266 57.0625 77.7402 56.877 78.4043 56.877C78.6543 56.877 78.9023 56.9102 79.1484 56.9766L79.0898 57.8555C78.9062 57.8203 78.7109 57.8027 78.5039 57.8027C78.1523 57.8027 77.8809 57.9062 77.6895 58.1133C77.498 58.3164 77.4023 58.6094 77.4023 58.9922V59.6602H78.7559V60.498H77.4023V66H76.3184ZM85.4766 65.2324C85.8633 65.2324 86.2012 65.1152 86.4902 64.8809C86.7793 64.6465 86.9395 64.3535 86.9707 64.002H87.9961C87.9766 64.3652 87.8516 64.7109 87.6211 65.0391C87.3906 65.3672 87.082 65.6289 86.6953 65.8242C86.3125 66.0195 85.9062 66.1172 85.4766 66.1172C84.6133 66.1172 83.9258 65.8301 83.4141 65.2559C82.9062 64.6777 82.6523 63.8887 82.6523 62.8887V62.707C82.6523 62.0898 82.7656 61.541 82.9922 61.0605C83.2188 60.5801 83.543 60.207 83.9648 59.9414C84.3906 59.6758 84.8926 59.543 85.4707 59.543C86.1816 59.543 86.7715 59.7559 87.2402 60.1816C87.7129 60.6074 87.9648 61.1602 87.9961 61.8398H86.9707C86.9395 61.4297 86.7832 61.0938 86.502 60.832C86.2246 60.5664 85.8809 60.4336 85.4707 60.4336C84.9199 60.4336 84.4922 60.6328 84.1875 61.0312C83.8867 61.4258 83.7363 61.998 83.7363 62.748V62.9531C83.7363 63.6836 83.8867 64.2461 84.1875 64.6406C84.4883 65.0352 84.918 65.2324 85.4766 65.2324ZM93.1289 66C93.0664 65.875 93.0156 65.6523 92.9766 65.332C92.4727 65.8555 91.8711 66.1172 91.1719 66.1172C90.5469 66.1172 90.0332 65.9414 89.6309 65.5898C89.2324 65.2344 89.0332 64.7852 89.0332 64.2422C89.0332 63.582 89.2832 63.0703 89.7832 62.707C90.2871 62.3398 90.9941 62.1562 91.9043 62.1562H92.959V61.6582C92.959 61.2793 92.8457 60.9785 92.6191 60.7559C92.3926 60.5293 92.0586 60.416 91.6172 60.416C91.2305 60.416 90.9062 60.5137 90.6445 60.709C90.3828 60.9043 90.252 61.1406 90.252 61.418H89.1621C89.1621 61.1016 89.2734 60.7969 89.4961 60.5039C89.7227 60.207 90.0273 59.9727 90.4102 59.8008C90.7969 59.6289 91.2207 59.543 91.6816 59.543C92.4121 59.543 92.9844 59.7266 93.3984 60.0938C93.8125 60.457 94.0273 60.959 94.043 61.5996V64.5176C94.043 65.0996 94.1172 65.5625 94.2656 65.9062V66H93.1289ZM91.3301 65.1738C91.6699 65.1738 91.9922 65.0859 92.2969 64.9102C92.6016 64.7344 92.8223 64.5059 92.959 64.2246V62.9238H92.1094C90.7812 62.9238 90.1172 63.3125 90.1172 64.0898C90.1172 64.4297 90.2305 64.6953 90.457 64.8867C90.6836 65.0781 90.9746 65.1738 91.3301 65.1738ZM96.7676 59.6602L96.8027 60.457C97.2871 59.8477 97.9199 59.543 98.7012 59.543C100.041 59.543 100.717 60.2988 100.729 61.8105V66H99.6445V61.8047C99.6406 61.3477 99.5352 61.0098 99.3281 60.791C99.125 60.5723 98.8066 60.4629 98.373 60.4629C98.0215 60.4629 97.7129 60.5566 97.4473 60.7441C97.1816 60.9316 96.9746 61.1777 96.8262 61.4824V66H95.7422V59.6602H96.7676ZM102.1 62.7773C102.1 61.8047 102.33 61.0234 102.791 60.4336C103.252 59.8398 103.855 59.543 104.602 59.543C105.344 59.543 105.932 59.7969 106.365 60.3047V57H107.449V66H106.453L106.4 65.3203C105.967 65.8516 105.363 66.1172 104.59 66.1172C103.855 66.1172 103.256 65.8164 102.791 65.2148C102.33 64.6133 102.1 63.8281 102.1 62.8594V62.7773ZM103.184 62.9004C103.184 63.6191 103.332 64.1816 103.629 64.5879C103.926 64.9941 104.336 65.1973 104.859 65.1973C105.547 65.1973 106.049 64.8887 106.365 64.2715V61.3594C106.041 60.7617 105.543 60.4629 104.871 60.4629C104.34 60.4629 103.926 60.668 103.629 61.0781C103.332 61.4883 103.184 62.0957 103.184 62.9004ZM110.314 66H109.23V59.6602H110.314V66ZM109.143 57.9785C109.143 57.8027 109.195 57.6543 109.301 57.5332C109.41 57.4121 109.57 57.3516 109.781 57.3516C109.992 57.3516 110.152 57.4121 110.262 57.5332C110.371 57.6543 110.426 57.8027 110.426 57.9785C110.426 58.1543 110.371 58.3008 110.262 58.418C110.152 58.5352 109.992 58.5938 109.781 58.5938C109.57 58.5938 109.41 58.5352 109.301 58.418C109.195 58.3008 109.143 58.1543 109.143 57.9785ZM111.791 62.7773C111.791 61.8047 112.021 61.0234 112.482 60.4336C112.943 59.8398 113.547 59.543 114.293 59.543C115.035 59.543 115.623 59.7969 116.057 60.3047V57H117.141V66H116.145L116.092 65.3203C115.658 65.8516 115.055 66.1172 114.281 66.1172C113.547 66.1172 112.947 65.8164 112.482 65.2148C112.021 64.6133 111.791 63.8281 111.791 62.8594V62.7773ZM112.875 62.9004C112.875 63.6191 113.023 64.1816 113.32 64.5879C113.617 64.9941 114.027 65.1973 114.551 65.1973C115.238 65.1973 115.74 64.8887 116.057 64.2715V61.3594C115.732 60.7617 115.234 60.4629 114.562 60.4629C114.031 60.4629 113.617 60.668 113.32 61.0781C113.023 61.4883 112.875 62.0957 112.875 62.9004ZM122.742 66C122.68 65.875 122.629 65.6523 122.59 65.332C122.086 65.8555 121.484 66.1172 120.785 66.1172C120.16 66.1172 119.646 65.9414 119.244 65.5898C118.846 65.2344 118.646 64.7852 118.646 64.2422C118.646 63.582 118.896 63.0703 119.396 62.707C119.9 62.3398 120.607 62.1562 121.518 62.1562H122.572V61.6582C122.572 61.2793 122.459 60.9785 122.232 60.7559C122.006 60.5293 121.672 60.416 121.23 60.416C120.844 60.416 120.52 60.5137 120.258 60.709C119.996 60.9043 119.865 61.1406 119.865 61.418H118.775C118.775 61.1016 118.887 60.7969 119.109 60.5039C119.336 60.207 119.641 59.9727 120.023 59.8008C120.41 59.6289 120.834 59.543 121.295 59.543C122.025 59.543 122.598 59.7266 123.012 60.0938C123.426 60.457 123.641 60.959 123.656 61.5996V64.5176C123.656 65.0996 123.73 65.5625 123.879 65.9062V66H122.742ZM120.943 65.1738C121.283 65.1738 121.605 65.0859 121.91 64.9102C122.215 64.7344 122.436 64.5059 122.572 64.2246V62.9238H121.723C120.395 62.9238 119.73 63.3125 119.73 64.0898C119.73 64.4297 119.844 64.6953 120.07 64.8867C120.297 65.0781 120.588 65.1738 120.943 65.1738ZM126.826 58.125V59.6602H128.01V60.498H126.826V64.4297C126.826 64.6836 126.879 64.875 126.984 65.0039C127.09 65.1289 127.27 65.1914 127.523 65.1914C127.648 65.1914 127.82 65.168 128.039 65.1211V66C127.754 66.0781 127.477 66.1172 127.207 66.1172C126.723 66.1172 126.357 65.9707 126.111 65.6777C125.865 65.3848 125.742 64.9688 125.742 64.4297V60.498H124.588V59.6602H125.742V58.125H126.826ZM131.912 66.1172C131.053 66.1172 130.354 65.8359 129.814 65.2734C129.275 64.707 129.006 63.9512 129.006 63.0059V62.8066C129.006 62.1777 129.125 61.6172 129.363 61.125C129.605 60.6289 129.941 60.2422 130.371 59.9648C130.805 59.6836 131.273 59.543 131.777 59.543C132.602 59.543 133.242 59.8145 133.699 60.3574C134.156 60.9004 134.385 61.6777 134.385 62.6895V63.1406H130.09C130.105 63.7656 130.287 64.2715 130.635 64.6582C130.986 65.041 131.432 65.2324 131.971 65.2324C132.354 65.2324 132.678 65.1543 132.943 64.998C133.209 64.8418 133.441 64.6348 133.641 64.377L134.303 64.8926C133.771 65.709 132.975 66.1172 131.912 66.1172ZM131.777 60.4336C131.34 60.4336 130.973 60.5938 130.676 60.9141C130.379 61.2305 130.195 61.6758 130.125 62.25H133.301V62.168C133.27 61.6172 133.121 61.1914 132.855 60.8906C132.59 60.5859 132.23 60.4336 131.777 60.4336Z" fill="#AAAAAA"/>
<line x1="32" y1="99.5" x2="289" y2="99.5" stroke="#FF9A3D"/>
<path d="M35.8848 138.395H33.1426V146H32.0234V138.395H29.2871V137.469H35.8848V138.395ZM38.1582 146H37.0742V139.66H38.1582V146ZM36.9863 137.979C36.9863 137.803 37.0391 137.654 37.1445 137.533C37.2539 137.412 37.4141 137.352 37.625 137.352C37.8359 137.352 37.9961 137.412 38.1055 137.533C38.2148 137.654 38.2695 137.803 38.2695 137.979C38.2695 138.154 38.2148 138.301 38.1055 138.418C37.9961 138.535 37.8359 138.594 37.625 138.594C37.4141 138.594 37.2539 138.535 37.1445 138.418C37.0391 138.301 36.9863 138.154 36.9863 137.979ZM40.918 139.66L40.9473 140.363C41.4121 139.816 42.0391 139.543 42.8281 139.543C43.7148 139.543 44.3184 139.883 44.6387 140.562C44.8496 140.258 45.123 140.012 45.459 139.824C45.7988 139.637 46.1992 139.543 46.6602 139.543C48.0508 139.543 48.7578 140.279 48.7812 141.752V146H47.6973V141.816C47.6973 141.363 47.5938 141.025 47.3867 140.803C47.1797 140.576 46.832 140.463 46.3438 140.463C45.9414 140.463 45.6074 140.584 45.3418 140.826C45.0762 141.064 44.9219 141.387 44.8789 141.793V146H43.7891V141.846C43.7891 140.924 43.3379 140.463 42.4355 140.463C41.7246 140.463 41.2383 140.766 40.9766 141.371V146H39.8926V139.66H40.918ZM53.0527 146.117C52.1934 146.117 51.4941 145.836 50.9551 145.273C50.416 144.707 50.1465 143.951 50.1465 143.006V142.807C50.1465 142.178 50.2656 141.617 50.5039 141.125C50.7461 140.629 51.082 140.242 51.5117 139.965C51.9453 139.684 52.4141 139.543 52.918 139.543C53.7422 139.543 54.3828 139.814 54.8398 140.357C55.2969 140.9 55.5254 141.678 55.5254 142.689V143.141H51.2305C51.2461 143.766 51.4277 144.271 51.7754 144.658C52.127 145.041 52.5723 145.232 53.1113 145.232C53.4941 145.232 53.8184 145.154 54.084 144.998C54.3496 144.842 54.582 144.635 54.7812 144.377L55.4434 144.893C54.9121 145.709 54.1152 146.117 53.0527 146.117ZM52.918 140.434C52.4805 140.434 52.1133 140.594 51.8164 140.914C51.5195 141.23 51.3359 141.676 51.2656 142.25H54.4414V142.168C54.4102 141.617 54.2617 141.191 53.9961 140.891C53.7305 140.586 53.3711 140.434 52.918 140.434ZM59.4746 142.771C59.4746 142.15 59.5957 141.592 59.8379 141.096C60.084 140.6 60.4238 140.217 60.8574 139.947C61.2949 139.678 61.793 139.543 62.3516 139.543C63.2148 139.543 63.9121 139.842 64.4434 140.439C64.9785 141.037 65.2461 141.832 65.2461 142.824V142.9C65.2461 143.518 65.127 144.072 64.8887 144.564C64.6543 145.053 64.3164 145.434 63.875 145.707C63.4375 145.98 62.9336 146.117 62.3633 146.117C61.5039 146.117 60.8066 145.818 60.2715 145.221C59.7402 144.623 59.4746 143.832 59.4746 142.848V142.771ZM60.5645 142.9C60.5645 143.604 60.7266 144.168 61.0508 144.594C61.3789 145.02 61.8164 145.232 62.3633 145.232C62.9141 145.232 63.3516 145.018 63.6758 144.588C64 144.154 64.1621 143.549 64.1621 142.771C64.1621 142.076 63.9961 141.514 63.6641 141.084C63.3359 140.65 62.8984 140.434 62.3516 140.434C61.8164 140.434 61.3848 140.646 61.0566 141.072C60.7285 141.498 60.5645 142.107 60.5645 142.9ZM67.1387 146V140.498H66.1367V139.66H67.1387V139.01C67.1387 138.33 67.3203 137.805 67.6836 137.434C68.0469 137.062 68.5605 136.877 69.2246 136.877C69.4746 136.877 69.7227 136.91 69.9688 136.977L69.9102 137.855C69.7266 137.82 69.5312 137.803 69.3242 137.803C68.9727 137.803 68.7012 137.906 68.5098 138.113C68.3184 138.316 68.2227 138.609 68.2227 138.992V139.66H69.5762V140.498H68.2227V146H67.1387ZM74.9316 146H73.8477V139.66H74.9316V146ZM73.7598 137.979C73.7598 137.803 73.8125 137.654 73.918 137.533C74.0273 137.412 74.1875 137.352 74.3984 137.352C74.6094 137.352 74.7695 137.412 74.8789 137.533C74.9883 137.654 75.043 137.803 75.043 137.979C75.043 138.154 74.9883 138.301 74.8789 138.418C74.7695 138.535 74.6094 138.594 74.3984 138.594C74.1875 138.594 74.0273 138.535 73.918 138.418C73.8125 138.301 73.7598 138.154 73.7598 137.979ZM77.6973 139.66L77.7324 140.457C78.2168 139.848 78.8496 139.543 79.6309 139.543C80.9707 139.543 81.6465 140.299 81.6582 141.811V146H80.5742V141.805C80.5703 141.348 80.4648 141.01 80.2578 140.791C80.0547 140.572 79.7363 140.463 79.3027 140.463C78.9512 140.463 78.6426 140.557 78.377 140.744C78.1113 140.932 77.9043 141.178 77.7559 141.482V146H76.6719V139.66H77.6973ZM84.7637 138.125V139.66H85.9473V140.498H84.7637V144.43C84.7637 144.684 84.8164 144.875 84.9219 145.004C85.0273 145.129 85.207 145.191 85.4609 145.191C85.5859 145.191 85.7578 145.168 85.9766 145.121V146C85.6914 146.078 85.4141 146.117 85.1445 146.117C84.6602 146.117 84.2949 145.971 84.0488 145.678C83.8027 145.385 83.6797 144.969 83.6797 144.43V140.498H82.5254V139.66H83.6797V138.125H84.7637ZM89.8496 146.117C88.9902 146.117 88.291 145.836 87.752 145.273C87.2129 144.707 86.9434 143.951 86.9434 143.006V142.807C86.9434 142.178 87.0625 141.617 87.3008 141.125C87.543 140.629 87.8789 140.242 88.3086 139.965C88.7422 139.684 89.2109 139.543 89.7148 139.543C90.5391 139.543 91.1797 139.814 91.6367 140.357C92.0938 140.9 92.3223 141.678 92.3223 142.689V143.141H88.0273C88.043 143.766 88.2246 144.271 88.5723 144.658C88.9238 145.041 89.3691 145.232 89.9082 145.232C90.291 145.232 90.6152 145.154 90.8809 144.998C91.1465 144.842 91.3789 144.635 91.5781 144.377L92.2402 144.893C91.709 145.709 90.9121 146.117 89.8496 146.117ZM89.7148 140.434C89.2773 140.434 88.9102 140.594 88.6133 140.914C88.3164 141.23 88.1328 141.676 88.0625 142.25H91.2383V142.168C91.207 141.617 91.0586 141.191 90.793 140.891C90.5273 140.586 90.168 140.434 89.7148 140.434ZM96.6465 140.633C96.4824 140.605 96.3047 140.592 96.1133 140.592C95.4023 140.592 94.9199 140.895 94.666 141.5V146H93.582V139.66H94.6367L94.6543 140.393C95.0098 139.826 95.5137 139.543 96.166 139.543C96.377 139.543 96.5371 139.57 96.6465 139.625V140.633ZM99.8457 144.529L101.416 139.66H102.523L100.25 146H99.4238L97.127 139.66H98.2344L99.8457 144.529ZM104.744 146H103.66V139.66H104.744V146ZM103.572 137.979C103.572 137.803 103.625 137.654 103.73 137.533C103.84 137.412 104 137.352 104.211 137.352C104.422 137.352 104.582 137.412 104.691 137.533C104.801 137.654 104.855 137.803 104.855 137.979C104.855 138.154 104.801 138.301 104.691 138.418C104.582 138.535 104.422 138.594 104.211 138.594C104 138.594 103.84 138.535 103.73 138.418C103.625 138.301 103.572 138.154 103.572 137.979ZM109.115 146.117C108.256 146.117 107.557 145.836 107.018 145.273C106.479 144.707 106.209 143.951 106.209 143.006V142.807C106.209 142.178 106.328 141.617 106.566 141.125C106.809 140.629 107.145 140.242 107.574 139.965C108.008 139.684 108.477 139.543 108.98 139.543C109.805 139.543 110.445 139.814 110.902 140.357C111.359 140.9 111.588 141.678 111.588 142.689V143.141H107.293C107.309 143.766 107.49 144.271 107.838 144.658C108.189 145.041 108.635 145.232 109.174 145.232C109.557 145.232 109.881 145.154 110.146 144.998C110.412 144.842 110.645 144.635 110.844 144.377L111.506 144.893C110.975 145.709 110.178 146.117 109.115 146.117ZM108.98 140.434C108.543 140.434 108.176 140.594 107.879 140.914C107.582 141.23 107.398 141.676 107.328 142.25H110.504V142.168C110.473 141.617 110.324 141.191 110.059 140.891C109.793 140.586 109.434 140.434 108.98 140.434ZM118.461 144.506L119.68 139.66H120.764L118.918 146H118.039L116.498 141.195L114.998 146H114.119L112.279 139.66H113.357L114.605 144.406L116.082 139.66H116.955L118.461 144.506Z" fill="#AAAAAA"/>
<line x1="33" y1="180.5" x2="161" y2="180.5" stroke="#FF9A3D"/>
<path d="M36.2656 212.293C36.1602 213.195 35.8262 213.893 35.2637 214.385C34.7051 214.873 33.9609 215.117 33.0312 215.117C32.0234 215.117 31.2148 214.756 30.6055 214.033C30 213.311 29.6973 212.344 29.6973 211.133V210.312C29.6973 209.52 29.8379 208.822 30.1191 208.221C30.4043 207.619 30.8066 207.158 31.3262 206.838C31.8457 206.514 32.4473 206.352 33.1309 206.352C34.0371 206.352 34.7637 206.605 35.3105 207.113C35.8574 207.617 36.1758 208.316 36.2656 209.211H35.1348C35.0371 208.531 34.8242 208.039 34.4961 207.734C34.1719 207.43 33.7168 207.277 33.1309 207.277C32.4121 207.277 31.8477 207.543 31.4375 208.074C31.0312 208.605 30.8281 209.361 30.8281 210.342V211.168C30.8281 212.094 31.0215 212.83 31.4082 213.377C31.7949 213.924 32.3359 214.197 33.0312 214.197C33.6562 214.197 34.1348 214.057 34.4668 213.775C34.8027 213.49 35.0254 212.996 35.1348 212.293H36.2656ZM40.6309 213.506L43.0684 206.469H44.2988L41.1348 215H40.1387L36.9805 206.469H38.2051L40.6309 213.506ZM53.1289 211.232H49.5488V215H48.4238V206.469H53.709V207.395H49.5488V210.312H53.1289V211.232ZM56.0645 215H54.9805V208.66H56.0645V215ZM54.8926 206.979C54.8926 206.803 54.9453 206.654 55.0508 206.533C55.1602 206.412 55.3203 206.352 55.5312 206.352C55.7422 206.352 55.9023 206.412 56.0117 206.533C56.1211 206.654 56.1758 206.803 56.1758 206.979C56.1758 207.154 56.1211 207.301 56.0117 207.418C55.9023 207.535 55.7422 207.594 55.5312 207.594C55.3203 207.594 55.1602 207.535 55.0508 207.418C54.9453 207.301 54.8926 207.154 54.8926 206.979ZM58.9824 215H57.8984V206H58.9824V215ZM63.3535 215.117C62.4941 215.117 61.7949 214.836 61.2559 214.273C60.7168 213.707 60.4473 212.951 60.4473 212.006V211.807C60.4473 211.178 60.5664 210.617 60.8047 210.125C61.0469 209.629 61.3828 209.242 61.8125 208.965C62.2461 208.684 62.7148 208.543 63.2188 208.543C64.043 208.543 64.6836 208.814 65.1406 209.357C65.5977 209.9 65.8262 210.678 65.8262 211.689V212.141H61.5312C61.5469 212.766 61.7285 213.271 62.0762 213.658C62.4277 214.041 62.873 214.232 63.4121 214.232C63.7949 214.232 64.1191 214.154 64.3848 213.998C64.6504 213.842 64.8828 213.635 65.082 213.377L65.7441 213.893C65.2129 214.709 64.416 215.117 63.3535 215.117ZM63.2188 209.434C62.7812 209.434 62.4141 209.594 62.1172 209.914C61.8203 210.23 61.6367 210.676 61.5664 211.25H64.7422V211.168C64.7109 210.617 64.5625 210.191 64.2969 209.891C64.0312 209.586 63.6719 209.434 63.2188 209.434Z" fill="#AAAAAA"/>
<rect x="29.5" y="224.5" width="258" height="111" rx="4.5" stroke="#FF9A3D" stroke-dasharray="2 2"/>
<path d="M152.602 278.031H147.836L146.766 281H145.219L149.562 269.625H150.875L155.227 281H153.688L152.602 278.031ZM148.289 276.797H152.156L150.219 271.477L148.289 276.797ZM156.18 276.703C156.18 275.406 156.487 274.365 157.102 273.578C157.716 272.786 158.521 272.391 159.516 272.391C160.505 272.391 161.289 272.729 161.867 273.406V269H163.312V281H161.984L161.914 280.094C161.336 280.802 160.531 281.156 159.5 281.156C158.521 281.156 157.721 280.755 157.102 279.953C156.487 279.151 156.18 278.104 156.18 276.812V276.703ZM157.625 276.867C157.625 277.826 157.823 278.576 158.219 279.117C158.615 279.659 159.161 279.93 159.859 279.93C160.776 279.93 161.445 279.518 161.867 278.695V274.812C161.435 274.016 160.771 273.617 159.875 273.617C159.167 273.617 158.615 273.891 158.219 274.438C157.823 274.984 157.625 275.794 157.625 276.867ZM165.211 276.703C165.211 275.406 165.518 274.365 166.133 273.578C166.747 272.786 167.552 272.391 168.547 272.391C169.536 272.391 170.32 272.729 170.898 273.406V269H172.344V281H171.016L170.945 280.094C170.367 280.802 169.562 281.156 168.531 281.156C167.552 281.156 166.753 280.755 166.133 279.953C165.518 279.151 165.211 278.104 165.211 276.812V276.703ZM166.656 276.867C166.656 277.826 166.854 278.576 167.25 279.117C167.646 279.659 168.193 279.93 168.891 279.93C169.807 279.93 170.477 279.518 170.898 278.695V274.812C170.466 274.016 169.802 273.617 168.906 273.617C168.198 273.617 167.646 273.891 167.25 274.438C166.854 274.984 166.656 275.794 166.656 276.867ZM185.062 275.977H180.289V281H178.789V269.625H185.836V270.859H180.289V274.75H185.062V275.977ZM188.977 281H187.531V272.547H188.977V281ZM187.414 270.305C187.414 270.07 187.484 269.872 187.625 269.711C187.771 269.549 187.984 269.469 188.266 269.469C188.547 269.469 188.76 269.549 188.906 269.711C189.052 269.872 189.125 270.07 189.125 270.305C189.125 270.539 189.052 270.734 188.906 270.891C188.76 271.047 188.547 271.125 188.266 271.125C187.984 271.125 187.771 271.047 187.625 270.891C187.484 270.734 187.414 270.539 187.414 270.305ZM192.867 281H191.422V269H192.867V281ZM198.695 281.156C197.549 281.156 196.617 280.781 195.898 280.031C195.18 279.276 194.82 278.268 194.82 277.008V276.742C194.82 275.904 194.979 275.156 195.297 274.5C195.62 273.839 196.068 273.323 196.641 272.953C197.219 272.578 197.844 272.391 198.516 272.391C199.615 272.391 200.469 272.753 201.078 273.477C201.688 274.201 201.992 275.237 201.992 276.586V277.188H196.266C196.286 278.021 196.529 278.695 196.992 279.211C197.461 279.721 198.055 279.977 198.773 279.977C199.284 279.977 199.716 279.872 200.07 279.664C200.424 279.456 200.734 279.18 201 278.836L201.883 279.523C201.174 280.612 200.112 281.156 198.695 281.156ZM198.516 273.578C197.932 273.578 197.443 273.792 197.047 274.219C196.651 274.641 196.406 275.234 196.312 276H200.547V275.891C200.505 275.156 200.307 274.589 199.953 274.188C199.599 273.781 199.12 273.578 198.516 273.578Z" fill="#606060"/>
<path d="M119 261C115.301 261.045 111.766 262.534 109.15 265.15C106.534 267.766 105.045 271.301 105 275C105.045 278.699 106.534 282.234 109.15 284.85C111.766 287.466 115.301 288.955 119 289C122.699 288.955 126.234 287.466 128.85 284.85C131.466 282.234 132.955 278.699 133 275C132.955 271.301 131.466 267.766 128.85 265.15C126.234 262.534 122.699 261.045 119 261ZM127 276H120V283H118V276H111V274H118V267H120V274H127V276Z" fill="#FF9A3D"/>
<rect x="188.5" y="153.5" width="60" height="25" rx="4.5" fill="#FF9A3D" stroke="#FF9A3D"/>
<path d="M222.986 163.077H220.809V169H219.344V163.077H217.195V161.891H222.986V163.077ZM223.826 169V161.891H226.316C227.179 161.891 227.833 162.057 228.279 162.389C228.725 162.717 228.948 163.201 228.948 163.839C228.948 164.187 228.859 164.495 228.68 164.762C228.501 165.025 228.252 165.219 227.933 165.343C228.297 165.434 228.584 165.618 228.792 165.895C229.004 166.171 229.109 166.51 229.109 166.91C229.109 167.594 228.891 168.111 228.455 168.463C228.019 168.814 227.397 168.993 226.59 169H223.826ZM225.291 165.904V167.823H226.546C226.891 167.823 227.16 167.742 227.352 167.579C227.547 167.413 227.645 167.185 227.645 166.896C227.645 166.244 227.308 165.914 226.634 165.904H225.291ZM225.291 164.869H226.375C227.114 164.856 227.483 164.562 227.483 163.985C227.483 163.663 227.389 163.432 227.2 163.292C227.015 163.149 226.72 163.077 226.316 163.077H225.291V164.869ZM230.213 169V161.891H232.4C233.025 161.891 233.584 162.032 234.075 162.315C234.57 162.595 234.956 162.996 235.232 163.517C235.509 164.034 235.647 164.623 235.647 165.284V165.611C235.647 166.272 235.511 166.86 235.237 167.374C234.967 167.888 234.585 168.287 234.09 168.57C233.595 168.854 233.037 168.997 232.415 169H230.213ZM231.678 163.077V167.823H232.386C232.959 167.823 233.396 167.636 233.699 167.262C234.002 166.887 234.157 166.352 234.163 165.655V165.279C234.163 164.557 234.013 164.01 233.714 163.639C233.414 163.264 232.977 163.077 232.4 163.077H231.678Z" fill="white"/>
<path d="M201.875 161.5H208.125C208.49 161.5 208.839 161.645 209.097 161.903C209.355 162.161 209.5 162.51 209.5 162.875V169.125C209.5 169.49 209.355 169.839 209.097 170.097C208.839 170.355 208.49 170.5 208.125 170.5H201.875C201.51 170.5 201.161 170.355 200.903 170.097C200.645 169.839 200.5 169.49 200.5 169.125V162.875C200.5 162.51 200.645 162.161 200.903 161.903C201.161 161.645 201.51 161.5 201.875 161.5ZM201.875 162.25C201.53 162.25 201.25 162.53 201.25 162.875V169.125C201.25 169.47 201.53 169.75 201.875 169.75H208.125C208.47 169.75 208.75 169.47 208.75 169.125V162.875C208.75 162.53 208.47 162.25 208.125 162.25H201.875Z" fill="white"/>
</svg>
