<svg width="259" height="132" viewBox="0 0 259 132" fill="none" xmlns="http://www.w3.org/2000/svg">
<path d="M7.26562 8.29297C7.16016 9.19531 6.82617 9.89258 6.26367 10.3848C5.70508 10.873 4.96094 11.1172 4.03125 11.1172C3.02344 11.1172 2.21484 10.7559 1.60547 10.0332C1 9.31055 0.697266 8.34375 0.697266 7.13281V6.3125C0.697266 5.51953 0.837891 4.82227 1.11914 4.2207C1.4043 3.61914 1.80664 3.1582 2.32617 2.83789C2.8457 2.51367 3.44727 2.35156 4.13086 2.35156C5.03711 2.35156 5.76367 2.60547 6.31055 3.11328C6.85742 3.61719 7.17578 4.31641 7.26562 5.21094H6.13477C6.03711 4.53125 5.82422 4.03906 5.49609 3.73438C5.17188 3.42969 4.7168 3.27734 4.13086 3.27734C3.41211 3.27734 2.84766 3.54297 2.4375 4.07422C2.03125 4.60547 1.82812 5.36133 1.82812 6.3418V7.16797C1.82812 8.09375 2.02148 8.83008 2.4082 9.37695C2.79492 9.92383 3.33594 10.1973 4.03125 10.1973C4.65625 10.1973 5.13477 10.0566 5.4668 9.77539C5.80273 9.49023 6.02539 8.99609 6.13477 8.29297H7.26562ZM11.6309 9.50586L14.0684 2.46875H15.2988L12.1348 11H11.1387L7.98047 2.46875H9.20508L11.6309 9.50586ZM24.1289 7.23242H20.5488V11H19.4238V2.46875H24.709V3.39453H20.5488V6.3125H24.1289V7.23242ZM27.0645 11H25.9805V4.66016H27.0645V11ZM25.8926 2.97852C25.8926 2.80273 25.9453 2.6543 26.0508 2.5332C26.1602 2.41211 26.3203 2.35156 26.5312 2.35156C26.7422 2.35156 26.9023 2.41211 27.0117 2.5332C27.1211 2.6543 27.1758 2.80273 27.1758 2.97852C27.1758 3.1543 27.1211 3.30078 27.0117 3.41797C26.9023 3.53516 26.7422 3.59375 26.5312 3.59375C26.3203 3.59375 26.1602 3.53516 26.0508 3.41797C25.9453 3.30078 25.8926 3.1543 25.8926 2.97852ZM29.9824 11H28.8984V2H29.9824V11ZM34.3535 11.1172C33.4941 11.1172 32.7949 10.8359 32.2559 10.2734C31.7168 9.70703 31.4473 8.95117 31.4473 8.00586V7.80664C31.4473 7.17773 31.5664 6.61719 31.8047 6.125C32.0469 5.62891 32.3828 5.24219 32.8125 4.96484C33.2461 4.68359 33.7148 4.54297 34.2188 4.54297C35.043 4.54297 35.6836 4.81445 36.1406 5.35742C36.5977 5.90039 36.8262 6.67773 36.8262 7.68945V8.14062H32.5312C32.5469 8.76562 32.7285 9.27148 33.0762 9.6582C33.4277 10.041 33.873 10.2324 34.4121 10.2324C34.7949 10.2324 35.1191 10.1543 35.3848 9.99805C35.6504 9.8418 35.8828 9.63477 36.082 9.37695L36.7441 9.89258C36.2129 10.709 35.416 11.1172 34.3535 11.1172ZM34.2188 5.43359C33.7812 5.43359 33.4141 5.59375 33.1172 5.91406C32.8203 6.23047 32.6367 6.67578 32.5664 7.25H35.7422V7.16797C35.7109 6.61719 35.5625 6.19141 35.2969 5.89062C35.0312 5.58594 34.6719 5.43359 34.2188 5.43359Z" fill="#AAAAAA"/>
<rect x="0.5" y="20.5" width="258" height="111" rx="4.5" stroke="#FF9A3D" stroke-dasharray="2 2"/>
<path d="M123.602 74.0312H118.836L117.766 77H116.219L120.562 65.625H121.875L126.227 77H124.688L123.602 74.0312ZM119.289 72.7969H123.156L121.219 67.4766L119.289 72.7969ZM127.18 72.7031C127.18 71.4062 127.487 70.3646 128.102 69.5781C128.716 68.7865 129.521 68.3906 130.516 68.3906C131.505 68.3906 132.289 68.7292 132.867 69.4062V65H134.312V77H132.984L132.914 76.0938C132.336 76.8021 131.531 77.1562 130.5 77.1562C129.521 77.1562 128.721 76.7552 128.102 75.9531C127.487 75.151 127.18 74.1042 127.18 72.8125V72.7031ZM128.625 72.8672C128.625 73.8255 128.823 74.5755 129.219 75.1172C129.615 75.6589 130.161 75.9297 130.859 75.9297C131.776 75.9297 132.445 75.5182 132.867 74.6953V70.8125C132.435 70.0156 131.771 69.6172 130.875 69.6172C130.167 69.6172 129.615 69.8906 129.219 70.4375C128.823 70.9844 128.625 71.7943 128.625 72.8672ZM136.211 72.7031C136.211 71.4062 136.518 70.3646 137.133 69.5781C137.747 68.7865 138.552 68.3906 139.547 68.3906C140.536 68.3906 141.32 68.7292 141.898 69.4062V65H143.344V77H142.016L141.945 76.0938C141.367 76.8021 140.562 77.1562 139.531 77.1562C138.552 77.1562 137.753 76.7552 137.133 75.9531C136.518 75.151 136.211 74.1042 136.211 72.8125V72.7031ZM137.656 72.8672C137.656 73.8255 137.854 74.5755 138.25 75.1172C138.646 75.6589 139.193 75.9297 139.891 75.9297C140.807 75.9297 141.477 75.5182 141.898 74.6953V70.8125C141.466 70.0156 140.802 69.6172 139.906 69.6172C139.198 69.6172 138.646 69.8906 138.25 70.4375C137.854 70.9844 137.656 71.7943 137.656 72.8672ZM156.062 71.9766H151.289V77H149.789V65.625H156.836V66.8594H151.289V70.75H156.062V71.9766ZM159.977 77H158.531V68.5469H159.977V77ZM158.414 66.3047C158.414 66.0703 158.484 65.8724 158.625 65.7109C158.771 65.5495 158.984 65.4688 159.266 65.4688C159.547 65.4688 159.76 65.5495 159.906 65.7109C160.052 65.8724 160.125 66.0703 160.125 66.3047C160.125 66.5391 160.052 66.7344 159.906 66.8906C159.76 67.0469 159.547 67.125 159.266 67.125C158.984 67.125 158.771 67.0469 158.625 66.8906C158.484 66.7344 158.414 66.5391 158.414 66.3047ZM163.867 77H162.422V65H163.867V77ZM169.695 77.1562C168.549 77.1562 167.617 76.7812 166.898 76.0312C166.18 75.276 165.82 74.2682 165.82 73.0078V72.7422C165.82 71.9036 165.979 71.1562 166.297 70.5C166.62 69.8385 167.068 69.3229 167.641 68.9531C168.219 68.5781 168.844 68.3906 169.516 68.3906C170.615 68.3906 171.469 68.7526 172.078 69.4766C172.688 70.2005 172.992 71.237 172.992 72.5859V73.1875H167.266C167.286 74.0208 167.529 74.6953 167.992 75.2109C168.461 75.7214 169.055 75.9766 169.773 75.9766C170.284 75.9766 170.716 75.8724 171.07 75.6641C171.424 75.4557 171.734 75.1797 172 74.8359L172.883 75.5234C172.174 76.612 171.112 77.1562 169.695 77.1562ZM169.516 69.5781C168.932 69.5781 168.443 69.7917 168.047 70.2188C167.651 70.6406 167.406 71.2344 167.312 72H171.547V71.8906C171.505 71.1562 171.307 70.5885 170.953 70.1875C170.599 69.7812 170.12 69.5781 169.516 69.5781Z" fill="#606060"/>
<path d="M90 57C86.3008 57.0446 82.7657 58.534 80.1499 61.1499C77.534 63.7657 76.0446 67.3008 76 71C76.0446 74.6992 77.534 78.2343 80.1499 80.8501C82.7657 83.466 86.3008 84.9554 90 85C93.6992 84.9554 97.2343 83.466 99.8501 80.8501C102.466 78.2343 103.955 74.6992 104 71C103.955 67.3008 102.466 63.7657 99.8501 61.1499C97.2343 58.534 93.6992 57.0446 90 57V57ZM98 72H91V79H89V72H82V70H89V63H91V70H98V72Z" fill="#FF9A3D"/>
</svg>
