<svg width="279" height="184" viewBox="0 0 279 184" fill="none" xmlns="http://www.w3.org/2000/svg">
<g filter="url(#filter0_d)">
<rect x="27" y="23" width="225" height="130" rx="8" fill="white"/>
<path d="M68.8047 54.9219H64.1328V58.4219H69.5938V60H62.1562V48.625H69.5391V50.2188H64.1328V53.3594H68.8047V54.9219ZM73.0391 60H71.1406V48H73.0391V60ZM74.7578 55.6953C74.7578 54.8672 74.9219 54.1224 75.25 53.4609C75.5781 52.7943 76.0391 52.2839 76.6328 51.9297C77.2266 51.5703 77.9089 51.3906 78.6797 51.3906C79.8203 51.3906 80.7448 51.7578 81.4531 52.4922C82.1667 53.2266 82.5521 54.2005 82.6094 55.4141L82.6172 55.8594C82.6172 56.6927 82.4557 57.4375 82.1328 58.0938C81.8151 58.75 81.3568 59.2578 80.7578 59.6172C80.1641 59.9766 79.4766 60.1562 78.6953 60.1562C77.5026 60.1562 76.5469 59.7604 75.8281 58.9688C75.1146 58.1719 74.7578 57.112 74.7578 55.7891V55.6953ZM76.6562 55.8594C76.6562 56.7292 76.8359 57.4115 77.1953 57.9062C77.5547 58.3958 78.0547 58.6406 78.6953 58.6406C79.3359 58.6406 79.8333 58.3906 80.1875 57.8906C80.5469 57.3906 80.7266 56.6589 80.7266 55.6953C80.7266 54.8411 80.5417 54.1641 80.1719 53.6641C79.8073 53.1641 79.3099 52.9141 78.6797 52.9141C78.0599 52.9141 77.5677 53.1615 77.2031 53.6562C76.8385 54.1458 76.6562 54.8802 76.6562 55.8594ZM85.9844 51.5469L86.0391 52.5234C86.6641 51.7682 87.4844 51.3906 88.5 51.3906C90.2604 51.3906 91.1562 52.3984 91.1875 54.4141V60H89.2891V54.5234C89.2891 53.987 89.1719 53.5911 88.9375 53.3359C88.7083 53.0755 88.3307 52.9453 87.8047 52.9453C87.0391 52.9453 86.4688 53.2917 86.0938 53.9844V60H84.1953V51.5469H85.9844ZM99.8594 48.625L103.141 57.3438L106.414 48.625H108.969V60H107V56.25L107.195 51.2344L103.836 60H102.422L99.0703 51.2422L99.2656 56.25V60H97.2969V48.625H99.8594ZM116.25 59.1719C115.693 59.8281 114.901 60.1562 113.875 60.1562C112.958 60.1562 112.263 59.888 111.789 59.3516C111.32 58.8151 111.086 58.0391 111.086 57.0234V51.5469H112.984V57C112.984 58.0729 113.43 58.6094 114.32 58.6094C115.242 58.6094 115.865 58.2786 116.188 57.6172V51.5469H118.086V60H116.297L116.25 59.1719ZM124.758 57.7031C124.758 57.3646 124.617 57.1068 124.336 56.9297C124.06 56.7526 123.599 56.5964 122.953 56.4609C122.307 56.3255 121.768 56.1536 121.336 55.9453C120.388 55.487 119.914 54.8229 119.914 53.9531C119.914 53.224 120.221 52.6146 120.836 52.125C121.451 51.6354 122.232 51.3906 123.18 51.3906C124.19 51.3906 125.005 51.6406 125.625 52.1406C126.25 52.6406 126.562 53.2891 126.562 54.0859H124.664C124.664 53.7214 124.529 53.4193 124.258 53.1797C123.987 52.9349 123.628 52.8125 123.18 52.8125C122.763 52.8125 122.422 52.9089 122.156 53.1016C121.896 53.2943 121.766 53.5521 121.766 53.875C121.766 54.1667 121.888 54.3932 122.133 54.5547C122.378 54.7161 122.872 54.8802 123.617 55.0469C124.362 55.2083 124.945 55.4036 125.367 55.6328C125.794 55.8568 126.109 56.1276 126.312 56.4453C126.521 56.763 126.625 57.1484 126.625 57.6016C126.625 58.362 126.31 58.9792 125.68 59.4531C125.049 59.9219 124.224 60.1562 123.203 60.1562C122.51 60.1562 121.893 60.0312 121.352 59.7812C120.81 59.5312 120.388 59.1875 120.086 58.75C119.784 58.3125 119.633 57.8411 119.633 57.3359H121.477C121.503 57.7839 121.672 58.1302 121.984 58.375C122.297 58.6146 122.711 58.7344 123.227 58.7344C123.727 58.7344 124.107 58.6406 124.367 58.4531C124.628 58.2604 124.758 58.0104 124.758 57.7031ZM131.031 56.375L130.188 57.2422V60H128.289V48H130.188V54.9219L130.781 54.1797L133.117 51.5469H135.398L132.258 55.0703L135.734 60H133.539L131.031 56.375Z" fill="#5F5F5F"/>
<rect x="60.5973" y="71.8793" width="105.882" height="27.1552" rx="13.5776" fill="#FF4185"/>
<path d="M76.8779 85.8262H73.958V88.0137H77.3711V89H72.7227V81.8906H77.3369V82.8867H73.958V84.8496H76.8779V85.8262ZM79.998 87.4961L81.1162 83.7168H82.3418L80.5107 89H79.4805L77.6348 83.7168H78.8652L79.998 87.4961ZM85.3447 89.0977C84.5928 89.0977 83.9824 88.8617 83.5137 88.3896C83.0482 87.9144 82.8154 87.2829 82.8154 86.4951V86.3486C82.8154 85.8213 82.9163 85.3509 83.1182 84.9375C83.3232 84.5208 83.6097 84.1969 83.9775 83.9658C84.3454 83.7347 84.7555 83.6191 85.208 83.6191C85.9274 83.6191 86.4824 83.8486 86.873 84.3076C87.2669 84.7666 87.4639 85.416 87.4639 86.2559V86.7344H84.0117C84.0475 87.1706 84.1924 87.5156 84.4463 87.7695C84.7035 88.0234 85.0257 88.1504 85.4131 88.1504C85.9567 88.1504 86.3994 87.9307 86.7412 87.4912L87.3809 88.1016C87.1693 88.4173 86.8861 88.6631 86.5312 88.8389C86.1797 89.0114 85.7842 89.0977 85.3447 89.0977ZM85.2031 84.5713C84.8776 84.5713 84.6139 84.6852 84.4121 84.9131C84.2135 85.141 84.0866 85.4583 84.0312 85.8652H86.292V85.7773C86.266 85.3802 86.1602 85.0807 85.9746 84.8789C85.7891 84.6738 85.5319 84.5713 85.2031 84.5713ZM89.4902 83.7168L89.5244 84.3271C89.915 83.8551 90.4277 83.6191 91.0625 83.6191C92.1628 83.6191 92.7227 84.249 92.7422 85.5088V89H91.5557V85.5771C91.5557 85.2419 91.4824 84.9945 91.3359 84.835C91.1927 84.6722 90.9567 84.5908 90.6279 84.5908C90.1494 84.5908 89.793 84.8073 89.5586 85.2402V89H88.3721V83.7168H89.4902ZM95.4424 82.4326V83.7168H96.375V84.5957H95.4424V87.5449C95.4424 87.7467 95.4814 87.8932 95.5596 87.9844C95.641 88.0723 95.7842 88.1162 95.9893 88.1162C96.126 88.1162 96.2643 88.0999 96.4043 88.0674V88.9854C96.1341 89.0602 95.8737 89.0977 95.623 89.0977C94.7116 89.0977 94.2559 88.5947 94.2559 87.5889V84.5957H93.3867V83.7168H94.2559V82.4326H95.4424ZM105.315 86.6855C105.244 87.444 104.964 88.0365 104.476 88.4629C103.987 88.8861 103.338 89.0977 102.527 89.0977C101.961 89.0977 101.461 88.9642 101.028 88.6973C100.599 88.4271 100.267 88.0446 100.032 87.5498C99.7979 87.055 99.6758 86.4805 99.666 85.8262V85.1621C99.666 84.4915 99.7848 83.9007 100.022 83.3896C100.26 82.8786 100.6 82.4847 101.043 82.208C101.489 81.9313 102.003 81.793 102.586 81.793C103.37 81.793 104.002 82.0062 104.48 82.4326C104.959 82.859 105.237 83.4613 105.315 84.2393H104.085C104.026 83.7282 103.877 83.3604 103.636 83.1357C103.398 82.9079 103.048 82.7939 102.586 82.7939C102.049 82.7939 101.635 82.9909 101.346 83.3848C101.059 83.7754 100.913 84.3499 100.906 85.1084V85.7383C100.906 86.5065 101.043 87.0924 101.316 87.4961C101.593 87.8997 101.997 88.1016 102.527 88.1016C103.012 88.1016 103.377 87.9925 103.621 87.7744C103.865 87.5563 104.02 87.1934 104.085 86.6855H105.315ZM106.087 86.3096C106.087 85.792 106.189 85.3265 106.395 84.9131C106.6 84.4964 106.888 84.1774 107.259 83.9561C107.63 83.7314 108.056 83.6191 108.538 83.6191C109.251 83.6191 109.829 83.8486 110.271 84.3076C110.717 84.7666 110.958 85.3753 110.994 86.1338L110.999 86.4121C110.999 86.9329 110.898 87.3984 110.696 87.8086C110.498 88.2188 110.211 88.5361 109.837 88.7607C109.466 88.9854 109.036 89.0977 108.548 89.0977C107.802 89.0977 107.205 88.8503 106.756 88.3555C106.31 87.8574 106.087 87.195 106.087 86.3682V86.3096ZM107.273 86.4121C107.273 86.9557 107.386 87.3822 107.61 87.6914C107.835 87.9974 108.147 88.1504 108.548 88.1504C108.948 88.1504 109.259 87.9941 109.48 87.6816C109.705 87.3691 109.817 86.9118 109.817 86.3096C109.817 85.7757 109.702 85.3525 109.471 85.04C109.243 84.7275 108.932 84.5713 108.538 84.5713C108.151 84.5713 107.843 84.7259 107.615 85.0352C107.387 85.3411 107.273 85.8001 107.273 86.4121ZM111.78 86.3096C111.78 85.792 111.883 85.3265 112.088 84.9131C112.293 84.4964 112.581 84.1774 112.952 83.9561C113.323 83.7314 113.75 83.6191 114.231 83.6191C114.944 83.6191 115.522 83.8486 115.965 84.3076C116.411 84.7666 116.652 85.3753 116.688 86.1338L116.692 86.4121C116.692 86.9329 116.591 87.3984 116.39 87.8086C116.191 88.2188 115.905 88.5361 115.53 88.7607C115.159 88.9854 114.729 89.0977 114.241 89.0977C113.496 89.0977 112.898 88.8503 112.449 88.3555C112.003 87.8574 111.78 87.195 111.78 86.3682V86.3096ZM112.967 86.4121C112.967 86.9557 113.079 87.3822 113.304 87.6914C113.528 87.9974 113.841 88.1504 114.241 88.1504C114.642 88.1504 114.952 87.9941 115.174 87.6816C115.398 87.3691 115.511 86.9118 115.511 86.3096C115.511 85.7757 115.395 85.3525 115.164 85.04C114.936 84.7275 114.625 84.5713 114.231 84.5713C113.844 84.5713 113.536 84.7259 113.309 85.0352C113.081 85.3411 112.967 85.8001 112.967 86.4121ZM120.462 84.8008C120.306 84.7747 120.145 84.7617 119.979 84.7617C119.435 84.7617 119.069 84.9701 118.88 85.3867V89H117.693V83.7168H118.826L118.855 84.3076C119.142 83.8486 119.539 83.6191 120.047 83.6191C120.216 83.6191 120.356 83.6419 120.467 83.6875L120.462 84.8008ZM120.892 86.3193C120.892 85.5055 121.08 84.8529 121.458 84.3613C121.836 83.8665 122.342 83.6191 122.977 83.6191C123.536 83.6191 123.989 83.8145 124.334 84.2051V81.5H125.521V89H124.446L124.388 88.4531C124.033 88.8828 123.559 89.0977 122.967 89.0977C122.348 89.0977 121.847 88.8486 121.463 88.3506C121.082 87.8525 120.892 87.1755 120.892 86.3193ZM122.078 86.4219C122.078 86.959 122.181 87.3789 122.386 87.6816C122.594 87.9811 122.889 88.1309 123.27 88.1309C123.755 88.1309 124.109 87.9144 124.334 87.4814V85.2256C124.116 84.8024 123.764 84.5908 123.279 84.5908C122.895 84.5908 122.599 84.7438 122.391 85.0498C122.182 85.3525 122.078 85.8099 122.078 86.4219ZM128.021 89H126.834V83.7168H128.021V89ZM126.761 82.3447C126.761 82.1624 126.818 82.0111 126.932 81.8906C127.049 81.7702 127.215 81.71 127.43 81.71C127.645 81.71 127.811 81.7702 127.928 81.8906C128.045 82.0111 128.104 82.1624 128.104 82.3447C128.104 82.5238 128.045 82.6735 127.928 82.7939C127.811 82.9111 127.645 82.9697 127.43 82.9697C127.215 82.9697 127.049 82.9111 126.932 82.7939C126.818 82.6735 126.761 82.5238 126.761 82.3447ZM130.418 83.7168L130.452 84.3271C130.843 83.8551 131.355 83.6191 131.99 83.6191C133.09 83.6191 133.65 84.249 133.67 85.5088V89H132.483V85.5771C132.483 85.2419 132.41 84.9945 132.264 84.835C132.12 84.6722 131.884 84.5908 131.556 84.5908C131.077 84.5908 130.721 84.8073 130.486 85.2402V89H129.3V83.7168H130.418ZM138.04 89C137.988 88.8991 137.942 88.7347 137.903 88.5068C137.526 88.9007 137.063 89.0977 136.517 89.0977C135.986 89.0977 135.553 88.9463 135.218 88.6436C134.882 88.3408 134.715 87.9665 134.715 87.5205C134.715 86.9574 134.923 86.526 135.34 86.2266C135.76 85.9238 136.359 85.7725 137.137 85.7725H137.864V85.4258C137.864 85.1523 137.788 84.9342 137.635 84.7715C137.482 84.6055 137.249 84.5225 136.937 84.5225C136.666 84.5225 136.445 84.5908 136.272 84.7275C136.1 84.861 136.014 85.0319 136.014 85.2402H134.827C134.827 84.9505 134.923 84.6803 135.115 84.4297C135.307 84.1758 135.568 83.9772 135.896 83.834C136.229 83.6908 136.598 83.6191 137.005 83.6191C137.623 83.6191 138.117 83.7754 138.484 84.0879C138.852 84.3971 139.041 84.8333 139.051 85.3965V87.7793C139.051 88.2546 139.118 88.6338 139.251 88.917V89H138.04ZM136.736 88.1455C136.971 88.1455 137.19 88.0885 137.396 87.9746C137.604 87.8607 137.76 87.7077 137.864 87.5156V86.5195H137.225C136.785 86.5195 136.455 86.596 136.233 86.749C136.012 86.902 135.901 87.1185 135.901 87.3984C135.901 87.6263 135.976 87.8086 136.126 87.9453C136.279 88.0788 136.482 88.1455 136.736 88.1455ZM141.78 82.4326V83.7168H142.713V84.5957H141.78V87.5449C141.78 87.7467 141.819 87.8932 141.897 87.9844C141.979 88.0723 142.122 88.1162 142.327 88.1162C142.464 88.1162 142.602 88.0999 142.742 88.0674V88.9854C142.472 89.0602 142.212 89.0977 141.961 89.0977C141.049 89.0977 140.594 88.5947 140.594 87.5889V84.5957H139.725V83.7168H140.594V82.4326H141.78ZM143.255 86.3096C143.255 85.792 143.357 85.3265 143.562 84.9131C143.768 84.4964 144.056 84.1774 144.427 83.9561C144.798 83.7314 145.224 83.6191 145.706 83.6191C146.419 83.6191 146.997 83.8486 147.439 84.3076C147.885 84.7666 148.126 85.3753 148.162 86.1338L148.167 86.4121C148.167 86.9329 148.066 87.3984 147.864 87.8086C147.666 88.2188 147.379 88.5361 147.005 88.7607C146.634 88.9854 146.204 89.0977 145.716 89.0977C144.97 89.0977 144.373 88.8503 143.924 88.3555C143.478 87.8574 143.255 87.195 143.255 86.3682V86.3096ZM144.441 86.4121C144.441 86.9557 144.554 87.3822 144.778 87.6914C145.003 87.9974 145.315 88.1504 145.716 88.1504C146.116 88.1504 146.427 87.9941 146.648 87.6816C146.873 87.3691 146.985 86.9118 146.985 86.3096C146.985 85.7757 146.87 85.3525 146.639 85.04C146.411 84.7275 146.1 84.5713 145.706 84.5713C145.319 84.5713 145.011 84.7259 144.783 85.0352C144.555 85.3411 144.441 85.8001 144.441 86.4121ZM151.937 84.8008C151.78 84.7747 151.619 84.7617 151.453 84.7617C150.91 84.7617 150.543 84.9701 150.354 85.3867V89H149.168V83.7168H150.301L150.33 84.3076C150.617 83.8486 151.014 83.6191 151.521 83.6191C151.691 83.6191 151.831 83.6419 151.941 83.6875L151.937 84.8008Z" fill="white"/>
<path d="M81.7451 132H80.5635V126.292L78.8203 126.888V125.887L81.5938 124.866H81.7451V132ZM88.6934 126.766C88.6934 127.114 88.6038 127.425 88.4248 127.698C88.2458 127.968 88.0016 128.182 87.6924 128.338C88.0635 128.51 88.3483 128.746 88.5469 129.046C88.7487 129.345 88.8496 129.684 88.8496 130.062C88.8496 130.687 88.638 131.183 88.2148 131.551C87.7917 131.915 87.2285 132.098 86.5254 132.098C85.819 132.098 85.2526 131.914 84.8262 131.546C84.403 131.178 84.1914 130.683 84.1914 130.062C84.1914 129.681 84.2923 129.339 84.4941 129.036C84.696 128.733 84.9792 128.501 85.3438 128.338C85.0378 128.182 84.7952 127.968 84.6162 127.698C84.4404 127.425 84.3525 127.114 84.3525 126.766C84.3525 126.16 84.5479 125.68 84.9385 125.325C85.3291 124.97 85.8564 124.793 86.5205 124.793C87.1878 124.793 87.7168 124.97 88.1074 125.325C88.498 125.68 88.6934 126.16 88.6934 126.766ZM87.6631 130.003C87.6631 129.651 87.5573 129.368 87.3457 129.153C87.1374 128.935 86.8607 128.826 86.5156 128.826C86.1706 128.826 85.8939 128.934 85.6855 129.148C85.4805 129.363 85.3779 129.648 85.3779 130.003C85.3779 130.351 85.4788 130.63 85.6807 130.838C85.8857 131.046 86.1673 131.15 86.5254 131.15C86.8835 131.15 87.1618 131.049 87.3604 130.848C87.5622 130.646 87.6631 130.364 87.6631 130.003ZM87.5117 126.81C87.5117 126.5 87.4222 126.246 87.2432 126.048C87.0641 125.846 86.8232 125.745 86.5205 125.745C86.2178 125.745 85.9785 125.841 85.8027 126.033C85.627 126.222 85.5391 126.481 85.5391 126.81C85.5391 127.135 85.627 127.394 85.8027 127.586C85.9818 127.778 86.2227 127.874 86.5254 127.874C86.8281 127.874 87.0674 127.778 87.2432 127.586C87.4222 127.394 87.5117 127.135 87.5117 126.81ZM95.4902 124.891H96.7207V129.876C96.7207 130.556 96.5075 131.097 96.0811 131.497C95.6579 131.897 95.098 132.098 94.4014 132.098C93.6592 132.098 93.0863 131.91 92.6826 131.536C92.279 131.162 92.0771 130.641 92.0771 129.974H93.3076C93.3076 130.351 93.4004 130.636 93.5859 130.828C93.7747 131.017 94.0465 131.111 94.4014 131.111C94.7334 131.111 94.9971 131.002 95.1924 130.784C95.391 130.563 95.4902 130.258 95.4902 129.871V124.891ZM101.223 131.482C100.874 131.893 100.38 132.098 99.7383 132.098C99.1654 132.098 98.7308 131.93 98.4346 131.595C98.1416 131.259 97.9951 130.774 97.9951 130.14V126.717H99.1816V130.125C99.1816 130.796 99.46 131.131 100.017 131.131C100.593 131.131 100.982 130.924 101.184 130.511V126.717H102.37V132H101.252L101.223 131.482ZM104.841 132H103.654V124.5H104.841V132ZM107.985 130.301L109.06 126.717H110.324L108.225 132.801C107.902 133.689 107.355 134.134 106.584 134.134C106.411 134.134 106.221 134.104 106.013 134.046V133.128L106.237 133.143C106.537 133.143 106.761 133.087 106.911 132.977C107.064 132.869 107.185 132.687 107.272 132.43L107.443 131.976L105.588 126.717H106.867L107.985 130.301ZM118.205 132H113.425V131.185L115.793 128.602C116.135 128.221 116.377 127.903 116.521 127.649C116.667 127.392 116.74 127.135 116.74 126.878C116.74 126.539 116.644 126.266 116.452 126.058C116.263 125.849 116.008 125.745 115.686 125.745C115.301 125.745 115.004 125.862 114.792 126.097C114.58 126.331 114.475 126.652 114.475 127.059H113.288C113.288 126.626 113.386 126.237 113.581 125.892C113.78 125.543 114.061 125.273 114.426 125.081C114.794 124.889 115.217 124.793 115.695 124.793C116.385 124.793 116.929 124.967 117.326 125.315C117.727 125.66 117.927 126.139 117.927 126.751C117.927 127.106 117.826 127.479 117.624 127.869C117.425 128.257 117.098 128.698 116.643 129.192L114.904 131.053H118.205V132ZM123.742 129.007C123.742 130.029 123.55 130.8 123.166 131.321C122.785 131.839 122.204 132.098 121.423 132.098C120.655 132.098 120.075 131.845 119.685 131.341C119.297 130.833 119.099 130.083 119.089 129.09V127.859C119.089 126.837 119.279 126.071 119.66 125.56C120.044 125.049 120.629 124.793 121.413 124.793C122.191 124.793 122.771 125.042 123.151 125.54C123.535 126.038 123.732 126.784 123.742 127.776V129.007ZM122.556 127.679C122.556 127.011 122.465 126.523 122.282 126.214C122.1 125.901 121.81 125.745 121.413 125.745C121.026 125.745 120.741 125.893 120.559 126.189C120.376 126.482 120.28 126.941 120.271 127.566V129.178C120.271 129.842 120.363 130.337 120.549 130.662C120.734 130.988 121.026 131.15 121.423 131.15C121.804 131.15 122.085 131.001 122.268 130.701C122.45 130.398 122.546 129.926 122.556 129.285V127.679ZM129.572 132H124.792V131.185L127.16 128.602C127.502 128.221 127.744 127.903 127.888 127.649C128.034 127.392 128.107 127.135 128.107 126.878C128.107 126.539 128.011 126.266 127.819 126.058C127.631 125.849 127.375 125.745 127.053 125.745C126.669 125.745 126.371 125.862 126.159 126.097C125.948 126.331 125.842 126.652 125.842 127.059H124.655C124.655 126.626 124.753 126.237 124.948 125.892C125.147 125.543 125.428 125.273 125.793 125.081C126.161 124.889 126.584 124.793 127.062 124.793C127.753 124.793 128.296 124.967 128.693 125.315C129.094 125.66 129.294 126.139 129.294 126.751C129.294 127.106 129.193 127.479 128.991 127.869C128.793 128.257 128.465 128.698 128.01 129.192L126.271 131.053H129.572V132ZM133.688 132H132.507V126.292L130.764 126.888V125.887L133.537 124.866H133.688V132ZM136.403 133.602L135.764 133.221C135.952 132.924 136.081 132.666 136.149 132.444C136.221 132.226 136.258 132.003 136.262 131.775V130.853H137.331L137.326 131.707C137.323 132.052 137.235 132.397 137.062 132.742C136.893 133.09 136.674 133.377 136.403 133.602ZM144.06 132H142.878V126.292L141.135 126.888V125.887L143.908 124.866H144.06V132ZM149.743 132H148.562V126.292L146.818 126.888V125.887L149.592 124.866H149.743V132ZM153.005 130.75C153.226 130.75 153.397 130.813 153.518 130.94C153.638 131.064 153.698 131.22 153.698 131.409C153.698 131.595 153.638 131.749 153.518 131.873C153.397 131.993 153.226 132.054 153.005 132.054C152.793 132.054 152.626 131.993 152.502 131.873C152.378 131.753 152.316 131.598 152.316 131.409C152.316 131.22 152.377 131.064 152.497 130.94C152.618 130.813 152.787 130.75 153.005 130.75ZM153.005 126.604C153.226 126.604 153.397 126.668 153.518 126.795C153.638 126.919 153.698 127.075 153.698 127.264C153.698 127.449 153.638 127.604 153.518 127.728C153.397 127.848 153.226 127.908 153.005 127.908C152.793 127.908 152.626 127.848 152.502 127.728C152.378 127.607 152.316 127.452 152.316 127.264C152.316 127.075 152.377 126.919 152.497 126.795C152.618 126.668 152.787 126.604 153.005 126.604ZM159.65 132H154.87V131.185L157.238 128.602C157.58 128.221 157.823 127.903 157.966 127.649C158.112 127.392 158.186 127.135 158.186 126.878C158.186 126.539 158.09 126.266 157.897 126.058C157.709 125.849 157.453 125.745 157.131 125.745C156.747 125.745 156.449 125.862 156.237 126.097C156.026 126.331 155.92 126.652 155.92 127.059H154.733C154.733 126.626 154.831 126.237 155.026 125.892C155.225 125.543 155.507 125.273 155.871 125.081C156.239 124.889 156.662 124.793 157.141 124.793C157.831 124.793 158.374 124.967 158.771 125.315C159.172 125.66 159.372 126.139 159.372 126.751C159.372 127.106 159.271 127.479 159.069 127.869C158.871 128.257 158.544 128.698 158.088 129.192L156.35 131.053H159.65V132ZM165.188 129.007C165.188 130.029 164.995 130.8 164.611 131.321C164.23 131.839 163.649 132.098 162.868 132.098C162.1 132.098 161.521 131.845 161.13 131.341C160.743 130.833 160.544 130.083 160.534 129.09V127.859C160.534 126.837 160.725 126.071 161.105 125.56C161.49 125.049 162.074 124.793 162.858 124.793C163.636 124.793 164.216 125.042 164.597 125.54C164.981 126.038 165.178 126.784 165.188 127.776V129.007ZM164.001 127.679C164.001 127.011 163.91 126.523 163.728 126.214C163.545 125.901 163.256 125.745 162.858 125.745C162.471 125.745 162.186 125.893 162.004 126.189C161.822 126.482 161.726 126.941 161.716 127.566V129.178C161.716 129.842 161.809 130.337 161.994 130.662C162.18 130.988 162.471 131.15 162.868 131.15C163.249 131.15 163.531 131.001 163.713 130.701C163.895 130.398 163.991 129.926 164.001 129.285V127.679Z" fill="#A7A7A7"/>
<path d="M66.5 132.542C69.2845 132.542 71.5417 130.284 71.5417 127.5C71.5417 124.716 69.2845 122.458 66.5 122.458C63.7156 122.458 61.4584 124.716 61.4584 127.5C61.4584 130.284 63.7156 132.542 66.5 132.542Z" fill="#FF4185"/>
</g>
<defs>
<filter id="filter0_d" x="0" y="0" width="279" height="184" filterUnits="userSpaceOnUse" color-interpolation-filters="sRGB">
<feFlood flood-opacity="0" result="BackgroundImageFix"/>
<feColorMatrix in="SourceAlpha" type="matrix" values="0 0 0 0 0 0 0 0 0 0 0 0 0 0 0 0 0 0 127 0"/>
<feOffset dy="4"/>
<feGaussianBlur stdDeviation="13.5"/>
<feColorMatrix type="matrix" values="0 0 0 0 0 0 0 0 0 0 0 0 0 0 0 0 0 0 0.05 0"/>
<feBlend mode="normal" in2="BackgroundImageFix" result="effect1_dropShadow"/>
<feBlend mode="normal" in="SourceGraphic" in2="effect1_dropShadow" result="shape"/>
</filter>
</defs>
</svg>
