<svg width="279" height="184" viewBox="0 0 279 184" fill="none" xmlns="http://www.w3.org/2000/svg">
<g filter="url(#filter0_d)">
<rect x="27" y="23" width="225" height="130" rx="8" fill="white"/>
<path d="M62.1562 60V48.625H66.0547C67.3411 48.625 68.3203 48.8828 68.9922 49.3984C69.6641 49.9141 70 50.6823 70 51.7031C70 52.224 69.8594 52.6927 69.5781 53.1094C69.2969 53.526 68.8854 53.849 68.3438 54.0781C68.9583 54.2448 69.4323 54.5599 69.7656 55.0234C70.1042 55.4818 70.2734 56.0339 70.2734 56.6797C70.2734 57.7474 69.9297 58.5677 69.2422 59.1406C68.5599 59.7135 67.5807 60 66.3047 60H62.1562ZM64.1328 54.8672V58.4219H66.3281C66.9479 58.4219 67.4323 58.2682 67.7812 57.9609C68.1302 57.6536 68.3047 57.2266 68.3047 56.6797C68.3047 55.4974 67.7005 54.8932 66.4922 54.8672H64.1328ZM64.1328 53.4141H66.0703C66.6849 53.4141 67.1641 53.276 67.5078 53C67.8568 52.7188 68.0312 52.3229 68.0312 51.8125C68.0312 51.25 67.8698 50.8438 67.5469 50.5938C67.2292 50.3438 66.7318 50.2188 66.0547 50.2188H64.1328V53.4141ZM71.7109 55.6953C71.7109 54.8672 71.875 54.1224 72.2031 53.4609C72.5312 52.7943 72.9922 52.2839 73.5859 51.9297C74.1797 51.5703 74.862 51.3906 75.6328 51.3906C76.7734 51.3906 77.6979 51.7578 78.4062 52.4922C79.1198 53.2266 79.5052 54.2005 79.5625 55.4141L79.5703 55.8594C79.5703 56.6927 79.4089 57.4375 79.0859 58.0938C78.7682 58.75 78.3099 59.2578 77.7109 59.6172C77.1172 59.9766 76.4297 60.1562 75.6484 60.1562C74.4557 60.1562 73.5 59.7604 72.7812 58.9688C72.0677 58.1719 71.7109 57.112 71.7109 55.7891V55.6953ZM73.6094 55.8594C73.6094 56.7292 73.7891 57.4115 74.1484 57.9062C74.5078 58.3958 75.0078 58.6406 75.6484 58.6406C76.2891 58.6406 76.7865 58.3906 77.1406 57.8906C77.5 57.3906 77.6797 56.6589 77.6797 55.6953C77.6797 54.8411 77.4948 54.1641 77.125 53.6641C76.7604 53.1641 76.263 52.9141 75.6328 52.9141C75.013 52.9141 74.5208 53.1615 74.1562 53.6562C73.7917 54.1458 73.6094 54.8802 73.6094 55.8594ZM88.5938 55.8594C88.5938 57.1719 88.2995 58.2161 87.7109 58.9922C87.1276 59.7682 86.3229 60.1562 85.2969 60.1562C84.3073 60.1562 83.5365 59.7995 82.9844 59.0859L82.8906 60H81.1719V48H83.0703V52.3594C83.6172 51.7135 84.3542 51.3906 85.2812 51.3906C86.3125 51.3906 87.1224 51.7734 87.7109 52.5391C88.2995 53.3047 88.5938 54.375 88.5938 55.75V55.8594ZM86.6953 55.6953C86.6953 54.7786 86.5339 54.0911 86.2109 53.6328C85.888 53.1745 85.4193 52.9453 84.8047 52.9453C83.9818 52.9453 83.4036 53.3047 83.0703 54.0234V57.5078C83.4089 58.2422 83.9922 58.6094 84.8203 58.6094C85.4141 58.6094 85.8724 58.388 86.1953 57.9453C86.5182 57.5026 86.6849 56.8333 86.6953 55.9375V55.6953ZM98.5391 55.6172H96.3359V60H94.3594V48.625H98.3594C99.6719 48.625 100.685 48.9193 101.398 49.5078C102.112 50.0964 102.469 50.9479 102.469 52.0625C102.469 52.8229 102.284 53.4609 101.914 53.9766C101.549 54.487 101.039 54.8802 100.383 55.1562L102.938 59.8984V60H100.82L98.5391 55.6172ZM96.3359 54.0312H98.3672C99.0339 54.0312 99.5547 53.8646 99.9297 53.5312C100.305 53.1927 100.492 52.7318 100.492 52.1484C100.492 51.5391 100.318 51.0677 99.9688 50.7344C99.625 50.401 99.1094 50.2292 98.4219 50.2188H96.3359V54.0312ZM103.805 55.6953C103.805 54.8672 103.969 54.1224 104.297 53.4609C104.625 52.7943 105.086 52.2839 105.68 51.9297C106.273 51.5703 106.956 51.3906 107.727 51.3906C108.867 51.3906 109.792 51.7578 110.5 52.4922C111.214 53.2266 111.599 54.2005 111.656 55.4141L111.664 55.8594C111.664 56.6927 111.503 57.4375 111.18 58.0938C110.862 58.75 110.404 59.2578 109.805 59.6172C109.211 59.9766 108.523 60.1562 107.742 60.1562C106.549 60.1562 105.594 59.7604 104.875 58.9688C104.161 58.1719 103.805 57.112 103.805 55.7891V55.6953ZM105.703 55.8594C105.703 56.7292 105.883 57.4115 106.242 57.9062C106.602 58.3958 107.102 58.6406 107.742 58.6406C108.383 58.6406 108.88 58.3906 109.234 57.8906C109.594 57.3906 109.773 56.6589 109.773 55.6953C109.773 54.8411 109.589 54.1641 109.219 53.6641C108.854 53.1641 108.357 52.9141 107.727 52.9141C107.107 52.9141 106.615 53.1615 106.25 53.6562C105.885 54.1458 105.703 54.8802 105.703 55.8594ZM118.008 57.7031C118.008 57.3646 117.867 57.1068 117.586 56.9297C117.31 56.7526 116.849 56.5964 116.203 56.4609C115.557 56.3255 115.018 56.1536 114.586 55.9453C113.638 55.487 113.164 54.8229 113.164 53.9531C113.164 53.224 113.471 52.6146 114.086 52.125C114.701 51.6354 115.482 51.3906 116.43 51.3906C117.44 51.3906 118.255 51.6406 118.875 52.1406C119.5 52.6406 119.812 53.2891 119.812 54.0859H117.914C117.914 53.7214 117.779 53.4193 117.508 53.1797C117.237 52.9349 116.878 52.8125 116.43 52.8125C116.013 52.8125 115.672 52.9089 115.406 53.1016C115.146 53.2943 115.016 53.5521 115.016 53.875C115.016 54.1667 115.138 54.3932 115.383 54.5547C115.628 54.7161 116.122 54.8802 116.867 55.0469C117.612 55.2083 118.195 55.4036 118.617 55.6328C119.044 55.8568 119.359 56.1276 119.562 56.4453C119.771 56.763 119.875 57.1484 119.875 57.6016C119.875 58.362 119.56 58.9792 118.93 59.4531C118.299 59.9219 117.474 60.1562 116.453 60.1562C115.76 60.1562 115.143 60.0312 114.602 59.7812C114.06 59.5312 113.638 59.1875 113.336 58.75C113.034 58.3125 112.883 57.8411 112.883 57.3359H114.727C114.753 57.7839 114.922 58.1302 115.234 58.375C115.547 58.6146 115.961 58.7344 116.477 58.7344C116.977 58.7344 117.357 58.6406 117.617 58.4531C117.878 58.2604 118.008 58.0104 118.008 57.7031ZM126.273 57.7031C126.273 57.3646 126.133 57.1068 125.852 56.9297C125.576 56.7526 125.115 56.5964 124.469 56.4609C123.823 56.3255 123.284 56.1536 122.852 55.9453C121.904 55.487 121.43 54.8229 121.43 53.9531C121.43 53.224 121.737 52.6146 122.352 52.125C122.966 51.6354 123.747 51.3906 124.695 51.3906C125.706 51.3906 126.521 51.6406 127.141 52.1406C127.766 52.6406 128.078 53.2891 128.078 54.0859H126.18C126.18 53.7214 126.044 53.4193 125.773 53.1797C125.503 52.9349 125.143 52.8125 124.695 52.8125C124.279 52.8125 123.938 52.9089 123.672 53.1016C123.411 53.2943 123.281 53.5521 123.281 53.875C123.281 54.1667 123.404 54.3932 123.648 54.5547C123.893 54.7161 124.388 54.8802 125.133 55.0469C125.878 55.2083 126.461 55.4036 126.883 55.6328C127.31 55.8568 127.625 56.1276 127.828 56.4453C128.036 56.763 128.141 57.1484 128.141 57.6016C128.141 58.362 127.826 58.9792 127.195 59.4531C126.565 59.9219 125.74 60.1562 124.719 60.1562C124.026 60.1562 123.409 60.0312 122.867 59.7812C122.326 59.5312 121.904 59.1875 121.602 58.75C121.299 58.3125 121.148 57.8411 121.148 57.3359H122.992C123.018 57.7839 123.188 58.1302 123.5 58.375C123.812 58.6146 124.227 58.7344 124.742 58.7344C125.242 58.7344 125.622 58.6406 125.883 58.4531C126.143 58.2604 126.273 58.0104 126.273 57.7031Z" fill="#5F5F5F"/>
<rect x="60.5973" y="71.8793" width="105.882" height="27.1552" rx="13.5776" fill="#30BB3E"/>
<path d="M78.1719 88.0771C77.9147 88.4124 77.5583 88.6663 77.1025 88.8389C76.6468 89.0114 76.1292 89.0977 75.5498 89.0977C74.9541 89.0977 74.4268 88.9626 73.9678 88.6924C73.5088 88.4222 73.154 88.0365 72.9033 87.5352C72.6559 87.0306 72.5273 86.443 72.5176 85.7725V85.2158C72.5176 84.1416 72.7747 83.3034 73.2891 82.7012C73.8034 82.0957 74.5212 81.793 75.4424 81.793C76.2334 81.793 76.8617 81.9883 77.3271 82.3789C77.7926 82.7695 78.0726 83.3327 78.167 84.0684H76.9561C76.8193 83.2122 76.3229 82.7842 75.4668 82.7842C74.9134 82.7842 74.4919 82.9844 74.2021 83.3848C73.9157 83.7819 73.7676 84.3662 73.7578 85.1377V85.6846C73.7578 86.4528 73.9189 87.0501 74.2412 87.4766C74.5667 87.8997 75.0176 88.1113 75.5938 88.1113C76.2253 88.1113 76.6745 87.9681 76.9414 87.6816V86.29H75.4766V85.3525H78.1719V88.0771ZM82.1807 84.8008C82.0244 84.7747 81.8633 84.7617 81.6973 84.7617C81.1536 84.7617 80.7874 84.9701 80.5986 85.3867V89H79.4121V83.7168H80.5449L80.5742 84.3076C80.8607 83.8486 81.2578 83.6191 81.7656 83.6191C81.9349 83.6191 82.0749 83.6419 82.1855 83.6875L82.1807 84.8008ZM85.9404 89C85.8883 88.8991 85.8428 88.7347 85.8037 88.5068C85.4261 88.9007 84.9639 89.0977 84.417 89.0977C83.8864 89.0977 83.4535 88.9463 83.1182 88.6436C82.7829 88.3408 82.6152 87.9665 82.6152 87.5205C82.6152 86.9574 82.8236 86.526 83.2402 86.2266C83.6602 85.9238 84.2591 85.7725 85.0371 85.7725H85.7646V85.4258C85.7646 85.1523 85.6882 84.9342 85.5352 84.7715C85.3822 84.6055 85.1494 84.5225 84.8369 84.5225C84.5667 84.5225 84.3454 84.5908 84.1729 84.7275C84.0003 84.861 83.9141 85.0319 83.9141 85.2402H82.7275C82.7275 84.9505 82.8236 84.6803 83.0156 84.4297C83.2077 84.1758 83.4681 83.9772 83.7969 83.834C84.1289 83.6908 84.4984 83.6191 84.9053 83.6191C85.5238 83.6191 86.0169 83.7754 86.3848 84.0879C86.7526 84.3971 86.9414 84.8333 86.9512 85.3965V87.7793C86.9512 88.2546 87.0179 88.6338 87.1514 88.917V89H85.9404ZM84.6367 88.1455C84.8711 88.1455 85.0908 88.0885 85.2959 87.9746C85.5042 87.8607 85.6605 87.7077 85.7646 87.5156V86.5195H85.125C84.6855 86.5195 84.3551 86.596 84.1338 86.749C83.9124 86.902 83.8018 87.1185 83.8018 87.3984C83.8018 87.6263 83.8766 87.8086 84.0264 87.9453C84.1794 88.0788 84.3828 88.1455 84.6367 88.1455ZM92.8203 86.4121C92.8203 87.2292 92.6348 87.8818 92.2637 88.3701C91.8926 88.8551 91.3945 89.0977 90.7695 89.0977C90.1901 89.0977 89.7262 88.9072 89.3779 88.5264V91.0312H88.1914V83.7168H89.2852L89.334 84.2539C89.6823 83.8307 90.1559 83.6191 90.7549 83.6191C91.3994 83.6191 91.904 83.86 92.2686 84.3418C92.6364 84.8203 92.8203 85.486 92.8203 86.3389V86.4121ZM91.6387 86.3096C91.6387 85.7822 91.5329 85.3639 91.3213 85.0547C91.113 84.7454 90.8135 84.5908 90.4229 84.5908C89.9378 84.5908 89.5895 84.791 89.3779 85.1914V87.5352C89.5928 87.9453 89.9443 88.1504 90.4326 88.1504C90.8102 88.1504 91.1048 87.999 91.3164 87.6963C91.5312 87.3903 91.6387 86.9281 91.6387 86.3096ZM94.998 84.293C95.3854 83.8438 95.8753 83.6191 96.4678 83.6191C97.5941 83.6191 98.1654 84.262 98.1816 85.5479V89H96.9951V85.5918C96.9951 85.2272 96.9154 84.9701 96.7559 84.8203C96.5996 84.6673 96.3685 84.5908 96.0625 84.5908C95.5872 84.5908 95.2324 84.8024 94.998 85.2256V89H93.8115V81.5H94.998V84.293ZM100.647 89H99.4609V83.7168H100.647V89ZM99.3877 82.3447C99.3877 82.1624 99.4447 82.0111 99.5586 81.8906C99.6758 81.7702 99.8418 81.71 100.057 81.71C100.271 81.71 100.438 81.7702 100.555 81.8906C100.672 82.0111 100.73 82.1624 100.73 82.3447C100.73 82.5238 100.672 82.6735 100.555 82.7939C100.438 82.9111 100.271 82.9697 100.057 82.9697C99.8418 82.9697 99.6758 82.9111 99.5586 82.7939C99.4447 82.6735 99.3877 82.5238 99.3877 82.3447ZM104.114 88.1504C104.41 88.1504 104.656 88.0641 104.852 87.8916C105.047 87.7191 105.151 87.5059 105.164 87.252H106.282C106.269 87.5807 106.167 87.8883 105.975 88.1748C105.783 88.458 105.522 88.6826 105.193 88.8486C104.865 89.0146 104.51 89.0977 104.129 89.0977C103.39 89.0977 102.804 88.8584 102.371 88.3799C101.938 87.9014 101.722 87.2406 101.722 86.3975V86.2754C101.722 85.4714 101.937 84.8285 102.366 84.3467C102.796 83.8617 103.382 83.6191 104.124 83.6191C104.752 83.6191 105.263 83.8031 105.657 84.1709C106.054 84.5355 106.263 85.0156 106.282 85.6113H105.164C105.151 85.3086 105.047 85.0596 104.852 84.8643C104.66 84.6689 104.414 84.5713 104.114 84.5713C103.73 84.5713 103.434 84.7113 103.226 84.9912C103.017 85.2679 102.911 85.6895 102.908 86.2559V86.4463C102.908 87.0192 103.011 87.4473 103.216 87.7305C103.424 88.0104 103.724 88.1504 104.114 88.1504ZM109.783 89V81.8906H111.883C112.511 81.8906 113.068 82.0306 113.553 82.3105C114.041 82.5905 114.419 82.9876 114.686 83.502C114.952 84.0163 115.086 84.6055 115.086 85.2695V85.626C115.086 86.2998 114.951 86.8923 114.681 87.4033C114.414 87.9144 114.031 88.3083 113.533 88.585C113.038 88.8617 112.47 89 111.829 89H109.783ZM111.019 82.8867V88.0137H111.824C112.472 88.0137 112.968 87.8118 113.313 87.4082C113.662 87.0013 113.839 86.4186 113.846 85.6602V85.2646C113.846 84.4932 113.678 83.904 113.343 83.4971C113.007 83.0902 112.521 82.8867 111.883 82.8867H111.019ZM118.528 89.0977C117.776 89.0977 117.166 88.8617 116.697 88.3896C116.232 87.9144 115.999 87.2829 115.999 86.4951V86.3486C115.999 85.8213 116.1 85.3509 116.302 84.9375C116.507 84.5208 116.793 84.1969 117.161 83.9658C117.529 83.7347 117.939 83.6191 118.392 83.6191C119.111 83.6191 119.666 83.8486 120.057 84.3076C120.451 84.7666 120.647 85.416 120.647 86.2559V86.7344H117.195C117.231 87.1706 117.376 87.5156 117.63 87.7695C117.887 88.0234 118.209 88.1504 118.597 88.1504C119.14 88.1504 119.583 87.9307 119.925 87.4912L120.564 88.1016C120.353 88.4173 120.07 88.6631 119.715 88.8389C119.363 89.0114 118.968 89.0977 118.528 89.0977ZM118.387 84.5713C118.061 84.5713 117.798 84.6852 117.596 84.9131C117.397 85.141 117.27 85.4583 117.215 85.8652H119.476V85.7773C119.45 85.3802 119.344 85.0807 119.158 84.8789C118.973 84.6738 118.715 84.5713 118.387 84.5713ZM124.534 87.5645C124.534 87.3529 124.446 87.1917 124.271 87.0811C124.098 86.9704 123.81 86.8727 123.406 86.7881C123.003 86.7035 122.666 86.596 122.396 86.4658C121.803 86.1794 121.507 85.7643 121.507 85.2207C121.507 84.765 121.699 84.3841 122.083 84.0781C122.467 83.7721 122.955 83.6191 123.548 83.6191C124.179 83.6191 124.689 83.7754 125.076 84.0879C125.467 84.4004 125.662 84.8057 125.662 85.3037H124.476C124.476 85.0758 124.391 84.887 124.222 84.7373C124.052 84.5843 123.828 84.5078 123.548 84.5078C123.287 84.5078 123.074 84.568 122.908 84.6885C122.745 84.8089 122.664 84.9701 122.664 85.1719C122.664 85.3542 122.741 85.4958 122.894 85.5967C123.047 85.6976 123.356 85.8001 123.821 85.9043C124.287 86.0052 124.651 86.1273 124.915 86.2705C125.182 86.4105 125.379 86.5798 125.506 86.7783C125.636 86.9769 125.701 87.2178 125.701 87.501C125.701 87.9762 125.504 88.362 125.11 88.6582C124.716 88.9512 124.201 89.0977 123.562 89.0977C123.13 89.0977 122.744 89.0195 122.405 88.8633C122.067 88.707 121.803 88.4922 121.614 88.2188C121.425 87.9453 121.331 87.6507 121.331 87.335H122.483C122.5 87.6149 122.605 87.8314 122.801 87.9844C122.996 88.1341 123.255 88.209 123.577 88.209C123.89 88.209 124.127 88.1504 124.29 88.0332C124.453 87.9128 124.534 87.7565 124.534 87.5645ZM128.001 89H126.814V83.7168H128.001V89ZM126.741 82.3447C126.741 82.1624 126.798 82.0111 126.912 81.8906C127.029 81.7702 127.195 81.71 127.41 81.71C127.625 81.71 127.791 81.7702 127.908 81.8906C128.025 82.0111 128.084 82.1624 128.084 82.3447C128.084 82.5238 128.025 82.6735 127.908 82.7939C127.791 82.9111 127.625 82.9697 127.41 82.9697C127.195 82.9697 127.029 82.9111 126.912 82.7939C126.798 82.6735 126.741 82.5238 126.741 82.3447ZM129.09 86.3193C129.09 85.499 129.282 84.8447 129.666 84.3564C130.053 83.8649 130.566 83.6191 131.204 83.6191C131.806 83.6191 132.28 83.8291 132.625 84.249L132.679 83.7168H133.748V88.8389C133.748 89.5322 133.532 90.0791 133.099 90.4795C132.669 90.8799 132.088 91.0801 131.355 91.0801C130.968 91.0801 130.589 90.9987 130.218 90.8359C129.85 90.6764 129.57 90.4665 129.378 90.2061L129.939 89.4932C130.304 89.9261 130.753 90.1426 131.287 90.1426C131.681 90.1426 131.992 90.0352 132.22 89.8203C132.448 89.6087 132.562 89.2962 132.562 88.8828V88.5264C132.22 88.9072 131.764 89.0977 131.194 89.0977C130.576 89.0977 130.07 88.8519 129.676 88.3604C129.285 87.8688 129.09 87.1885 129.09 86.3193ZM130.271 86.4219C130.271 86.9525 130.379 87.3708 130.594 87.6768C130.812 87.9795 131.113 88.1309 131.497 88.1309C131.976 88.1309 132.33 87.9258 132.562 87.5156V85.1914C132.337 84.791 131.985 84.5908 131.507 84.5908C131.116 84.5908 130.812 84.7454 130.594 85.0547C130.379 85.3639 130.271 85.8197 130.271 86.4219ZM136.072 83.7168L136.106 84.3271C136.497 83.8551 137.01 83.6191 137.645 83.6191C138.745 83.6191 139.305 84.249 139.324 85.5088V89H138.138V85.5771C138.138 85.2419 138.064 84.9945 137.918 84.835C137.775 84.6722 137.539 84.5908 137.21 84.5908C136.731 84.5908 136.375 84.8073 136.141 85.2402V89H134.954V83.7168H136.072ZM142.864 89.0977C142.112 89.0977 141.502 88.8617 141.033 88.3896C140.568 87.9144 140.335 87.2829 140.335 86.4951V86.3486C140.335 85.8213 140.436 85.3509 140.638 84.9375C140.843 84.5208 141.129 84.1969 141.497 83.9658C141.865 83.7347 142.275 83.6191 142.728 83.6191C143.447 83.6191 144.002 83.8486 144.393 84.3076C144.786 84.7666 144.983 85.416 144.983 86.2559V86.7344H141.531C141.567 87.1706 141.712 87.5156 141.966 87.7695C142.223 88.0234 142.545 88.1504 142.933 88.1504C143.476 88.1504 143.919 87.9307 144.261 87.4912L144.9 88.1016C144.689 88.4173 144.406 88.6631 144.051 88.8389C143.699 89.0114 143.304 89.0977 142.864 89.0977ZM142.723 84.5713C142.397 84.5713 142.133 84.6852 141.932 84.9131C141.733 85.141 141.606 85.4583 141.551 85.8652H143.812V85.7773C143.785 85.3802 143.68 85.0807 143.494 84.8789C143.309 84.6738 143.051 84.5713 142.723 84.5713ZM148.675 84.8008C148.519 84.7747 148.357 84.7617 148.191 84.7617C147.648 84.7617 147.282 84.9701 147.093 85.3867V89H145.906V83.7168H147.039L147.068 84.3076C147.355 83.8486 147.752 83.6191 148.26 83.6191C148.429 83.6191 148.569 83.6419 148.68 83.6875L148.675 84.8008Z" fill="white"/>
<path d="M83.3125 132H78.5322V131.185L80.9004 128.602C81.2422 128.221 81.4847 127.903 81.6279 127.649C81.7744 127.392 81.8477 127.135 81.8477 126.878C81.8477 126.539 81.7516 126.266 81.5596 126.058C81.3708 125.849 81.1152 125.745 80.793 125.745C80.4089 125.745 80.111 125.862 79.8994 126.097C79.6878 126.331 79.582 126.652 79.582 127.059H78.3955C78.3955 126.626 78.4932 126.237 78.6885 125.892C78.887 125.543 79.1686 125.273 79.5332 125.081C79.901 124.889 80.3242 124.793 80.8027 124.793C81.4928 124.793 82.0365 124.967 82.4336 125.315C82.834 125.66 83.0342 126.139 83.0342 126.751C83.0342 127.106 82.9333 127.479 82.7314 127.869C82.5329 128.257 82.2057 128.698 81.75 129.192L80.0117 131.053H83.3125V132ZM85.5879 127.903H86.3105C86.6751 127.9 86.9632 127.806 87.1748 127.62C87.3896 127.435 87.4971 127.166 87.4971 126.814C87.4971 126.476 87.4076 126.214 87.2285 126.028C87.0527 125.84 86.7826 125.745 86.418 125.745C86.099 125.745 85.8369 125.838 85.6318 126.023C85.4268 126.206 85.3242 126.445 85.3242 126.741H84.1377C84.1377 126.377 84.2337 126.045 84.4258 125.745C84.6211 125.446 84.8913 125.213 85.2363 125.047C85.5846 124.878 85.9736 124.793 86.4033 124.793C87.113 124.793 87.6696 124.972 88.0732 125.33C88.4801 125.685 88.6836 126.18 88.6836 126.814C88.6836 127.133 88.5811 127.435 88.376 127.718C88.1742 127.998 87.9121 128.209 87.5898 128.353C87.9805 128.486 88.2767 128.696 88.4785 128.982C88.6836 129.269 88.7861 129.611 88.7861 130.008C88.7861 130.646 88.5664 131.154 88.127 131.531C87.6908 131.909 87.1162 132.098 86.4033 132.098C85.7197 132.098 85.1598 131.915 84.7236 131.551C84.2874 131.186 84.0693 130.701 84.0693 130.096H85.2559C85.2559 130.408 85.36 130.662 85.5684 130.857C85.7799 131.053 86.0632 131.15 86.418 131.15C86.7858 131.15 87.0755 131.053 87.2871 130.857C87.4987 130.662 87.6045 130.379 87.6045 130.008C87.6045 129.633 87.4938 129.345 87.2725 129.144C87.0511 128.942 86.7223 128.841 86.2861 128.841H85.5879V127.903ZM95.4902 124.891H96.7207V129.876C96.7207 130.556 96.5075 131.097 96.0811 131.497C95.6579 131.897 95.098 132.098 94.4014 132.098C93.6592 132.098 93.0863 131.91 92.6826 131.536C92.279 131.162 92.0771 130.641 92.0771 129.974H93.3076C93.3076 130.351 93.4004 130.636 93.5859 130.828C93.7747 131.017 94.0465 131.111 94.4014 131.111C94.7334 131.111 94.9971 131.002 95.1924 130.784C95.391 130.563 95.4902 130.258 95.4902 129.871V124.891ZM101.223 131.482C100.874 131.893 100.38 132.098 99.7383 132.098C99.1654 132.098 98.7308 131.93 98.4346 131.595C98.1416 131.259 97.9951 130.774 97.9951 130.14V126.717H99.1816V130.125C99.1816 130.796 99.46 131.131 100.017 131.131C100.593 131.131 100.982 130.924 101.184 130.511V126.717H102.37V132H101.252L101.223 131.482ZM104.841 132H103.654V124.5H104.841V132ZM107.985 130.301L109.06 126.717H110.324L108.225 132.801C107.902 133.689 107.355 134.134 106.584 134.134C106.411 134.134 106.221 134.104 106.013 134.046V133.128L106.237 133.143C106.537 133.143 106.761 133.087 106.911 132.977C107.064 132.869 107.185 132.687 107.272 132.43L107.443 131.976L105.588 126.717H106.867L107.985 130.301ZM118.205 132H113.425V131.185L115.793 128.602C116.135 128.221 116.377 127.903 116.521 127.649C116.667 127.392 116.74 127.135 116.74 126.878C116.74 126.539 116.644 126.266 116.452 126.058C116.263 125.849 116.008 125.745 115.686 125.745C115.301 125.745 115.004 125.862 114.792 126.097C114.58 126.331 114.475 126.652 114.475 127.059H113.288C113.288 126.626 113.386 126.237 113.581 125.892C113.78 125.543 114.061 125.273 114.426 125.081C114.794 124.889 115.217 124.793 115.695 124.793C116.385 124.793 116.929 124.967 117.326 125.315C117.727 125.66 117.927 126.139 117.927 126.751C117.927 127.106 117.826 127.479 117.624 127.869C117.425 128.257 117.098 128.698 116.643 129.192L114.904 131.053H118.205V132ZM123.742 129.007C123.742 130.029 123.55 130.8 123.166 131.321C122.785 131.839 122.204 132.098 121.423 132.098C120.655 132.098 120.075 131.845 119.685 131.341C119.297 130.833 119.099 130.083 119.089 129.09V127.859C119.089 126.837 119.279 126.071 119.66 125.56C120.044 125.049 120.629 124.793 121.413 124.793C122.191 124.793 122.771 125.042 123.151 125.54C123.535 126.038 123.732 126.784 123.742 127.776V129.007ZM122.556 127.679C122.556 127.011 122.465 126.523 122.282 126.214C122.1 125.901 121.81 125.745 121.413 125.745C121.026 125.745 120.741 125.893 120.559 126.189C120.376 126.482 120.28 126.941 120.271 127.566V129.178C120.271 129.842 120.363 130.337 120.549 130.662C120.734 130.988 121.026 131.15 121.423 131.15C121.804 131.15 122.085 131.001 122.268 130.701C122.45 130.398 122.546 129.926 122.556 129.285V127.679ZM129.572 132H124.792V131.185L127.16 128.602C127.502 128.221 127.744 127.903 127.888 127.649C128.034 127.392 128.107 127.135 128.107 126.878C128.107 126.539 128.011 126.266 127.819 126.058C127.631 125.849 127.375 125.745 127.053 125.745C126.669 125.745 126.371 125.862 126.159 126.097C125.948 126.331 125.842 126.652 125.842 127.059H124.655C124.655 126.626 124.753 126.237 124.948 125.892C125.147 125.543 125.428 125.273 125.793 125.081C126.161 124.889 126.584 124.793 127.062 124.793C127.753 124.793 128.296 124.967 128.693 125.315C129.094 125.66 129.294 126.139 129.294 126.751C129.294 127.106 129.193 127.479 128.991 127.869C128.793 128.257 128.465 128.698 128.01 129.192L126.271 131.053H129.572V132ZM133.688 132H132.507V126.292L130.764 126.888V125.887L133.537 124.866H133.688V132ZM136.403 133.602L135.764 133.221C135.952 132.924 136.081 132.666 136.149 132.444C136.221 132.226 136.258 132.003 136.262 131.775V130.853H137.331L137.326 131.707C137.323 132.052 137.235 132.397 137.062 132.742C136.893 133.09 136.674 133.377 136.403 133.602ZM144.06 132H142.878V126.292L141.135 126.888V125.887L143.908 124.866H144.06V132ZM151.164 129.007C151.164 130.029 150.972 130.8 150.588 131.321C150.207 131.839 149.626 132.098 148.845 132.098C148.076 132.098 147.497 131.845 147.106 131.341C146.719 130.833 146.521 130.083 146.511 129.09V127.859C146.511 126.837 146.701 126.071 147.082 125.56C147.466 125.049 148.05 124.793 148.835 124.793C149.613 124.793 150.192 125.042 150.573 125.54C150.957 126.038 151.154 126.784 151.164 127.776V129.007ZM149.978 127.679C149.978 127.011 149.886 126.523 149.704 126.214C149.522 125.901 149.232 125.745 148.835 125.745C148.448 125.745 148.163 125.893 147.98 126.189C147.798 126.482 147.702 126.941 147.692 127.566V129.178C147.692 129.842 147.785 130.337 147.971 130.662C148.156 130.988 148.448 131.15 148.845 131.15C149.226 131.15 149.507 131.001 149.689 130.701C149.872 130.398 149.968 129.926 149.978 129.285V127.679ZM153.005 130.75C153.226 130.75 153.397 130.813 153.518 130.94C153.638 131.064 153.698 131.22 153.698 131.409C153.698 131.595 153.638 131.749 153.518 131.873C153.397 131.993 153.226 132.054 153.005 132.054C152.793 132.054 152.626 131.993 152.502 131.873C152.378 131.753 152.316 131.598 152.316 131.409C152.316 131.22 152.377 131.064 152.497 130.94C152.618 130.813 152.787 130.75 153.005 130.75ZM153.005 126.604C153.226 126.604 153.397 126.668 153.518 126.795C153.638 126.919 153.698 127.075 153.698 127.264C153.698 127.449 153.638 127.604 153.518 127.728C153.397 127.848 153.226 127.908 153.005 127.908C152.793 127.908 152.626 127.848 152.502 127.728C152.378 127.607 152.316 127.452 152.316 127.264C152.316 127.075 152.377 126.919 152.497 126.795C152.618 126.668 152.787 126.604 153.005 126.604ZM156.242 127.903H156.965C157.329 127.9 157.618 127.806 157.829 127.62C158.044 127.435 158.151 127.166 158.151 126.814C158.151 126.476 158.062 126.214 157.883 126.028C157.707 125.84 157.437 125.745 157.072 125.745C156.753 125.745 156.491 125.838 156.286 126.023C156.081 126.206 155.979 126.445 155.979 126.741H154.792C154.792 126.377 154.888 126.045 155.08 125.745C155.275 125.446 155.546 125.213 155.891 125.047C156.239 124.878 156.628 124.793 157.058 124.793C157.767 124.793 158.324 124.972 158.728 125.33C159.134 125.685 159.338 126.18 159.338 126.814C159.338 127.133 159.235 127.435 159.03 127.718C158.828 127.998 158.566 128.209 158.244 128.353C158.635 128.486 158.931 128.696 159.133 128.982C159.338 129.269 159.44 129.611 159.44 130.008C159.44 130.646 159.221 131.154 158.781 131.531C158.345 131.909 157.771 132.098 157.058 132.098C156.374 132.098 155.814 131.915 155.378 131.551C154.942 131.186 154.724 130.701 154.724 130.096H155.91C155.91 130.408 156.014 130.662 156.223 130.857C156.434 131.053 156.717 131.15 157.072 131.15C157.44 131.15 157.73 131.053 157.941 130.857C158.153 130.662 158.259 130.379 158.259 130.008C158.259 129.633 158.148 129.345 157.927 129.144C157.705 128.942 157.377 128.841 156.94 128.841H156.242V127.903ZM165.188 129.007C165.188 130.029 164.995 130.8 164.611 131.321C164.23 131.839 163.649 132.098 162.868 132.098C162.1 132.098 161.521 131.845 161.13 131.341C160.743 130.833 160.544 130.083 160.534 129.09V127.859C160.534 126.837 160.725 126.071 161.105 125.56C161.49 125.049 162.074 124.793 162.858 124.793C163.636 124.793 164.216 125.042 164.597 125.54C164.981 126.038 165.178 126.784 165.188 127.776V129.007ZM164.001 127.679C164.001 127.011 163.91 126.523 163.728 126.214C163.545 125.901 163.256 125.745 162.858 125.745C162.471 125.745 162.186 125.893 162.004 126.189C161.822 126.482 161.726 126.941 161.716 127.566V129.178C161.716 129.842 161.809 130.337 161.994 130.662C162.18 130.988 162.471 131.15 162.868 131.15C163.249 131.15 163.531 131.001 163.713 130.701C163.895 130.398 163.991 129.926 164.001 129.285V127.679Z" fill="#A7A7A7"/>
<path d="M66.5 132.542C69.2845 132.542 71.5417 130.284 71.5417 127.5C71.5417 124.716 69.2845 122.458 66.5 122.458C63.7156 122.458 61.4584 124.716 61.4584 127.5C61.4584 130.284 63.7156 132.542 66.5 132.542Z" fill="#30BB3E"/>
</g>
<defs>
<filter id="filter0_d" x="0" y="0" width="279" height="184" filterUnits="userSpaceOnUse" color-interpolation-filters="sRGB">
<feFlood flood-opacity="0" result="BackgroundImageFix"/>
<feColorMatrix in="SourceAlpha" type="matrix" values="0 0 0 0 0 0 0 0 0 0 0 0 0 0 0 0 0 0 127 0"/>
<feOffset dy="4"/>
<feGaussianBlur stdDeviation="13.5"/>
<feColorMatrix type="matrix" values="0 0 0 0 0 0 0 0 0 0 0 0 0 0 0 0 0 0 0.05 0"/>
<feBlend mode="normal" in2="BackgroundImageFix" result="effect1_dropShadow"/>
<feBlend mode="normal" in="SourceGraphic" in2="effect1_dropShadow" result="shape"/>
</filter>
</defs>
</svg>
