<svg width="279" height="184" viewBox="0 0 279 184" fill="none" xmlns="http://www.w3.org/2000/svg">
<g filter="url(#filter0_d)">
<rect x="27" y="23" width="225" height="130" rx="8" fill="white"/>
<path d="M64.1328 58.4219H69.2969V60H62.1562V48.625H64.1328V58.4219ZM72.6484 60H70.75V51.5469H72.6484V60ZM70.6328 49.3516C70.6328 49.0599 70.724 48.8177 70.9062 48.625C71.0938 48.4323 71.3594 48.3359 71.7031 48.3359C72.0469 48.3359 72.3125 48.4323 72.5 48.625C72.6875 48.8177 72.7812 49.0599 72.7812 49.3516C72.7812 49.638 72.6875 49.8776 72.5 50.0703C72.3125 50.2578 72.0469 50.3516 71.7031 50.3516C71.3594 50.3516 71.0938 50.2578 70.9062 50.0703C70.724 49.8776 70.6328 49.638 70.6328 49.3516ZM76.4844 51.5469L76.5391 52.5234C77.1641 51.7682 77.9844 51.3906 79 51.3906C80.7604 51.3906 81.6562 52.3984 81.6875 54.4141V60H79.7891V54.5234C79.7891 53.987 79.6719 53.5911 79.4375 53.3359C79.2083 53.0755 78.8307 52.9453 78.3047 52.9453C77.5391 52.9453 76.9688 53.2917 76.5938 53.9844V60H74.6953V51.5469H76.4844ZM87.3125 55.9297H83.2109V54.3984H87.3125V55.9297ZM91.625 48.625L94.9062 57.3438L98.1797 48.625H100.734V60H98.7656V56.25L98.9609 51.2344L95.6016 60H94.1875L90.8359 51.2422L91.0312 56.25V60H89.0625V48.625H91.625ZM107.945 60C107.862 59.8385 107.789 59.5755 107.727 59.2109C107.122 59.8411 106.383 60.1562 105.508 60.1562C104.659 60.1562 103.966 59.9141 103.43 59.4297C102.893 58.9453 102.625 58.3464 102.625 57.6328C102.625 56.7318 102.958 56.0417 103.625 55.5625C104.297 55.0781 105.255 54.8359 106.5 54.8359H107.664V54.2812C107.664 53.8438 107.542 53.4948 107.297 53.2344C107.052 52.9688 106.68 52.8359 106.18 52.8359C105.747 52.8359 105.393 52.9453 105.117 53.1641C104.841 53.3776 104.703 53.651 104.703 53.9844H102.805C102.805 53.5208 102.958 53.0885 103.266 52.6875C103.573 52.2812 103.99 51.9635 104.516 51.7344C105.047 51.5052 105.638 51.3906 106.289 51.3906C107.279 51.3906 108.068 51.6406 108.656 52.1406C109.245 52.6354 109.547 53.3333 109.562 54.2344V58.0469C109.562 58.8073 109.669 59.4141 109.883 59.8672V60H107.945ZM105.859 58.6328C106.234 58.6328 106.586 58.5417 106.914 58.3594C107.247 58.1771 107.497 57.9323 107.664 57.625V56.0312H106.641C105.938 56.0312 105.409 56.1536 105.055 56.3984C104.701 56.6432 104.523 56.9896 104.523 57.4375C104.523 57.8021 104.643 58.0938 104.883 58.3125C105.128 58.526 105.453 58.6328 105.859 58.6328ZM113.312 51.5469L113.367 52.5234C113.992 51.7682 114.812 51.3906 115.828 51.3906C117.589 51.3906 118.484 52.3984 118.516 54.4141V60H116.617V54.5234C116.617 53.987 116.5 53.5911 116.266 53.3359C116.036 53.0755 115.659 52.9453 115.133 52.9453C114.367 52.9453 113.797 53.2917 113.422 53.9844V60H111.523V51.5469H113.312ZM125.578 59.1719C125.021 59.8281 124.229 60.1562 123.203 60.1562C122.286 60.1562 121.591 59.888 121.117 59.3516C120.648 58.8151 120.414 58.0391 120.414 57.0234V51.5469H122.312V57C122.312 58.0729 122.758 58.6094 123.648 58.6094C124.57 58.6094 125.193 58.2786 125.516 57.6172V51.5469H127.414V60H125.625L125.578 59.1719ZM133.07 60.1562C131.867 60.1562 130.891 59.7786 130.141 59.0234C129.396 58.263 129.023 57.2526 129.023 55.9922V55.7578C129.023 54.9141 129.185 54.1615 129.508 53.5C129.836 52.8333 130.294 52.3151 130.883 51.9453C131.471 51.5755 132.128 51.3906 132.852 51.3906C134.003 51.3906 134.891 51.7578 135.516 52.4922C136.146 53.2266 136.461 54.2656 136.461 55.6094V56.375H130.938C130.995 57.0729 131.227 57.625 131.633 58.0312C132.044 58.4375 132.56 58.6406 133.18 58.6406C134.049 58.6406 134.758 58.2891 135.305 57.5859L136.328 58.5625C135.99 59.0677 135.536 59.4609 134.969 59.7422C134.406 60.0182 133.773 60.1562 133.07 60.1562ZM132.844 52.9141C132.323 52.9141 131.901 53.0964 131.578 53.4609C131.26 53.8255 131.057 54.3333 130.969 54.9844H134.586V54.8438C134.544 54.2083 134.375 53.7292 134.078 53.4062C133.781 53.0781 133.37 52.9141 132.844 52.9141ZM139.961 60H138.062V48H139.961V60ZM148.766 48.625L152.047 57.3438L155.32 48.625H157.875V60H155.906V56.25L156.102 51.2344L152.742 60H151.328L147.977 51.2422L148.172 56.25V60H146.203V48.625H148.766ZM162.055 60H160.156V51.5469H162.055V60ZM160.039 49.3516C160.039 49.0599 160.13 48.8177 160.312 48.625C160.5 48.4323 160.766 48.3359 161.109 48.3359C161.453 48.3359 161.719 48.4323 161.906 48.625C162.094 48.8177 162.188 49.0599 162.188 49.3516C162.188 49.638 162.094 49.8776 161.906 50.0703C161.719 50.2578 161.453 50.3516 161.109 50.3516C160.766 50.3516 160.5 50.2578 160.312 50.0703C160.13 49.8776 160.039 49.638 160.039 49.3516ZM168.555 53.2812C168.305 53.2396 168.047 53.2188 167.781 53.2188C166.911 53.2188 166.326 53.5521 166.023 54.2188V60H164.125V51.5469H165.938L165.984 52.4922C166.443 51.7578 167.078 51.3906 167.891 51.3906C168.161 51.3906 168.385 51.4271 168.562 51.5L168.555 53.2812ZM174.57 60C174.487 59.8385 174.414 59.5755 174.352 59.2109C173.747 59.8411 173.008 60.1562 172.133 60.1562C171.284 60.1562 170.591 59.9141 170.055 59.4297C169.518 58.9453 169.25 58.3464 169.25 57.6328C169.25 56.7318 169.583 56.0417 170.25 55.5625C170.922 55.0781 171.88 54.8359 173.125 54.8359H174.289V54.2812C174.289 53.8438 174.167 53.4948 173.922 53.2344C173.677 52.9688 173.305 52.8359 172.805 52.8359C172.372 52.8359 172.018 52.9453 171.742 53.1641C171.466 53.3776 171.328 53.651 171.328 53.9844H169.43C169.43 53.5208 169.583 53.0885 169.891 52.6875C170.198 52.2812 170.615 51.9635 171.141 51.7344C171.672 51.5052 172.263 51.3906 172.914 51.3906C173.904 51.3906 174.693 51.6406 175.281 52.1406C175.87 52.6354 176.172 53.3333 176.188 54.2344V58.0469C176.188 58.8073 176.294 59.4141 176.508 59.8672V60H174.57ZM172.484 58.6328C172.859 58.6328 173.211 58.5417 173.539 58.3594C173.872 58.1771 174.122 57.9323 174.289 57.625V56.0312H173.266C172.562 56.0312 172.034 56.1536 171.68 56.3984C171.326 56.6432 171.148 56.9896 171.148 57.4375C171.148 57.8021 171.268 58.0938 171.508 58.3125C171.753 58.526 172.078 58.6328 172.484 58.6328ZM179.938 51.5469L179.992 52.5234C180.617 51.7682 181.438 51.3906 182.453 51.3906C184.214 51.3906 185.109 52.3984 185.141 54.4141V60H183.242V54.5234C183.242 53.987 183.125 53.5911 182.891 53.3359C182.661 53.0755 182.284 52.9453 181.758 52.9453C180.992 52.9453 180.422 53.2917 180.047 53.9844V60H178.148V51.5469H179.938ZM186.727 55.7109C186.727 54.4089 187.029 53.3646 187.633 52.5781C188.237 51.7865 189.047 51.3906 190.062 51.3906C190.958 51.3906 191.682 51.7031 192.234 52.3281V48H194.133V60H192.414L192.32 59.125C191.753 59.8125 190.995 60.1562 190.047 60.1562C189.057 60.1562 188.255 59.7578 187.641 58.9609C187.031 58.1641 186.727 57.0807 186.727 55.7109ZM188.625 55.875C188.625 56.7344 188.789 57.4062 189.117 57.8906C189.451 58.3698 189.922 58.6094 190.531 58.6094C191.307 58.6094 191.875 58.263 192.234 57.5703V53.9609C191.885 53.2839 191.323 52.9453 190.547 52.9453C189.932 52.9453 189.458 53.1901 189.125 53.6797C188.792 54.1641 188.625 54.8958 188.625 55.875ZM201.164 60C201.081 59.8385 201.008 59.5755 200.945 59.2109C200.341 59.8411 199.602 60.1562 198.727 60.1562C197.878 60.1562 197.185 59.9141 196.648 59.4297C196.112 58.9453 195.844 58.3464 195.844 57.6328C195.844 56.7318 196.177 56.0417 196.844 55.5625C197.516 55.0781 198.474 54.8359 199.719 54.8359H200.883V54.2812C200.883 53.8438 200.76 53.4948 200.516 53.2344C200.271 52.9688 199.898 52.8359 199.398 52.8359C198.966 52.8359 198.612 52.9453 198.336 53.1641C198.06 53.3776 197.922 53.651 197.922 53.9844H196.023C196.023 53.5208 196.177 53.0885 196.484 52.6875C196.792 52.2812 197.208 51.9635 197.734 51.7344C198.266 51.5052 198.857 51.3906 199.508 51.3906C200.497 51.3906 201.286 51.6406 201.875 52.1406C202.464 52.6354 202.766 53.3333 202.781 54.2344V58.0469C202.781 58.8073 202.888 59.4141 203.102 59.8672V60H201.164ZM199.078 58.6328C199.453 58.6328 199.805 58.5417 200.133 58.3594C200.466 58.1771 200.716 57.9323 200.883 57.625V56.0312H199.859C199.156 56.0312 198.628 56.1536 198.273 56.3984C197.919 56.6432 197.742 56.9896 197.742 57.4375C197.742 57.8021 197.862 58.0938 198.102 58.3125C198.346 58.526 198.672 58.6328 199.078 58.6328Z" fill="#5F5F5F"/>
<rect x="60.5973" y="71.8793" width="105.882" height="27.1552" rx="13.5776" fill="#9B36FF"/>
<path d="M74.0264 89H72.7959V81.8906H74.0264V89ZM75.5449 89V81.8906H77.9814C78.7855 81.8906 79.3975 82.0518 79.8174 82.374C80.2373 82.6963 80.4473 83.1764 80.4473 83.8145C80.4473 84.14 80.3594 84.4329 80.1836 84.6934C80.0078 84.9538 79.7507 85.1556 79.4121 85.2988C79.7962 85.403 80.0924 85.5999 80.3008 85.8896C80.5124 86.1761 80.6182 86.5212 80.6182 86.9248C80.6182 87.5921 80.4033 88.1048 79.9736 88.4629C79.5472 88.821 78.9352 89 78.1377 89H75.5449ZM76.7803 85.792V88.0137H78.1523C78.5397 88.0137 78.8424 87.9176 79.0605 87.7256C79.2786 87.5335 79.3877 87.2666 79.3877 86.9248C79.3877 86.1859 79.0101 85.8083 78.2549 85.792H76.7803ZM76.7803 84.8838H77.9912C78.3753 84.8838 78.6748 84.7975 78.8896 84.625C79.1077 84.4492 79.2168 84.2018 79.2168 83.8828C79.2168 83.5312 79.1159 83.2773 78.9141 83.1211C78.7155 82.9648 78.4046 82.8867 77.9814 82.8867H76.7803V84.8838ZM89.7686 86.6855C89.6969 87.444 89.417 88.0365 88.9287 88.4629C88.4404 88.8861 87.791 89.0977 86.9805 89.0977C86.4141 89.0977 85.9144 88.9642 85.4814 88.6973C85.0518 88.4271 84.7197 88.0446 84.4854 87.5498C84.251 87.055 84.1289 86.4805 84.1191 85.8262V85.1621C84.1191 84.4915 84.238 83.9007 84.4756 83.3896C84.7132 82.8786 85.0534 82.4847 85.4961 82.208C85.9421 81.9313 86.4564 81.793 87.0391 81.793C87.8236 81.793 88.4551 82.0062 88.9336 82.4326C89.4121 82.859 89.6904 83.4613 89.7686 84.2393H88.5381C88.4795 83.7282 88.3298 83.3604 88.0889 83.1357C87.8512 82.9079 87.5013 82.7939 87.0391 82.7939C86.502 82.7939 86.0885 82.9909 85.7988 83.3848C85.5124 83.7754 85.3659 84.3499 85.3594 85.1084V85.7383C85.3594 86.5065 85.4961 87.0924 85.7695 87.4961C86.0462 87.8997 86.4499 88.1016 86.9805 88.1016C87.4655 88.1016 87.8301 87.9925 88.0742 87.7744C88.3184 87.5563 88.473 87.1934 88.5381 86.6855H89.7686ZM90.54 86.3096C90.54 85.792 90.6426 85.3265 90.8477 84.9131C91.0527 84.4964 91.3408 84.1774 91.7119 83.9561C92.083 83.7314 92.5094 83.6191 92.9912 83.6191C93.7041 83.6191 94.2819 83.8486 94.7246 84.3076C95.1706 84.7666 95.4115 85.3753 95.4473 86.1338L95.4521 86.4121C95.4521 86.9329 95.3512 87.3984 95.1494 87.8086C94.9508 88.2188 94.6644 88.5361 94.29 88.7607C93.9189 88.9854 93.4893 89.0977 93.001 89.0977C92.2555 89.0977 91.6582 88.8503 91.209 88.3555C90.763 87.8574 90.54 87.195 90.54 86.3682V86.3096ZM91.7266 86.4121C91.7266 86.9557 91.8389 87.3822 92.0635 87.6914C92.2881 87.9974 92.6006 88.1504 93.001 88.1504C93.4014 88.1504 93.7122 87.9941 93.9336 87.6816C94.1582 87.3691 94.2705 86.9118 94.2705 86.3096C94.2705 85.7757 94.1549 85.3525 93.9238 85.04C93.696 84.7275 93.3851 84.5713 92.9912 84.5713C92.6038 84.5713 92.2962 84.7259 92.0684 85.0352C91.8405 85.3411 91.7266 85.8001 91.7266 86.4121ZM96.2334 86.3096C96.2334 85.792 96.3359 85.3265 96.541 84.9131C96.7461 84.4964 97.0342 84.1774 97.4053 83.9561C97.7764 83.7314 98.2028 83.6191 98.6846 83.6191C99.3975 83.6191 99.9753 83.8486 100.418 84.3076C100.864 84.7666 101.105 85.3753 101.141 86.1338L101.146 86.4121C101.146 86.9329 101.045 87.3984 100.843 87.8086C100.644 88.2188 100.358 88.5361 99.9834 88.7607C99.6123 88.9854 99.1826 89.0977 98.6943 89.0977C97.9489 89.0977 97.3516 88.8503 96.9023 88.3555C96.4564 87.8574 96.2334 87.195 96.2334 86.3682V86.3096ZM97.4199 86.4121C97.4199 86.9557 97.5322 87.3822 97.7568 87.6914C97.9814 87.9974 98.2939 88.1504 98.6943 88.1504C99.0947 88.1504 99.4056 87.9941 99.627 87.6816C99.8516 87.3691 99.9639 86.9118 99.9639 86.3096C99.9639 85.7757 99.8483 85.3525 99.6172 85.04C99.3893 84.7275 99.0785 84.5713 98.6846 84.5713C98.2972 84.5713 97.9896 84.7259 97.7617 85.0352C97.5339 85.3411 97.4199 85.8001 97.4199 86.4121ZM104.915 84.8008C104.759 84.7747 104.598 84.7617 104.432 84.7617C103.888 84.7617 103.522 84.9701 103.333 85.3867V89H102.146V83.7168H103.279L103.309 84.3076C103.595 83.8486 103.992 83.6191 104.5 83.6191C104.669 83.6191 104.809 83.6419 104.92 83.6875L104.915 84.8008ZM105.345 86.3193C105.345 85.5055 105.534 84.8529 105.911 84.3613C106.289 83.8665 106.795 83.6191 107.43 83.6191C107.99 83.6191 108.442 83.8145 108.787 84.2051V81.5H109.974V89H108.899L108.841 88.4531C108.486 88.8828 108.012 89.0977 107.42 89.0977C106.801 89.0977 106.3 88.8486 105.916 88.3506C105.535 87.8525 105.345 87.1755 105.345 86.3193ZM106.531 86.4219C106.531 86.959 106.634 87.3789 106.839 87.6816C107.047 87.9811 107.342 88.1309 107.723 88.1309C108.208 88.1309 108.562 87.9144 108.787 87.4814V85.2256C108.569 84.8024 108.217 84.5908 107.732 84.5908C107.348 84.5908 107.052 84.7438 106.844 85.0498C106.635 85.3525 106.531 85.8099 106.531 86.4219ZM112.474 89H111.287V83.7168H112.474V89ZM111.214 82.3447C111.214 82.1624 111.271 82.0111 111.385 81.8906C111.502 81.7702 111.668 81.71 111.883 81.71C112.098 81.71 112.264 81.7702 112.381 81.8906C112.498 82.0111 112.557 82.1624 112.557 82.3447C112.557 82.5238 112.498 82.6735 112.381 82.7939C112.264 82.9111 112.098 82.9697 111.883 82.9697C111.668 82.9697 111.502 82.9111 111.385 82.7939C111.271 82.6735 111.214 82.5238 111.214 82.3447ZM114.871 83.7168L114.905 84.3271C115.296 83.8551 115.809 83.6191 116.443 83.6191C117.544 83.6191 118.104 84.249 118.123 85.5088V89H116.937V85.5771C116.937 85.2419 116.863 84.9945 116.717 84.835C116.574 84.6722 116.338 84.5908 116.009 84.5908C115.53 84.5908 115.174 84.8073 114.939 85.2402V89H113.753V83.7168H114.871ZM122.493 89C122.441 88.8991 122.396 88.7347 122.356 88.5068C121.979 88.9007 121.517 89.0977 120.97 89.0977C120.439 89.0977 120.006 88.9463 119.671 88.6436C119.336 88.3408 119.168 87.9665 119.168 87.5205C119.168 86.9574 119.376 86.526 119.793 86.2266C120.213 85.9238 120.812 85.7725 121.59 85.7725H122.317V85.4258C122.317 85.1523 122.241 84.9342 122.088 84.7715C121.935 84.6055 121.702 84.5225 121.39 84.5225C121.119 84.5225 120.898 84.5908 120.726 84.7275C120.553 84.861 120.467 85.0319 120.467 85.2402H119.28C119.28 84.9505 119.376 84.6803 119.568 84.4297C119.76 84.1758 120.021 83.9772 120.35 83.834C120.682 83.6908 121.051 83.6191 121.458 83.6191C122.076 83.6191 122.57 83.7754 122.938 84.0879C123.305 84.3971 123.494 84.8333 123.504 85.3965V87.7793C123.504 88.2546 123.571 88.6338 123.704 88.917V89H122.493ZM121.189 88.1455C121.424 88.1455 121.644 88.0885 121.849 87.9746C122.057 87.8607 122.213 87.7077 122.317 87.5156V86.5195H121.678C121.238 86.5195 120.908 86.596 120.687 86.749C120.465 86.902 120.354 87.1185 120.354 87.3984C120.354 87.6263 120.429 87.8086 120.579 87.9453C120.732 88.0788 120.936 88.1455 121.189 88.1455ZM126.233 82.4326V83.7168H127.166V84.5957H126.233V87.5449C126.233 87.7467 126.272 87.8932 126.351 87.9844C126.432 88.0723 126.575 88.1162 126.78 88.1162C126.917 88.1162 127.055 88.0999 127.195 88.0674V88.9854C126.925 89.0602 126.665 89.0977 126.414 89.0977C125.503 89.0977 125.047 88.5947 125.047 87.5889V84.5957H124.178V83.7168H125.047V82.4326H126.233ZM127.708 86.3096C127.708 85.792 127.811 85.3265 128.016 84.9131C128.221 84.4964 128.509 84.1774 128.88 83.9561C129.251 83.7314 129.677 83.6191 130.159 83.6191C130.872 83.6191 131.45 83.8486 131.893 84.3076C132.339 84.7666 132.579 85.3753 132.615 86.1338L132.62 86.4121C132.62 86.9329 132.519 87.3984 132.317 87.8086C132.119 88.2188 131.832 88.5361 131.458 88.7607C131.087 88.9854 130.657 89.0977 130.169 89.0977C129.424 89.0977 128.826 88.8503 128.377 88.3555C127.931 87.8574 127.708 87.195 127.708 86.3682V86.3096ZM128.895 86.4121C128.895 86.9557 129.007 87.3822 129.231 87.6914C129.456 87.9974 129.769 88.1504 130.169 88.1504C130.569 88.1504 130.88 87.9941 131.102 87.6816C131.326 87.3691 131.438 86.9118 131.438 86.3096C131.438 85.7757 131.323 85.3525 131.092 85.04C130.864 84.7275 130.553 84.5713 130.159 84.5713C129.772 84.5713 129.464 84.7259 129.236 85.0352C129.008 85.3411 128.895 85.8001 128.895 86.4121ZM136.39 84.8008C136.233 84.7747 136.072 84.7617 135.906 84.7617C135.363 84.7617 134.996 84.9701 134.808 85.3867V89H133.621V83.7168H134.754L134.783 84.3076C135.07 83.8486 135.467 83.6191 135.975 83.6191C136.144 83.6191 136.284 83.6419 136.395 83.6875L136.39 84.8008Z" fill="white"/>
<path d="M81.7451 132H80.5635V126.292L78.8203 126.888V125.887L81.5938 124.866H81.7451V132ZM85.5879 127.903H86.3105C86.6751 127.9 86.9632 127.806 87.1748 127.62C87.3896 127.435 87.4971 127.166 87.4971 126.814C87.4971 126.476 87.4076 126.214 87.2285 126.028C87.0527 125.84 86.7826 125.745 86.418 125.745C86.099 125.745 85.8369 125.838 85.6318 126.023C85.4268 126.206 85.3242 126.445 85.3242 126.741H84.1377C84.1377 126.377 84.2337 126.045 84.4258 125.745C84.6211 125.446 84.8913 125.213 85.2363 125.047C85.5846 124.878 85.9736 124.793 86.4033 124.793C87.113 124.793 87.6696 124.972 88.0732 125.33C88.4801 125.685 88.6836 126.18 88.6836 126.814C88.6836 127.133 88.5811 127.435 88.376 127.718C88.1742 127.998 87.9121 128.209 87.5898 128.353C87.9805 128.486 88.2767 128.696 88.4785 128.982C88.6836 129.269 88.7861 129.611 88.7861 130.008C88.7861 130.646 88.5664 131.154 88.127 131.531C87.6908 131.909 87.1162 132.098 86.4033 132.098C85.7197 132.098 85.1598 131.915 84.7236 131.551C84.2874 131.186 84.0693 130.701 84.0693 130.096H85.2559C85.2559 130.408 85.36 130.662 85.5684 130.857C85.7799 131.053 86.0632 131.15 86.418 131.15C86.7858 131.15 87.0755 131.053 87.2871 130.857C87.4987 130.662 87.6045 130.379 87.6045 130.008C87.6045 129.633 87.4938 129.345 87.2725 129.144C87.0511 128.942 86.7223 128.841 86.2861 128.841H85.5879V127.903ZM95.4902 124.891H96.7207V129.876C96.7207 130.556 96.5075 131.097 96.0811 131.497C95.6579 131.897 95.098 132.098 94.4014 132.098C93.6592 132.098 93.0863 131.91 92.6826 131.536C92.279 131.162 92.0771 130.641 92.0771 129.974H93.3076C93.3076 130.351 93.4004 130.636 93.5859 130.828C93.7747 131.017 94.0465 131.111 94.4014 131.111C94.7334 131.111 94.9971 131.002 95.1924 130.784C95.391 130.563 95.4902 130.258 95.4902 129.871V124.891ZM101.223 131.482C100.874 131.893 100.38 132.098 99.7383 132.098C99.1654 132.098 98.7308 131.93 98.4346 131.595C98.1416 131.259 97.9951 130.774 97.9951 130.14V126.717H99.1816V130.125C99.1816 130.796 99.46 131.131 100.017 131.131C100.593 131.131 100.982 130.924 101.184 130.511V126.717H102.37V132H101.252L101.223 131.482ZM104.841 132H103.654V124.5H104.841V132ZM107.985 130.301L109.06 126.717H110.324L108.225 132.801C107.902 133.689 107.355 134.134 106.584 134.134C106.411 134.134 106.221 134.104 106.013 134.046V133.128L106.237 133.143C106.537 133.143 106.761 133.087 106.911 132.977C107.064 132.869 107.185 132.687 107.272 132.43L107.443 131.976L105.588 126.717H106.867L107.985 130.301ZM118.205 132H113.425V131.185L115.793 128.602C116.135 128.221 116.377 127.903 116.521 127.649C116.667 127.392 116.74 127.135 116.74 126.878C116.74 126.539 116.644 126.266 116.452 126.058C116.263 125.849 116.008 125.745 115.686 125.745C115.301 125.745 115.004 125.862 114.792 126.097C114.58 126.331 114.475 126.652 114.475 127.059H113.288C113.288 126.626 113.386 126.237 113.581 125.892C113.78 125.543 114.061 125.273 114.426 125.081C114.794 124.889 115.217 124.793 115.695 124.793C116.385 124.793 116.929 124.967 117.326 125.315C117.727 125.66 117.927 126.139 117.927 126.751C117.927 127.106 117.826 127.479 117.624 127.869C117.425 128.257 117.098 128.698 116.643 129.192L114.904 131.053H118.205V132ZM123.742 129.007C123.742 130.029 123.55 130.8 123.166 131.321C122.785 131.839 122.204 132.098 121.423 132.098C120.655 132.098 120.075 131.845 119.685 131.341C119.297 130.833 119.099 130.083 119.089 129.09V127.859C119.089 126.837 119.279 126.071 119.66 125.56C120.044 125.049 120.629 124.793 121.413 124.793C122.191 124.793 122.771 125.042 123.151 125.54C123.535 126.038 123.732 126.784 123.742 127.776V129.007ZM122.556 127.679C122.556 127.011 122.465 126.523 122.282 126.214C122.1 125.901 121.81 125.745 121.413 125.745C121.026 125.745 120.741 125.893 120.559 126.189C120.376 126.482 120.28 126.941 120.271 127.566V129.178C120.271 129.842 120.363 130.337 120.549 130.662C120.734 130.988 121.026 131.15 121.423 131.15C121.804 131.15 122.085 131.001 122.268 130.701C122.45 130.398 122.546 129.926 122.556 129.285V127.679ZM129.572 132H124.792V131.185L127.16 128.602C127.502 128.221 127.744 127.903 127.888 127.649C128.034 127.392 128.107 127.135 128.107 126.878C128.107 126.539 128.011 126.266 127.819 126.058C127.631 125.849 127.375 125.745 127.053 125.745C126.669 125.745 126.371 125.862 126.159 126.097C125.948 126.331 125.842 126.652 125.842 127.059H124.655C124.655 126.626 124.753 126.237 124.948 125.892C125.147 125.543 125.428 125.273 125.793 125.081C126.161 124.889 126.584 124.793 127.062 124.793C127.753 124.793 128.296 124.967 128.693 125.315C129.094 125.66 129.294 126.139 129.294 126.751C129.294 127.106 129.193 127.479 128.991 127.869C128.793 128.257 128.465 128.698 128.01 129.192L126.271 131.053H129.572V132ZM133.688 132H132.507V126.292L130.764 126.888V125.887L133.537 124.866H133.688V132ZM136.403 133.602L135.764 133.221C135.952 132.924 136.081 132.666 136.149 132.444C136.221 132.226 136.258 132.003 136.262 131.775V130.853H137.331L137.326 131.707C137.323 132.052 137.235 132.397 137.062 132.742C136.893 133.09 136.674 133.377 136.403 133.602ZM144.06 132H142.878V126.292L141.135 126.888V125.887L143.908 124.866H144.06V132ZM151.164 129.007C151.164 130.029 150.972 130.8 150.588 131.321C150.207 131.839 149.626 132.098 148.845 132.098C148.076 132.098 147.497 131.845 147.106 131.341C146.719 130.833 146.521 130.083 146.511 129.09V127.859C146.511 126.837 146.701 126.071 147.082 125.56C147.466 125.049 148.05 124.793 148.835 124.793C149.613 124.793 150.192 125.042 150.573 125.54C150.957 126.038 151.154 126.784 151.164 127.776V129.007ZM149.978 127.679C149.978 127.011 149.886 126.523 149.704 126.214C149.522 125.901 149.232 125.745 148.835 125.745C148.448 125.745 148.163 125.893 147.98 126.189C147.798 126.482 147.702 126.941 147.692 127.566V129.178C147.692 129.842 147.785 130.337 147.971 130.662C148.156 130.988 148.448 131.15 148.845 131.15C149.226 131.15 149.507 131.001 149.689 130.701C149.872 130.398 149.968 129.926 149.978 129.285V127.679ZM153.005 130.75C153.226 130.75 153.397 130.813 153.518 130.94C153.638 131.064 153.698 131.22 153.698 131.409C153.698 131.595 153.638 131.749 153.518 131.873C153.397 131.993 153.226 132.054 153.005 132.054C152.793 132.054 152.626 131.993 152.502 131.873C152.378 131.753 152.316 131.598 152.316 131.409C152.316 131.22 152.377 131.064 152.497 130.94C152.618 130.813 152.787 130.75 153.005 130.75ZM153.005 126.604C153.226 126.604 153.397 126.668 153.518 126.795C153.638 126.919 153.698 127.075 153.698 127.264C153.698 127.449 153.638 127.604 153.518 127.728C153.397 127.848 153.226 127.908 153.005 127.908C152.793 127.908 152.626 127.848 152.502 127.728C152.378 127.607 152.316 127.452 152.316 127.264C152.316 127.075 152.377 126.919 152.497 126.795C152.618 126.668 152.787 126.604 153.005 126.604ZM155.188 128.475L155.573 124.891H159.392V125.916H156.56L156.364 127.615C156.693 127.426 157.064 127.332 157.478 127.332C158.155 127.332 158.68 127.549 159.055 127.981C159.432 128.414 159.621 128.997 159.621 129.729C159.621 130.452 159.413 131.028 158.996 131.458C158.579 131.884 158.008 132.098 157.282 132.098C156.631 132.098 156.091 131.914 155.661 131.546C155.235 131.175 155.004 130.687 154.968 130.081H156.115C156.161 130.426 156.285 130.691 156.486 130.877C156.688 131.059 156.952 131.15 157.277 131.15C157.642 131.15 157.925 131.02 158.127 130.76C158.332 130.499 158.435 130.145 158.435 129.695C158.435 129.262 158.322 128.921 158.098 128.67C157.873 128.416 157.564 128.289 157.17 128.289C156.955 128.289 156.773 128.318 156.623 128.377C156.473 128.432 156.311 128.543 156.135 128.709L155.188 128.475ZM165.188 129.007C165.188 130.029 164.995 130.8 164.611 131.321C164.23 131.839 163.649 132.098 162.868 132.098C162.1 132.098 161.521 131.845 161.13 131.341C160.743 130.833 160.544 130.083 160.534 129.09V127.859C160.534 126.837 160.725 126.071 161.105 125.56C161.49 125.049 162.074 124.793 162.858 124.793C163.636 124.793 164.216 125.042 164.597 125.54C164.981 126.038 165.178 126.784 165.188 127.776V129.007ZM164.001 127.679C164.001 127.011 163.91 126.523 163.728 126.214C163.545 125.901 163.256 125.745 162.858 125.745C162.471 125.745 162.186 125.893 162.004 126.189C161.822 126.482 161.726 126.941 161.716 127.566V129.178C161.716 129.842 161.809 130.337 161.994 130.662C162.18 130.988 162.471 131.15 162.868 131.15C163.249 131.15 163.531 131.001 163.713 130.701C163.895 130.398 163.991 129.926 164.001 129.285V127.679Z" fill="#A7A7A7"/>
<path d="M66.5 132.542C69.2845 132.542 71.5417 130.284 71.5417 127.5C71.5417 124.716 69.2845 122.458 66.5 122.458C63.7156 122.458 61.4584 124.716 61.4584 127.5C61.4584 130.284 63.7156 132.542 66.5 132.542Z" fill="#9B36FF"/>
</g>
<defs>
<filter id="filter0_d" x="0" y="0" width="279" height="184" filterUnits="userSpaceOnUse" color-interpolation-filters="sRGB">
<feFlood flood-opacity="0" result="BackgroundImageFix"/>
<feColorMatrix in="SourceAlpha" type="matrix" values="0 0 0 0 0 0 0 0 0 0 0 0 0 0 0 0 0 0 127 0"/>
<feOffset dy="4"/>
<feGaussianBlur stdDeviation="13.5"/>
<feColorMatrix type="matrix" values="0 0 0 0 0 0 0 0 0 0 0 0 0 0 0 0 0 0 0.05 0"/>
<feBlend mode="normal" in2="BackgroundImageFix" result="effect1_dropShadow"/>
<feBlend mode="normal" in="SourceGraphic" in2="effect1_dropShadow" result="shape"/>
</filter>
</defs>
</svg>
