<svg width="279" height="184" viewBox="0 0 279 184" fill="none" xmlns="http://www.w3.org/2000/svg">
<g filter="url(#filter0_d)">
<rect x="27" y="23" width="225" height="130" rx="8" fill="white"/>
<path d="M66.8125 48.625H68.7812V56.6016C68.7812 57.6901 68.4401 58.5547 67.7578 59.1953C67.0807 59.8359 66.1849 60.1562 65.0703 60.1562C63.8828 60.1562 62.9661 59.8568 62.3203 59.2578C61.6745 58.6589 61.3516 57.8255 61.3516 56.7578H63.3203C63.3203 57.362 63.4688 57.8177 63.7656 58.125C64.0677 58.4271 64.5026 58.5781 65.0703 58.5781C65.6016 58.5781 66.0234 58.4036 66.3359 58.0547C66.6536 57.7005 66.8125 57.2135 66.8125 56.5938V48.625ZM75.9141 60C75.8307 59.8385 75.7578 59.5755 75.6953 59.2109C75.0911 59.8411 74.3516 60.1562 73.4766 60.1562C72.6276 60.1562 71.9349 59.9141 71.3984 59.4297C70.862 58.9453 70.5938 58.3464 70.5938 57.6328C70.5938 56.7318 70.9271 56.0417 71.5938 55.5625C72.2656 55.0781 73.224 54.8359 74.4688 54.8359H75.6328V54.2812C75.6328 53.8438 75.5104 53.4948 75.2656 53.2344C75.0208 52.9688 74.6484 52.8359 74.1484 52.8359C73.7161 52.8359 73.362 52.9453 73.0859 53.1641C72.8099 53.3776 72.6719 53.651 72.6719 53.9844H70.7734C70.7734 53.5208 70.9271 53.0885 71.2344 52.6875C71.5417 52.2812 71.9583 51.9635 72.4844 51.7344C73.0156 51.5052 73.6068 51.3906 74.2578 51.3906C75.2474 51.3906 76.0365 51.6406 76.625 52.1406C77.2135 52.6354 77.5156 53.3333 77.5312 54.2344V58.0469C77.5312 58.8073 77.638 59.4141 77.8516 59.8672V60H75.9141ZM73.8281 58.6328C74.2031 58.6328 74.5547 58.5417 74.8828 58.3594C75.2161 58.1771 75.4661 57.9323 75.6328 57.625V56.0312H74.6094C73.9062 56.0312 73.3776 56.1536 73.0234 56.3984C72.6693 56.6432 72.4922 56.9896 72.4922 57.4375C72.4922 57.8021 72.612 58.0938 72.8516 58.3125C73.0964 58.526 73.4219 58.6328 73.8281 58.6328ZM81.2812 51.5469L81.3359 52.5234C81.9609 51.7682 82.7812 51.3906 83.7969 51.3906C85.5573 51.3906 86.4531 52.3984 86.4844 54.4141V60H84.5859V54.5234C84.5859 53.987 84.4688 53.5911 84.2344 53.3359C84.0052 53.0755 83.6276 52.9453 83.1016 52.9453C82.3359 52.9453 81.7656 53.2917 81.3906 53.9844V60H79.4922V51.5469H81.2812ZM92.1484 60.1562C90.9453 60.1562 89.9688 59.7786 89.2188 59.0234C88.474 58.263 88.1016 57.2526 88.1016 55.9922V55.7578C88.1016 54.9141 88.263 54.1615 88.5859 53.5C88.9141 52.8333 89.3724 52.3151 89.9609 51.9453C90.5495 51.5755 91.2057 51.3906 91.9297 51.3906C93.0807 51.3906 93.9688 51.7578 94.5938 52.4922C95.224 53.2266 95.5391 54.2656 95.5391 55.6094V56.375H90.0156C90.0729 57.0729 90.3047 57.625 90.7109 58.0312C91.1224 58.4375 91.638 58.6406 92.2578 58.6406C93.1276 58.6406 93.8359 58.2891 94.3828 57.5859L95.4062 58.5625C95.0677 59.0677 94.6146 59.4609 94.0469 59.7422C93.4844 60.0182 92.8516 60.1562 92.1484 60.1562ZM91.9219 52.9141C91.401 52.9141 90.9792 53.0964 90.6562 53.4609C90.3385 53.8255 90.1354 54.3333 90.0469 54.9844H93.6641V54.8438C93.6224 54.2083 93.4531 53.7292 93.1562 53.4062C92.8594 53.0781 92.4479 52.9141 91.9219 52.9141ZM107.555 57.3516H103.148L102.227 60H100.172L104.469 48.625H106.242L110.547 60H108.484L107.555 57.3516ZM103.703 55.7578H107L105.352 51.0391L103.703 55.7578ZM116.688 59.1719C116.13 59.8281 115.339 60.1562 114.312 60.1562C113.396 60.1562 112.701 59.888 112.227 59.3516C111.758 58.8151 111.523 58.0391 111.523 57.0234V51.5469H113.422V57C113.422 58.0729 113.867 58.6094 114.758 58.6094C115.68 58.6094 116.302 58.2786 116.625 57.6172V51.5469H118.523V60H116.734L116.688 59.1719ZM125.195 57.7031C125.195 57.3646 125.055 57.1068 124.773 56.9297C124.497 56.7526 124.036 56.5964 123.391 56.4609C122.745 56.3255 122.206 56.1536 121.773 55.9453C120.826 55.487 120.352 54.8229 120.352 53.9531C120.352 53.224 120.659 52.6146 121.273 52.125C121.888 51.6354 122.669 51.3906 123.617 51.3906C124.628 51.3906 125.443 51.6406 126.062 52.1406C126.688 52.6406 127 53.2891 127 54.0859H125.102C125.102 53.7214 124.966 53.4193 124.695 53.1797C124.424 52.9349 124.065 52.8125 123.617 52.8125C123.201 52.8125 122.859 52.9089 122.594 53.1016C122.333 53.2943 122.203 53.5521 122.203 53.875C122.203 54.1667 122.326 54.3932 122.57 54.5547C122.815 54.7161 123.31 54.8802 124.055 55.0469C124.799 55.2083 125.383 55.4036 125.805 55.6328C126.232 55.8568 126.547 56.1276 126.75 56.4453C126.958 56.763 127.062 57.1484 127.062 57.6016C127.062 58.362 126.747 58.9792 126.117 59.4531C125.487 59.9219 124.661 60.1562 123.641 60.1562C122.948 60.1562 122.331 60.0312 121.789 59.7812C121.247 59.5312 120.826 59.1875 120.523 58.75C120.221 58.3125 120.07 57.8411 120.07 57.3359H121.914C121.94 57.7839 122.109 58.1302 122.422 58.375C122.734 58.6146 123.148 58.7344 123.664 58.7344C124.164 58.7344 124.544 58.6406 124.805 58.4531C125.065 58.2604 125.195 58.0104 125.195 57.7031ZM131.102 49.4922V51.5469H132.594V52.9531H131.102V57.6719C131.102 57.9948 131.164 58.2292 131.289 58.375C131.419 58.5156 131.648 58.5859 131.977 58.5859C132.195 58.5859 132.417 58.5599 132.641 58.5078V59.9766C132.208 60.0964 131.792 60.1562 131.391 60.1562C129.932 60.1562 129.203 59.3516 129.203 57.7422V52.9531H127.812V51.5469H129.203V49.4922H131.102ZM137.773 60.1562C136.57 60.1562 135.594 59.7786 134.844 59.0234C134.099 58.263 133.727 57.2526 133.727 55.9922V55.7578C133.727 54.9141 133.888 54.1615 134.211 53.5C134.539 52.8333 134.997 52.3151 135.586 51.9453C136.174 51.5755 136.831 51.3906 137.555 51.3906C138.706 51.3906 139.594 51.7578 140.219 52.4922C140.849 53.2266 141.164 54.2656 141.164 55.6094V56.375H135.641C135.698 57.0729 135.93 57.625 136.336 58.0312C136.747 58.4375 137.263 58.6406 137.883 58.6406C138.753 58.6406 139.461 58.2891 140.008 57.5859L141.031 58.5625C140.693 59.0677 140.24 59.4609 139.672 59.7422C139.109 60.0182 138.477 60.1562 137.773 60.1562ZM137.547 52.9141C137.026 52.9141 136.604 53.0964 136.281 53.4609C135.964 53.8255 135.76 54.3333 135.672 54.9844H139.289V54.8438C139.247 54.2083 139.078 53.7292 138.781 53.4062C138.484 53.0781 138.073 52.9141 137.547 52.9141ZM144.406 51.5469L144.461 52.5234C145.086 51.7682 145.906 51.3906 146.922 51.3906C148.682 51.3906 149.578 52.3984 149.609 54.4141V60H147.711V54.5234C147.711 53.987 147.594 53.5911 147.359 53.3359C147.13 53.0755 146.753 52.9453 146.227 52.9453C145.461 52.9453 144.891 53.2917 144.516 53.9844V60H142.617V51.5469H144.406Z" fill="#5F5F5F"/>
<rect x="60.5973" y="71.8793" width="105.882" height="27.1552" rx="13.5776" fill="#30BB3E"/>
<path d="M78.1719 88.0771C77.9147 88.4124 77.5583 88.6663 77.1025 88.8389C76.6468 89.0114 76.1292 89.0977 75.5498 89.0977C74.9541 89.0977 74.4268 88.9626 73.9678 88.6924C73.5088 88.4222 73.154 88.0365 72.9033 87.5352C72.6559 87.0306 72.5273 86.443 72.5176 85.7725V85.2158C72.5176 84.1416 72.7747 83.3034 73.2891 82.7012C73.8034 82.0957 74.5212 81.793 75.4424 81.793C76.2334 81.793 76.8617 81.9883 77.3271 82.3789C77.7926 82.7695 78.0726 83.3327 78.167 84.0684H76.9561C76.8193 83.2122 76.3229 82.7842 75.4668 82.7842C74.9134 82.7842 74.4919 82.9844 74.2021 83.3848C73.9157 83.7819 73.7676 84.3662 73.7578 85.1377V85.6846C73.7578 86.4528 73.9189 87.0501 74.2412 87.4766C74.5667 87.8997 75.0176 88.1113 75.5938 88.1113C76.2253 88.1113 76.6745 87.9681 76.9414 87.6816V86.29H75.4766V85.3525H78.1719V88.0771ZM82.1807 84.8008C82.0244 84.7747 81.8633 84.7617 81.6973 84.7617C81.1536 84.7617 80.7874 84.9701 80.5986 85.3867V89H79.4121V83.7168H80.5449L80.5742 84.3076C80.8607 83.8486 81.2578 83.6191 81.7656 83.6191C81.9349 83.6191 82.0749 83.6419 82.1855 83.6875L82.1807 84.8008ZM85.9404 89C85.8883 88.8991 85.8428 88.7347 85.8037 88.5068C85.4261 88.9007 84.9639 89.0977 84.417 89.0977C83.8864 89.0977 83.4535 88.9463 83.1182 88.6436C82.7829 88.3408 82.6152 87.9665 82.6152 87.5205C82.6152 86.9574 82.8236 86.526 83.2402 86.2266C83.6602 85.9238 84.2591 85.7725 85.0371 85.7725H85.7646V85.4258C85.7646 85.1523 85.6882 84.9342 85.5352 84.7715C85.3822 84.6055 85.1494 84.5225 84.8369 84.5225C84.5667 84.5225 84.3454 84.5908 84.1729 84.7275C84.0003 84.861 83.9141 85.0319 83.9141 85.2402H82.7275C82.7275 84.9505 82.8236 84.6803 83.0156 84.4297C83.2077 84.1758 83.4681 83.9772 83.7969 83.834C84.1289 83.6908 84.4984 83.6191 84.9053 83.6191C85.5238 83.6191 86.0169 83.7754 86.3848 84.0879C86.7526 84.3971 86.9414 84.8333 86.9512 85.3965V87.7793C86.9512 88.2546 87.0179 88.6338 87.1514 88.917V89H85.9404ZM84.6367 88.1455C84.8711 88.1455 85.0908 88.0885 85.2959 87.9746C85.5042 87.8607 85.6605 87.7077 85.7646 87.5156V86.5195H85.125C84.6855 86.5195 84.3551 86.596 84.1338 86.749C83.9124 86.902 83.8018 87.1185 83.8018 87.3984C83.8018 87.6263 83.8766 87.8086 84.0264 87.9453C84.1794 88.0788 84.3828 88.1455 84.6367 88.1455ZM92.8203 86.4121C92.8203 87.2292 92.6348 87.8818 92.2637 88.3701C91.8926 88.8551 91.3945 89.0977 90.7695 89.0977C90.1901 89.0977 89.7262 88.9072 89.3779 88.5264V91.0312H88.1914V83.7168H89.2852L89.334 84.2539C89.6823 83.8307 90.1559 83.6191 90.7549 83.6191C91.3994 83.6191 91.904 83.86 92.2686 84.3418C92.6364 84.8203 92.8203 85.486 92.8203 86.3389V86.4121ZM91.6387 86.3096C91.6387 85.7822 91.5329 85.3639 91.3213 85.0547C91.113 84.7454 90.8135 84.5908 90.4229 84.5908C89.9378 84.5908 89.5895 84.791 89.3779 85.1914V87.5352C89.5928 87.9453 89.9443 88.1504 90.4326 88.1504C90.8102 88.1504 91.1048 87.999 91.3164 87.6963C91.5312 87.3903 91.6387 86.9281 91.6387 86.3096ZM94.998 84.293C95.3854 83.8438 95.8753 83.6191 96.4678 83.6191C97.5941 83.6191 98.1654 84.262 98.1816 85.5479V89H96.9951V85.5918C96.9951 85.2272 96.9154 84.9701 96.7559 84.8203C96.5996 84.6673 96.3685 84.5908 96.0625 84.5908C95.5872 84.5908 95.2324 84.8024 94.998 85.2256V89H93.8115V81.5H94.998V84.293ZM100.647 89H99.4609V83.7168H100.647V89ZM99.3877 82.3447C99.3877 82.1624 99.4447 82.0111 99.5586 81.8906C99.6758 81.7702 99.8418 81.71 100.057 81.71C100.271 81.71 100.438 81.7702 100.555 81.8906C100.672 82.0111 100.73 82.1624 100.73 82.3447C100.73 82.5238 100.672 82.6735 100.555 82.7939C100.438 82.9111 100.271 82.9697 100.057 82.9697C99.8418 82.9697 99.6758 82.9111 99.5586 82.7939C99.4447 82.6735 99.3877 82.5238 99.3877 82.3447ZM104.114 88.1504C104.41 88.1504 104.656 88.0641 104.852 87.8916C105.047 87.7191 105.151 87.5059 105.164 87.252H106.282C106.269 87.5807 106.167 87.8883 105.975 88.1748C105.783 88.458 105.522 88.6826 105.193 88.8486C104.865 89.0146 104.51 89.0977 104.129 89.0977C103.39 89.0977 102.804 88.8584 102.371 88.3799C101.938 87.9014 101.722 87.2406 101.722 86.3975V86.2754C101.722 85.4714 101.937 84.8285 102.366 84.3467C102.796 83.8617 103.382 83.6191 104.124 83.6191C104.752 83.6191 105.263 83.8031 105.657 84.1709C106.054 84.5355 106.263 85.0156 106.282 85.6113H105.164C105.151 85.3086 105.047 85.0596 104.852 84.8643C104.66 84.6689 104.414 84.5713 104.114 84.5713C103.73 84.5713 103.434 84.7113 103.226 84.9912C103.017 85.2679 102.911 85.6895 102.908 86.2559V86.4463C102.908 87.0192 103.011 87.4473 103.216 87.7305C103.424 88.0104 103.724 88.1504 104.114 88.1504ZM109.783 89V81.8906H111.883C112.511 81.8906 113.068 82.0306 113.553 82.3105C114.041 82.5905 114.419 82.9876 114.686 83.502C114.952 84.0163 115.086 84.6055 115.086 85.2695V85.626C115.086 86.2998 114.951 86.8923 114.681 87.4033C114.414 87.9144 114.031 88.3083 113.533 88.585C113.038 88.8617 112.47 89 111.829 89H109.783ZM111.019 82.8867V88.0137H111.824C112.472 88.0137 112.968 87.8118 113.313 87.4082C113.662 87.0013 113.839 86.4186 113.846 85.6602V85.2646C113.846 84.4932 113.678 83.904 113.343 83.4971C113.007 83.0902 112.521 82.8867 111.883 82.8867H111.019ZM118.528 89.0977C117.776 89.0977 117.166 88.8617 116.697 88.3896C116.232 87.9144 115.999 87.2829 115.999 86.4951V86.3486C115.999 85.8213 116.1 85.3509 116.302 84.9375C116.507 84.5208 116.793 84.1969 117.161 83.9658C117.529 83.7347 117.939 83.6191 118.392 83.6191C119.111 83.6191 119.666 83.8486 120.057 84.3076C120.451 84.7666 120.647 85.416 120.647 86.2559V86.7344H117.195C117.231 87.1706 117.376 87.5156 117.63 87.7695C117.887 88.0234 118.209 88.1504 118.597 88.1504C119.14 88.1504 119.583 87.9307 119.925 87.4912L120.564 88.1016C120.353 88.4173 120.07 88.6631 119.715 88.8389C119.363 89.0114 118.968 89.0977 118.528 89.0977ZM118.387 84.5713C118.061 84.5713 117.798 84.6852 117.596 84.9131C117.397 85.141 117.27 85.4583 117.215 85.8652H119.476V85.7773C119.45 85.3802 119.344 85.0807 119.158 84.8789C118.973 84.6738 118.715 84.5713 118.387 84.5713ZM124.534 87.5645C124.534 87.3529 124.446 87.1917 124.271 87.0811C124.098 86.9704 123.81 86.8727 123.406 86.7881C123.003 86.7035 122.666 86.596 122.396 86.4658C121.803 86.1794 121.507 85.7643 121.507 85.2207C121.507 84.765 121.699 84.3841 122.083 84.0781C122.467 83.7721 122.955 83.6191 123.548 83.6191C124.179 83.6191 124.689 83.7754 125.076 84.0879C125.467 84.4004 125.662 84.8057 125.662 85.3037H124.476C124.476 85.0758 124.391 84.887 124.222 84.7373C124.052 84.5843 123.828 84.5078 123.548 84.5078C123.287 84.5078 123.074 84.568 122.908 84.6885C122.745 84.8089 122.664 84.9701 122.664 85.1719C122.664 85.3542 122.741 85.4958 122.894 85.5967C123.047 85.6976 123.356 85.8001 123.821 85.9043C124.287 86.0052 124.651 86.1273 124.915 86.2705C125.182 86.4105 125.379 86.5798 125.506 86.7783C125.636 86.9769 125.701 87.2178 125.701 87.501C125.701 87.9762 125.504 88.362 125.11 88.6582C124.716 88.9512 124.201 89.0977 123.562 89.0977C123.13 89.0977 122.744 89.0195 122.405 88.8633C122.067 88.707 121.803 88.4922 121.614 88.2188C121.425 87.9453 121.331 87.6507 121.331 87.335H122.483C122.5 87.6149 122.605 87.8314 122.801 87.9844C122.996 88.1341 123.255 88.209 123.577 88.209C123.89 88.209 124.127 88.1504 124.29 88.0332C124.453 87.9128 124.534 87.7565 124.534 87.5645ZM128.001 89H126.814V83.7168H128.001V89ZM126.741 82.3447C126.741 82.1624 126.798 82.0111 126.912 81.8906C127.029 81.7702 127.195 81.71 127.41 81.71C127.625 81.71 127.791 81.7702 127.908 81.8906C128.025 82.0111 128.084 82.1624 128.084 82.3447C128.084 82.5238 128.025 82.6735 127.908 82.7939C127.791 82.9111 127.625 82.9697 127.41 82.9697C127.195 82.9697 127.029 82.9111 126.912 82.7939C126.798 82.6735 126.741 82.5238 126.741 82.3447ZM129.09 86.3193C129.09 85.499 129.282 84.8447 129.666 84.3564C130.053 83.8649 130.566 83.6191 131.204 83.6191C131.806 83.6191 132.28 83.8291 132.625 84.249L132.679 83.7168H133.748V88.8389C133.748 89.5322 133.532 90.0791 133.099 90.4795C132.669 90.8799 132.088 91.0801 131.355 91.0801C130.968 91.0801 130.589 90.9987 130.218 90.8359C129.85 90.6764 129.57 90.4665 129.378 90.2061L129.939 89.4932C130.304 89.9261 130.753 90.1426 131.287 90.1426C131.681 90.1426 131.992 90.0352 132.22 89.8203C132.448 89.6087 132.562 89.2962 132.562 88.8828V88.5264C132.22 88.9072 131.764 89.0977 131.194 89.0977C130.576 89.0977 130.07 88.8519 129.676 88.3604C129.285 87.8688 129.09 87.1885 129.09 86.3193ZM130.271 86.4219C130.271 86.9525 130.379 87.3708 130.594 87.6768C130.812 87.9795 131.113 88.1309 131.497 88.1309C131.976 88.1309 132.33 87.9258 132.562 87.5156V85.1914C132.337 84.791 131.985 84.5908 131.507 84.5908C131.116 84.5908 130.812 84.7454 130.594 85.0547C130.379 85.3639 130.271 85.8197 130.271 86.4219ZM136.072 83.7168L136.106 84.3271C136.497 83.8551 137.01 83.6191 137.645 83.6191C138.745 83.6191 139.305 84.249 139.324 85.5088V89H138.138V85.5771C138.138 85.2419 138.064 84.9945 137.918 84.835C137.775 84.6722 137.539 84.5908 137.21 84.5908C136.731 84.5908 136.375 84.8073 136.141 85.2402V89H134.954V83.7168H136.072ZM142.864 89.0977C142.112 89.0977 141.502 88.8617 141.033 88.3896C140.568 87.9144 140.335 87.2829 140.335 86.4951V86.3486C140.335 85.8213 140.436 85.3509 140.638 84.9375C140.843 84.5208 141.129 84.1969 141.497 83.9658C141.865 83.7347 142.275 83.6191 142.728 83.6191C143.447 83.6191 144.002 83.8486 144.393 84.3076C144.786 84.7666 144.983 85.416 144.983 86.2559V86.7344H141.531C141.567 87.1706 141.712 87.5156 141.966 87.7695C142.223 88.0234 142.545 88.1504 142.933 88.1504C143.476 88.1504 143.919 87.9307 144.261 87.4912L144.9 88.1016C144.689 88.4173 144.406 88.6631 144.051 88.8389C143.699 89.0114 143.304 89.0977 142.864 89.0977ZM142.723 84.5713C142.397 84.5713 142.133 84.6852 141.932 84.9131C141.733 85.141 141.606 85.4583 141.551 85.8652H143.812V85.7773C143.785 85.3802 143.68 85.0807 143.494 84.8789C143.309 84.6738 143.051 84.5713 142.723 84.5713ZM148.675 84.8008C148.519 84.7747 148.357 84.7617 148.191 84.7617C147.648 84.7617 147.282 84.9701 147.093 85.3867V89H145.906V83.7168H147.039L147.068 84.3076C147.355 83.8486 147.752 83.6191 148.26 83.6191C148.429 83.6191 148.569 83.6419 148.68 83.6875L148.675 84.8008Z" fill="white"/>
<path d="M83.3125 132H78.5322V131.185L80.9004 128.602C81.2422 128.221 81.4847 127.903 81.6279 127.649C81.7744 127.392 81.8477 127.135 81.8477 126.878C81.8477 126.539 81.7516 126.266 81.5596 126.058C81.3708 125.849 81.1152 125.745 80.793 125.745C80.4089 125.745 80.111 125.862 79.8994 126.097C79.6878 126.331 79.582 126.652 79.582 127.059H78.3955C78.3955 126.626 78.4932 126.237 78.6885 125.892C78.887 125.543 79.1686 125.273 79.5332 125.081C79.901 124.889 80.3242 124.793 80.8027 124.793C81.4928 124.793 82.0365 124.967 82.4336 125.315C82.834 125.66 83.0342 126.139 83.0342 126.751C83.0342 127.106 82.9333 127.479 82.7314 127.869C82.5329 128.257 82.2057 128.698 81.75 129.192L80.0117 131.053H83.3125V132ZM85.5879 127.903H86.3105C86.6751 127.9 86.9632 127.806 87.1748 127.62C87.3896 127.435 87.4971 127.166 87.4971 126.814C87.4971 126.476 87.4076 126.214 87.2285 126.028C87.0527 125.84 86.7826 125.745 86.418 125.745C86.099 125.745 85.8369 125.838 85.6318 126.023C85.4268 126.206 85.3242 126.445 85.3242 126.741H84.1377C84.1377 126.377 84.2337 126.045 84.4258 125.745C84.6211 125.446 84.8913 125.213 85.2363 125.047C85.5846 124.878 85.9736 124.793 86.4033 124.793C87.113 124.793 87.6696 124.972 88.0732 125.33C88.4801 125.685 88.6836 126.18 88.6836 126.814C88.6836 127.133 88.5811 127.435 88.376 127.718C88.1742 127.998 87.9121 128.209 87.5898 128.353C87.9805 128.486 88.2767 128.696 88.4785 128.982C88.6836 129.269 88.7861 129.611 88.7861 130.008C88.7861 130.646 88.5664 131.154 88.127 131.531C87.6908 131.909 87.1162 132.098 86.4033 132.098C85.7197 132.098 85.1598 131.915 84.7236 131.551C84.2874 131.186 84.0693 130.701 84.0693 130.096H85.2559C85.2559 130.408 85.36 130.662 85.5684 130.857C85.7799 131.053 86.0632 131.15 86.418 131.15C86.7858 131.15 87.0755 131.053 87.2871 130.857C87.4987 130.662 87.6045 130.379 87.6045 130.008C87.6045 129.633 87.4938 129.345 87.2725 129.144C87.0511 128.942 86.7223 128.841 86.2861 128.841H85.5879V127.903ZM95.4902 124.891H96.7207V129.876C96.7207 130.556 96.5075 131.097 96.0811 131.497C95.6579 131.897 95.098 132.098 94.4014 132.098C93.6592 132.098 93.0863 131.91 92.6826 131.536C92.279 131.162 92.0771 130.641 92.0771 129.974H93.3076C93.3076 130.351 93.4004 130.636 93.5859 130.828C93.7747 131.017 94.0465 131.111 94.4014 131.111C94.7334 131.111 94.9971 131.002 95.1924 130.784C95.391 130.563 95.4902 130.258 95.4902 129.871V124.891ZM101.223 131.482C100.874 131.893 100.38 132.098 99.7383 132.098C99.1654 132.098 98.7308 131.93 98.4346 131.595C98.1416 131.259 97.9951 130.774 97.9951 130.14V126.717H99.1816V130.125C99.1816 130.796 99.46 131.131 100.017 131.131C100.593 131.131 100.982 130.924 101.184 130.511V126.717H102.37V132H101.252L101.223 131.482ZM104.841 132H103.654V124.5H104.841V132ZM107.985 130.301L109.06 126.717H110.324L108.225 132.801C107.902 133.689 107.355 134.134 106.584 134.134C106.411 134.134 106.221 134.104 106.013 134.046V133.128L106.237 133.143C106.537 133.143 106.761 133.087 106.911 132.977C107.064 132.869 107.185 132.687 107.272 132.43L107.443 131.976L105.588 126.717H106.867L107.985 130.301ZM118.205 132H113.425V131.185L115.793 128.602C116.135 128.221 116.377 127.903 116.521 127.649C116.667 127.392 116.74 127.135 116.74 126.878C116.74 126.539 116.644 126.266 116.452 126.058C116.263 125.849 116.008 125.745 115.686 125.745C115.301 125.745 115.004 125.862 114.792 126.097C114.58 126.331 114.475 126.652 114.475 127.059H113.288C113.288 126.626 113.386 126.237 113.581 125.892C113.78 125.543 114.061 125.273 114.426 125.081C114.794 124.889 115.217 124.793 115.695 124.793C116.385 124.793 116.929 124.967 117.326 125.315C117.727 125.66 117.927 126.139 117.927 126.751C117.927 127.106 117.826 127.479 117.624 127.869C117.425 128.257 117.098 128.698 116.643 129.192L114.904 131.053H118.205V132ZM123.742 129.007C123.742 130.029 123.55 130.8 123.166 131.321C122.785 131.839 122.204 132.098 121.423 132.098C120.655 132.098 120.075 131.845 119.685 131.341C119.297 130.833 119.099 130.083 119.089 129.09V127.859C119.089 126.837 119.279 126.071 119.66 125.56C120.044 125.049 120.629 124.793 121.413 124.793C122.191 124.793 122.771 125.042 123.151 125.54C123.535 126.038 123.732 126.784 123.742 127.776V129.007ZM122.556 127.679C122.556 127.011 122.465 126.523 122.282 126.214C122.1 125.901 121.81 125.745 121.413 125.745C121.026 125.745 120.741 125.893 120.559 126.189C120.376 126.482 120.28 126.941 120.271 127.566V129.178C120.271 129.842 120.363 130.337 120.549 130.662C120.734 130.988 121.026 131.15 121.423 131.15C121.804 131.15 122.085 131.001 122.268 130.701C122.45 130.398 122.546 129.926 122.556 129.285V127.679ZM129.572 132H124.792V131.185L127.16 128.602C127.502 128.221 127.744 127.903 127.888 127.649C128.034 127.392 128.107 127.135 128.107 126.878C128.107 126.539 128.011 126.266 127.819 126.058C127.631 125.849 127.375 125.745 127.053 125.745C126.669 125.745 126.371 125.862 126.159 126.097C125.948 126.331 125.842 126.652 125.842 127.059H124.655C124.655 126.626 124.753 126.237 124.948 125.892C125.147 125.543 125.428 125.273 125.793 125.081C126.161 124.889 126.584 124.793 127.062 124.793C127.753 124.793 128.296 124.967 128.693 125.315C129.094 125.66 129.294 126.139 129.294 126.751C129.294 127.106 129.193 127.479 128.991 127.869C128.793 128.257 128.465 128.698 128.01 129.192L126.271 131.053H129.572V132ZM133.688 132H132.507V126.292L130.764 126.888V125.887L133.537 124.866H133.688V132ZM136.403 133.602L135.764 133.221C135.952 132.924 136.081 132.666 136.149 132.444C136.221 132.226 136.258 132.003 136.262 131.775V130.853H137.331L137.326 131.707C137.323 132.052 137.235 132.397 137.062 132.742C136.893 133.09 136.674 133.377 136.403 133.602ZM144.06 132H142.878V126.292L141.135 126.888V125.887L143.908 124.866H144.06V132ZM149.743 132H148.562V126.292L146.818 126.888V125.887L149.592 124.866H149.743V132ZM153.005 130.75C153.226 130.75 153.397 130.813 153.518 130.94C153.638 131.064 153.698 131.22 153.698 131.409C153.698 131.595 153.638 131.749 153.518 131.873C153.397 131.993 153.226 132.054 153.005 132.054C152.793 132.054 152.626 131.993 152.502 131.873C152.378 131.753 152.316 131.598 152.316 131.409C152.316 131.22 152.377 131.064 152.497 130.94C152.618 130.813 152.787 130.75 153.005 130.75ZM153.005 126.604C153.226 126.604 153.397 126.668 153.518 126.795C153.638 126.919 153.698 127.075 153.698 127.264C153.698 127.449 153.638 127.604 153.518 127.728C153.397 127.848 153.226 127.908 153.005 127.908C152.793 127.908 152.626 127.848 152.502 127.728C152.378 127.607 152.316 127.452 152.316 127.264C152.316 127.075 152.377 126.919 152.497 126.795C152.618 126.668 152.787 126.604 153.005 126.604ZM159.65 132H154.87V131.185L157.238 128.602C157.58 128.221 157.823 127.903 157.966 127.649C158.112 127.392 158.186 127.135 158.186 126.878C158.186 126.539 158.09 126.266 157.897 126.058C157.709 125.849 157.453 125.745 157.131 125.745C156.747 125.745 156.449 125.862 156.237 126.097C156.026 126.331 155.92 126.652 155.92 127.059H154.733C154.733 126.626 154.831 126.237 155.026 125.892C155.225 125.543 155.507 125.273 155.871 125.081C156.239 124.889 156.662 124.793 157.141 124.793C157.831 124.793 158.374 124.967 158.771 125.315C159.172 125.66 159.372 126.139 159.372 126.751C159.372 127.106 159.271 127.479 159.069 127.869C158.871 128.257 158.544 128.698 158.088 129.192L156.35 131.053H159.65V132ZM165.188 129.007C165.188 130.029 164.995 130.8 164.611 131.321C164.23 131.839 163.649 132.098 162.868 132.098C162.1 132.098 161.521 131.845 161.13 131.341C160.743 130.833 160.544 130.083 160.534 129.09V127.859C160.534 126.837 160.725 126.071 161.105 125.56C161.49 125.049 162.074 124.793 162.858 124.793C163.636 124.793 164.216 125.042 164.597 125.54C164.981 126.038 165.178 126.784 165.188 127.776V129.007ZM164.001 127.679C164.001 127.011 163.91 126.523 163.728 126.214C163.545 125.901 163.256 125.745 162.858 125.745C162.471 125.745 162.186 125.893 162.004 126.189C161.822 126.482 161.726 126.941 161.716 127.566V129.178C161.716 129.842 161.809 130.337 161.994 130.662C162.18 130.988 162.471 131.15 162.868 131.15C163.249 131.15 163.531 131.001 163.713 130.701C163.895 130.398 163.991 129.926 164.001 129.285V127.679Z" fill="#A7A7A7"/>
<path d="M66.5 132.542C69.2845 132.542 71.5417 130.284 71.5417 127.5C71.5417 124.716 69.2845 122.458 66.5 122.458C63.7156 122.458 61.4584 124.716 61.4584 127.5C61.4584 130.284 63.7156 132.542 66.5 132.542Z" fill="#30BB3E"/>
</g>
<defs>
<filter id="filter0_d" x="0" y="0" width="279" height="184" filterUnits="userSpaceOnUse" color-interpolation-filters="sRGB">
<feFlood flood-opacity="0" result="BackgroundImageFix"/>
<feColorMatrix in="SourceAlpha" type="matrix" values="0 0 0 0 0 0 0 0 0 0 0 0 0 0 0 0 0 0 127 0"/>
<feOffset dy="4"/>
<feGaussianBlur stdDeviation="13.5"/>
<feColorMatrix type="matrix" values="0 0 0 0 0 0 0 0 0 0 0 0 0 0 0 0 0 0 0.05 0"/>
<feBlend mode="normal" in2="BackgroundImageFix" result="effect1_dropShadow"/>
<feBlend mode="normal" in="SourceGraphic" in2="effect1_dropShadow" result="shape"/>
</filter>
</defs>
</svg>
