<svg width="308" height="201" viewBox="0 0 308 201" fill="none" xmlns="http://www.w3.org/2000/svg">
<g filter="url(#filter0_d)">
<rect x="28.5" y="24.5" width="251" height="143.508" rx="6.5" fill="white" stroke="#9B36FF" stroke-width="3"/>
<path d="M71.1947 51.4187H73.1635V59.3952C73.1635 60.4838 72.8223 61.3483 72.14 61.989C71.4629 62.6296 70.5671 62.9499 69.4525 62.9499C68.265 62.9499 67.3483 62.6504 66.7025 62.0515C66.0567 61.4525 65.7338 60.6192 65.7338 59.5515H67.7025C67.7025 60.1556 67.851 60.6114 68.1478 60.9187C68.4499 61.2207 68.8848 61.3718 69.4525 61.3718C69.9838 61.3718 70.4056 61.1973 70.7181 60.8483C71.0358 60.4942 71.1947 60.0072 71.1947 59.3874V51.4187ZM80.2963 62.7937C80.2129 62.6322 80.14 62.3692 80.0775 62.0046C79.4733 62.6348 78.7338 62.9499 77.8588 62.9499C77.0098 62.9499 76.3171 62.7077 75.7806 62.2233C75.2442 61.739 74.976 61.14 74.976 60.4265C74.976 59.5254 75.3093 58.8353 75.976 58.3562C76.6478 57.8718 77.6062 57.6296 78.851 57.6296H80.015V57.0749C80.015 56.6374 79.8926 56.2884 79.6478 56.028C79.403 55.7624 79.0306 55.6296 78.5306 55.6296C78.0983 55.6296 77.7442 55.739 77.4681 55.9577C77.1921 56.1713 77.0541 56.4447 77.0541 56.778H75.1556C75.1556 56.3145 75.3093 55.8822 75.6166 55.4812C75.9239 55.0749 76.3405 54.7572 76.8666 54.528C77.3978 54.2989 77.989 54.1843 78.64 54.1843C79.6296 54.1843 80.4187 54.4343 81.0072 54.9343C81.5957 55.4291 81.8978 56.127 81.9135 57.028V60.8405C81.9135 61.6009 82.0202 62.2077 82.2338 62.6608V62.7937H80.2963ZM78.2103 61.4265C78.5853 61.4265 78.9369 61.3353 79.265 61.153C79.5983 60.9707 79.8483 60.7259 80.015 60.4187V58.8249H78.9916C78.2885 58.8249 77.7598 58.9473 77.4056 59.1921C77.0515 59.4369 76.8744 59.7832 76.8744 60.2312C76.8744 60.5957 76.9942 60.8874 77.2338 61.1062C77.4786 61.3197 77.8041 61.4265 78.2103 61.4265ZM87.3744 61.4343C87.8483 61.4343 88.2416 61.2963 88.5541 61.0202C88.8666 60.7442 89.0332 60.403 89.0541 59.9968H90.8431C90.8223 60.5228 90.6582 61.015 90.351 61.4733C90.0437 61.9265 89.627 62.2858 89.101 62.5515C88.5749 62.8171 88.0072 62.9499 87.3978 62.9499C86.2155 62.9499 85.278 62.5671 84.5853 61.8015C83.8926 61.0358 83.5463 59.9786 83.5463 58.6296V58.4343C83.5463 57.1478 83.89 56.1192 84.5775 55.3483C85.265 54.5723 86.2025 54.1843 87.39 54.1843C88.3952 54.1843 89.2129 54.4786 89.8431 55.0671C90.4786 55.6504 90.8119 56.4187 90.8431 57.3718H89.0541C89.0332 56.8874 88.8666 56.489 88.5541 56.1765C88.2468 55.864 87.8536 55.7077 87.3744 55.7077C86.7598 55.7077 86.2858 55.9317 85.9525 56.3796C85.6192 56.8223 85.4499 57.4968 85.4447 58.403V58.7077C85.4447 59.6244 85.6088 60.3093 85.9369 60.7624C86.2702 61.2103 86.7494 61.4343 87.3744 61.4343ZM91.9213 58.489C91.9213 57.6608 92.0853 56.9161 92.4135 56.2546C92.7416 55.5879 93.2025 55.0775 93.7963 54.7233C94.39 54.364 95.0723 54.1843 95.8431 54.1843C96.9838 54.1843 97.9082 54.5515 98.6166 55.2858C99.3301 56.0202 99.7155 56.9942 99.7728 58.2077L99.7806 58.653C99.7806 59.4864 99.6192 60.2312 99.2963 60.8874C98.9786 61.5437 98.5202 62.0515 97.9213 62.4108C97.3275 62.7702 96.64 62.9499 95.8588 62.9499C94.6661 62.9499 93.7103 62.5541 92.9916 61.7624C92.278 60.9655 91.9213 59.9056 91.9213 58.5827V58.489ZM93.8197 58.653C93.8197 59.5228 93.9994 60.2051 94.3588 60.6999C94.7181 61.1895 95.2181 61.4343 95.8588 61.4343C96.4994 61.4343 96.9968 61.1843 97.351 60.6843C97.7103 60.1843 97.89 59.4525 97.89 58.489C97.89 57.6348 97.7051 56.9577 97.3353 56.4577C96.9707 55.9577 96.4733 55.7077 95.8431 55.7077C95.2233 55.7077 94.7312 55.9551 94.3666 56.4499C94.002 56.9395 93.8197 57.6739 93.8197 58.653ZM108.804 58.653C108.804 59.9655 108.51 61.0098 107.921 61.7858C107.338 62.5619 106.533 62.9499 105.507 62.9499C104.518 62.9499 103.747 62.5931 103.195 61.8796L103.101 62.7937H101.382V50.7937H103.281V55.153C103.828 54.5072 104.564 54.1843 105.492 54.1843C106.523 54.1843 107.333 54.5671 107.921 55.3327C108.51 56.0983 108.804 57.1687 108.804 58.5437V58.653ZM106.906 58.489C106.906 57.5723 106.744 56.8848 106.421 56.4265C106.098 55.9681 105.63 55.739 105.015 55.739C104.192 55.739 103.614 56.0983 103.281 56.8171V60.3015C103.619 61.0358 104.203 61.403 105.031 61.403C105.624 61.403 106.083 61.1817 106.406 60.739C106.729 60.2963 106.895 59.627 106.906 58.7312V58.489ZM123.249 59.0905C123.135 60.3041 122.687 61.252 121.906 61.9343C121.124 62.6114 120.085 62.9499 118.788 62.9499C117.882 62.9499 117.083 62.7364 116.39 62.3093C115.703 61.877 115.171 61.265 114.796 60.4733C114.421 59.6817 114.226 58.7624 114.21 57.7155V56.653C114.21 55.5801 114.4 54.6348 114.781 53.8171C115.161 52.9994 115.705 52.3692 116.413 51.9265C117.127 51.4838 117.95 51.2624 118.882 51.2624C120.137 51.2624 121.148 51.6036 121.913 52.2858C122.679 52.9681 123.124 53.9317 123.249 55.1765H121.281C121.187 54.3588 120.947 53.7702 120.562 53.4108C120.182 53.0463 119.622 52.864 118.882 52.864C118.023 52.864 117.361 53.1791 116.898 53.8093C116.439 54.4343 116.205 55.3536 116.195 56.5671V57.5749C116.195 58.8041 116.413 59.7416 116.851 60.3874C117.294 61.0332 117.939 61.3562 118.788 61.3562C119.564 61.3562 120.148 61.1817 120.538 60.8327C120.929 60.4838 121.176 59.903 121.281 59.0905H123.249ZM124.484 58.489C124.484 57.6608 124.648 56.9161 124.976 56.2546C125.304 55.5879 125.765 55.0775 126.359 54.7233C126.953 54.364 127.635 54.1843 128.406 54.1843C129.546 54.1843 130.471 54.5515 131.179 55.2858C131.893 56.0202 132.278 56.9942 132.335 58.2077L132.343 58.653C132.343 59.4864 132.182 60.2312 131.859 60.8874C131.541 61.5437 131.083 62.0515 130.484 62.4108C129.89 62.7702 129.203 62.9499 128.421 62.9499C127.229 62.9499 126.273 62.5541 125.554 61.7624C124.841 60.9655 124.484 59.9056 124.484 58.5827V58.489ZM126.382 58.653C126.382 59.5228 126.562 60.2051 126.921 60.6999C127.281 61.1895 127.781 61.4343 128.421 61.4343C129.062 61.4343 129.559 61.1843 129.913 60.6843C130.273 60.1843 130.453 59.4525 130.453 58.489C130.453 57.6348 130.268 56.9577 129.898 56.4577C129.533 55.9577 129.036 55.7077 128.406 55.7077C127.786 55.7077 127.294 55.9551 126.929 56.4499C126.564 56.9395 126.382 57.6739 126.382 58.653ZM135.968 62.7937H134.07V50.7937H135.968V62.7937ZM140.062 62.7937H138.163V50.7937H140.062V62.7937ZM144.156 62.7937H142.257V54.3405H144.156V62.7937ZM142.14 52.1452C142.14 51.8536 142.231 51.6114 142.413 51.4187C142.601 51.2259 142.867 51.1296 143.21 51.1296C143.554 51.1296 143.82 51.2259 144.007 51.4187C144.195 51.6114 144.288 51.8536 144.288 52.1452C144.288 52.4317 144.195 52.6713 144.007 52.864C143.82 53.0515 143.554 53.1452 143.21 53.1452C142.867 53.1452 142.601 53.0515 142.413 52.864C142.231 52.6713 142.14 52.4317 142.14 52.1452ZM149.953 62.9499C148.749 62.9499 147.773 62.5723 147.023 61.8171C146.278 61.0567 145.906 60.0463 145.906 58.7858V58.5515C145.906 57.7077 146.067 56.9551 146.39 56.2937C146.718 55.627 147.176 55.1088 147.765 54.739C148.354 54.3692 149.01 54.1843 149.734 54.1843C150.885 54.1843 151.773 54.5515 152.398 55.2858C153.028 56.0202 153.343 57.0593 153.343 58.403V59.1687H147.82C147.877 59.8666 148.109 60.4187 148.515 60.8249C148.926 61.2312 149.442 61.4343 150.062 61.4343C150.932 61.4343 151.64 61.0827 152.187 60.3796L153.21 61.3562C152.872 61.8614 152.419 62.2546 151.851 62.5358C151.288 62.8119 150.656 62.9499 149.953 62.9499ZM149.726 55.7077C149.205 55.7077 148.783 55.89 148.46 56.2546C148.143 56.6192 147.939 57.127 147.851 57.778H151.468V57.6374C151.426 57.002 151.257 56.5228 150.96 56.1999C150.663 55.8718 150.252 55.7077 149.726 55.7077ZM159.249 56.0749C158.999 56.0332 158.742 56.0124 158.476 56.0124C157.606 56.0124 157.02 56.3457 156.718 57.0124V62.7937H154.82V54.3405H156.632L156.679 55.2858C157.137 54.5515 157.773 54.1843 158.585 54.1843C158.856 54.1843 159.08 54.2207 159.257 54.2937L159.249 56.0749Z" fill="#5F5F5F"/>
<rect x="64.9276" y="78.0862" width="119.529" height="30.6034" rx="15.3017" fill="#9B36FF"/>
<path d="M79.8264 96.2381H78.5959V89.1287H79.8264V96.2381ZM81.345 96.2381V89.1287H83.7815C84.5855 89.1287 85.1975 89.2899 85.6174 89.6121C86.0374 89.9344 86.2473 90.4145 86.2473 91.0526C86.2473 91.3781 86.1594 91.671 85.9836 91.9315C85.8079 92.1919 85.5507 92.3937 85.2122 92.5369C85.5963 92.6411 85.8925 92.838 86.1008 93.1278C86.3124 93.4142 86.4182 93.7593 86.4182 94.1629C86.4182 94.8302 86.2034 95.3429 85.7737 95.701C85.3472 96.0591 84.7353 96.2381 83.9377 96.2381H81.345ZM82.5803 93.0301V95.2518H83.9524C84.3398 95.2518 84.6425 95.1557 84.8606 94.9637C85.0787 94.7716 85.1877 94.5047 85.1877 94.1629C85.1877 93.424 84.8101 93.0464 84.0549 93.0301H82.5803ZM82.5803 92.1219H83.7913C84.1754 92.1219 84.4749 92.0356 84.6897 91.8631C84.9078 91.6873 85.0168 91.4399 85.0168 91.1209C85.0168 90.7694 84.9159 90.5154 84.7141 90.3592C84.5155 90.2029 84.2047 90.1248 83.7815 90.1248H82.5803V92.1219ZM95.5686 93.9236C95.497 94.6821 95.217 95.2746 94.7288 95.701C94.2405 96.1242 93.5911 96.3358 92.7805 96.3358C92.2141 96.3358 91.7144 96.2023 91.2815 95.9354C90.8518 95.6652 90.5198 95.2827 90.2854 94.7879C90.051 94.2931 89.929 93.7186 89.9192 93.0643V92.4002C89.9192 91.7296 90.038 91.1388 90.2756 90.6278C90.5133 90.1167 90.8534 89.7228 91.2961 89.4461C91.7421 89.1694 92.2564 89.0311 92.8391 89.0311C93.6236 89.0311 94.2551 89.2443 94.7336 89.6707C95.2122 90.0972 95.4905 90.6994 95.5686 91.4774H94.3381C94.2795 90.9663 94.1298 90.5985 93.8889 90.3738C93.6513 90.146 93.3014 90.032 92.8391 90.032C92.302 90.032 91.8886 90.229 91.5989 90.6229C91.3124 91.0135 91.1659 91.588 91.1594 92.3465V92.9764C91.1594 93.7446 91.2961 94.3305 91.5696 94.7342C91.8463 95.1378 92.2499 95.3397 92.7805 95.3397C93.2655 95.3397 93.6301 95.2306 93.8743 95.0125C94.1184 94.7944 94.273 94.4315 94.3381 93.9236H95.5686ZM96.3401 93.5477C96.3401 93.0301 96.4426 92.5646 96.6477 92.1512C96.8528 91.7345 97.1409 91.4155 97.512 91.1942C97.8831 90.9695 98.3095 90.8572 98.7913 90.8572C99.5042 90.8572 100.082 91.0867 100.525 91.5457C100.971 92.0047 101.212 92.6134 101.247 93.3719L101.252 93.6502C101.252 94.171 101.151 94.6365 100.949 95.0467C100.751 95.4569 100.464 95.7742 100.09 95.9988C99.719 96.2235 99.2893 96.3358 98.801 96.3358C98.0556 96.3358 97.4583 96.0884 97.009 95.5936C96.5631 95.0955 96.3401 94.4331 96.3401 93.6063V93.5477ZM97.5266 93.6502C97.5266 94.1938 97.6389 94.6203 97.8635 94.9295C98.0881 95.2355 98.4006 95.3885 98.801 95.3885C99.2014 95.3885 99.5123 95.2322 99.7336 94.9197C99.9583 94.6072 100.071 94.1499 100.071 93.5477C100.071 93.0138 99.955 92.5906 99.7239 92.2781C99.496 91.9656 99.1851 91.8094 98.7913 91.8094C98.4039 91.8094 98.0963 91.964 97.8684 92.2733C97.6405 92.5792 97.5266 93.0382 97.5266 93.6502ZM102.033 93.5477C102.033 93.0301 102.136 92.5646 102.341 92.1512C102.546 91.7345 102.834 91.4155 103.205 91.1942C103.576 90.9695 104.003 90.8572 104.485 90.8572C105.198 90.8572 105.775 91.0867 106.218 91.5457C106.664 92.0047 106.905 92.6134 106.941 93.3719L106.946 93.6502C106.946 94.171 106.845 94.6365 106.643 95.0467C106.444 95.4569 106.158 95.7742 105.783 95.9988C105.412 96.2235 104.983 96.3358 104.494 96.3358C103.749 96.3358 103.152 96.0884 102.702 95.5936C102.256 95.0955 102.033 94.4331 102.033 93.6063V93.5477ZM103.22 93.6502C103.22 94.1938 103.332 94.6203 103.557 94.9295C103.781 95.2355 104.094 95.3885 104.494 95.3885C104.895 95.3885 105.206 95.2322 105.427 94.9197C105.652 94.6072 105.764 94.1499 105.764 93.5477C105.764 93.0138 105.648 92.5906 105.417 92.2781C105.189 91.9656 104.878 91.8094 104.485 91.8094C104.097 91.8094 103.79 91.964 103.562 92.2733C103.334 92.5792 103.22 93.0382 103.22 93.6502ZM110.715 92.0389C110.559 92.0128 110.398 91.9998 110.232 91.9998C109.688 91.9998 109.322 92.2082 109.133 92.6248V96.2381H107.947V90.9549H109.079L109.109 91.5457C109.395 91.0867 109.792 90.8572 110.3 90.8572C110.469 90.8572 110.609 90.88 110.72 90.9256L110.715 92.0389ZM111.145 93.5574C111.145 92.7436 111.334 92.091 111.711 91.5994C112.089 91.1046 112.595 90.8572 113.23 90.8572C113.79 90.8572 114.242 91.0526 114.587 91.4432V88.7381H115.774V96.2381H114.699L114.641 95.6912C114.286 96.1209 113.812 96.3358 113.22 96.3358C112.601 96.3358 112.1 96.0867 111.716 95.5887C111.335 95.0906 111.145 94.4136 111.145 93.5574ZM112.331 93.66C112.331 94.1971 112.434 94.617 112.639 94.9197C112.847 95.2192 113.142 95.369 113.523 95.369C114.008 95.369 114.363 95.1525 114.587 94.7195V92.4637C114.369 92.0405 114.017 91.8289 113.532 91.8289C113.148 91.8289 112.852 91.9819 112.644 92.2879C112.435 92.5906 112.331 93.048 112.331 93.66ZM118.274 96.2381H117.087V90.9549H118.274V96.2381ZM117.014 89.5828C117.014 89.4005 117.071 89.2492 117.185 89.1287C117.302 89.0083 117.468 88.9481 117.683 88.9481C117.898 88.9481 118.064 89.0083 118.181 89.1287C118.298 89.2492 118.357 89.4005 118.357 89.5828C118.357 89.7619 118.298 89.9116 118.181 90.032C118.064 90.1492 117.898 90.2078 117.683 90.2078C117.468 90.2078 117.302 90.1492 117.185 90.032C117.071 89.9116 117.014 89.7619 117.014 89.5828ZM120.671 90.9549L120.705 91.5653C121.096 91.0932 121.609 90.8572 122.243 90.8572C123.344 90.8572 123.904 91.4871 123.923 92.7469V96.2381H122.737V92.8153C122.737 92.48 122.663 92.2326 122.517 92.0731C122.374 91.9103 122.138 91.8289 121.809 91.8289C121.33 91.8289 120.974 92.0454 120.74 92.4783V96.2381H119.553V90.9549H120.671ZM128.293 96.2381C128.241 96.1372 128.196 95.9728 128.156 95.7449C127.779 96.1388 127.317 96.3358 126.77 96.3358C126.239 96.3358 125.806 96.1844 125.471 95.8817C125.136 95.5789 124.968 95.2046 124.968 94.7586C124.968 94.1955 125.176 93.7641 125.593 93.4647C126.013 93.1619 126.612 93.0106 127.39 93.0106H128.117V92.6639C128.117 92.3904 128.041 92.1723 127.888 92.0096C127.735 91.8436 127.502 91.7606 127.19 91.7606C126.92 91.7606 126.698 91.8289 126.526 91.9656C126.353 92.0991 126.267 92.27 126.267 92.4783H125.08C125.08 92.1886 125.176 91.9184 125.368 91.6678C125.56 91.4139 125.821 91.2153 126.15 91.0721C126.482 90.9289 126.851 90.8572 127.258 90.8572C127.877 90.8572 128.37 91.0135 128.738 91.326C129.105 91.6352 129.294 92.0714 129.304 92.6346V95.0174C129.304 95.4927 129.371 95.8719 129.504 96.1551V96.2381H128.293ZM126.99 95.3836C127.224 95.3836 127.444 95.3266 127.649 95.2127C127.857 95.0988 128.013 94.9458 128.117 94.7537V93.7576H127.478C127.038 93.7576 126.708 93.8341 126.487 93.9871C126.265 94.1401 126.155 94.3566 126.155 94.6365C126.155 94.8644 126.229 95.0467 126.379 95.1834C126.532 95.3169 126.736 95.3836 126.99 95.3836ZM132.033 89.6707V90.9549H132.966V91.8338H132.033V94.783C132.033 94.9848 132.073 95.1313 132.151 95.2225C132.232 95.3104 132.375 95.3543 132.58 95.3543C132.717 95.3543 132.855 95.338 132.995 95.3055V96.2235C132.725 96.2983 132.465 96.3358 132.214 96.3358C131.303 96.3358 130.847 95.8328 130.847 94.827V91.8338H129.978V90.9549H130.847V89.6707H132.033ZM133.508 93.5477C133.508 93.0301 133.611 92.5646 133.816 92.1512C134.021 91.7345 134.309 91.4155 134.68 91.1942C135.051 90.9695 135.477 90.8572 135.959 90.8572C136.672 90.8572 137.25 91.0867 137.693 91.5457C138.139 92.0047 138.379 92.6134 138.415 93.3719L138.42 93.6502C138.42 94.171 138.319 94.6365 138.117 95.0467C137.919 95.4569 137.632 95.7742 137.258 95.9988C136.887 96.2235 136.457 96.3358 135.969 96.3358C135.224 96.3358 134.626 96.0884 134.177 95.5936C133.731 95.0955 133.508 94.4331 133.508 93.6063V93.5477ZM134.695 93.6502C134.695 94.1938 134.807 94.6203 135.031 94.9295C135.256 95.2355 135.569 95.3885 135.969 95.3885C136.369 95.3885 136.68 95.2322 136.902 94.9197C137.126 94.6072 137.239 94.1499 137.239 93.5477C137.239 93.0138 137.123 92.5906 136.892 92.2781C136.664 91.9656 136.353 91.8094 135.959 91.8094C135.572 91.8094 135.264 91.964 135.036 92.2733C134.809 92.5792 134.695 93.0382 134.695 93.6502ZM142.19 92.0389C142.033 92.0128 141.872 91.9998 141.706 91.9998C141.163 91.9998 140.796 92.2082 140.608 92.6248V96.2381H139.421V90.9549H140.554L140.583 91.5457C140.87 91.0867 141.267 90.8572 141.775 90.8572C141.944 90.8572 142.084 90.88 142.195 90.9256L142.19 92.0389Z" fill="white"/>
<path d="M81.7451 132H80.5635V126.292L78.8203 126.888V125.887L81.5938 124.866H81.7451V132ZM88.9961 132H84.2158V131.185L86.584 128.602C86.9258 128.221 87.1683 127.903 87.3115 127.649C87.458 127.392 87.5312 127.135 87.5312 126.878C87.5312 126.539 87.4352 126.266 87.2432 126.058C87.0544 125.849 86.7988 125.745 86.4766 125.745C86.0924 125.745 85.7946 125.862 85.583 126.097C85.3714 126.331 85.2656 126.652 85.2656 127.059H84.0791C84.0791 126.626 84.1768 126.237 84.3721 125.892C84.5706 125.543 84.8522 125.273 85.2168 125.081C85.5846 124.889 86.0078 124.793 86.4863 124.793C87.1764 124.793 87.7201 124.967 88.1172 125.315C88.5176 125.66 88.7178 126.139 88.7178 126.751C88.7178 127.106 88.6169 127.479 88.415 127.869C88.2165 128.257 87.8893 128.698 87.4336 129.192L85.6953 131.053H88.9961V132ZM95.4902 124.891H96.7207V129.876C96.7207 130.556 96.5075 131.097 96.0811 131.497C95.6579 131.897 95.098 132.098 94.4014 132.098C93.6592 132.098 93.0863 131.91 92.6826 131.536C92.279 131.162 92.0771 130.641 92.0771 129.974H93.3076C93.3076 130.351 93.4004 130.636 93.5859 130.828C93.7747 131.017 94.0465 131.111 94.4014 131.111C94.7334 131.111 94.9971 131.002 95.1924 130.784C95.391 130.563 95.4902 130.258 95.4902 129.871V124.891ZM101.223 131.482C100.874 131.893 100.38 132.098 99.7383 132.098C99.1654 132.098 98.7308 131.93 98.4346 131.595C98.1416 131.259 97.9951 130.774 97.9951 130.14V126.717H99.1816V130.125C99.1816 130.796 99.46 131.131 100.017 131.131C100.593 131.131 100.982 130.924 101.184 130.511V126.717H102.37V132H101.252L101.223 131.482ZM104.841 132H103.654V124.5H104.841V132ZM107.985 130.301L109.06 126.717H110.324L108.225 132.801C107.902 133.689 107.355 134.134 106.584 134.134C106.411 134.134 106.221 134.104 106.013 134.046V133.128L106.237 133.143C106.537 133.143 106.761 133.087 106.911 132.977C107.064 132.869 107.185 132.687 107.272 132.43L107.443 131.976L105.588 126.717H106.867L107.985 130.301ZM118.205 132H113.425V131.185L115.793 128.602C116.135 128.221 116.377 127.903 116.521 127.649C116.667 127.392 116.74 127.135 116.74 126.878C116.74 126.539 116.644 126.266 116.452 126.058C116.263 125.849 116.008 125.745 115.686 125.745C115.301 125.745 115.004 125.862 114.792 126.097C114.58 126.331 114.475 126.652 114.475 127.059H113.288C113.288 126.626 113.386 126.237 113.581 125.892C113.78 125.543 114.061 125.273 114.426 125.081C114.794 124.889 115.217 124.793 115.695 124.793C116.385 124.793 116.929 124.967 117.326 125.315C117.727 125.66 117.927 126.139 117.927 126.751C117.927 127.106 117.826 127.479 117.624 127.869C117.425 128.257 117.098 128.698 116.643 129.192L114.904 131.053H118.205V132ZM123.742 129.007C123.742 130.029 123.55 130.8 123.166 131.321C122.785 131.839 122.204 132.098 121.423 132.098C120.655 132.098 120.075 131.845 119.685 131.341C119.297 130.833 119.099 130.083 119.089 129.09V127.859C119.089 126.837 119.279 126.071 119.66 125.56C120.044 125.049 120.629 124.793 121.413 124.793C122.191 124.793 122.771 125.042 123.151 125.54C123.535 126.038 123.732 126.784 123.742 127.776V129.007ZM122.556 127.679C122.556 127.011 122.465 126.523 122.282 126.214C122.1 125.901 121.81 125.745 121.413 125.745C121.026 125.745 120.741 125.893 120.559 126.189C120.376 126.482 120.28 126.941 120.271 127.566V129.178C120.271 129.842 120.363 130.337 120.549 130.662C120.734 130.988 121.026 131.15 121.423 131.15C121.804 131.15 122.085 131.001 122.268 130.701C122.45 130.398 122.546 129.926 122.556 129.285V127.679ZM129.572 132H124.792V131.185L127.16 128.602C127.502 128.221 127.744 127.903 127.888 127.649C128.034 127.392 128.107 127.135 128.107 126.878C128.107 126.539 128.011 126.266 127.819 126.058C127.631 125.849 127.375 125.745 127.053 125.745C126.669 125.745 126.371 125.862 126.159 126.097C125.948 126.331 125.842 126.652 125.842 127.059H124.655C124.655 126.626 124.753 126.237 124.948 125.892C125.147 125.543 125.428 125.273 125.793 125.081C126.161 124.889 126.584 124.793 127.062 124.793C127.753 124.793 128.296 124.967 128.693 125.315C129.094 125.66 129.294 126.139 129.294 126.751C129.294 127.106 129.193 127.479 128.991 127.869C128.793 128.257 128.465 128.698 128.01 129.192L126.271 131.053H129.572V132ZM133.688 132H132.507V126.292L130.764 126.888V125.887L133.537 124.866H133.688V132ZM136.403 133.602L135.764 133.221C135.952 132.924 136.081 132.666 136.149 132.444C136.221 132.226 136.258 132.003 136.262 131.775V130.853H137.331L137.326 131.707C137.323 132.052 137.235 132.397 137.062 132.742C136.893 133.09 136.674 133.377 136.403 133.602ZM144.06 132H142.878V126.292L141.135 126.888V125.887L143.908 124.866H144.06V132ZM151.311 132H146.53V131.185L148.898 128.602C149.24 128.221 149.483 127.903 149.626 127.649C149.772 127.392 149.846 127.135 149.846 126.878C149.846 126.539 149.75 126.266 149.558 126.058C149.369 125.849 149.113 125.745 148.791 125.745C148.407 125.745 148.109 125.862 147.897 126.097C147.686 126.331 147.58 126.652 147.58 127.059H146.394C146.394 126.626 146.491 126.237 146.687 125.892C146.885 125.543 147.167 125.273 147.531 125.081C147.899 124.889 148.322 124.793 148.801 124.793C149.491 124.793 150.035 124.967 150.432 125.315C150.832 125.66 151.032 126.139 151.032 126.751C151.032 127.106 150.931 127.479 150.729 127.869C150.531 128.257 150.204 128.698 149.748 129.192L148.01 131.053H151.311V132ZM153.005 130.75C153.226 130.75 153.397 130.813 153.518 130.94C153.638 131.064 153.698 131.22 153.698 131.409C153.698 131.595 153.638 131.749 153.518 131.873C153.397 131.993 153.226 132.054 153.005 132.054C152.793 132.054 152.626 131.993 152.502 131.873C152.378 131.753 152.316 131.598 152.316 131.409C152.316 131.22 152.377 131.064 152.497 130.94C152.618 130.813 152.787 130.75 153.005 130.75ZM153.005 126.604C153.226 126.604 153.397 126.668 153.518 126.795C153.638 126.919 153.698 127.075 153.698 127.264C153.698 127.449 153.638 127.604 153.518 127.728C153.397 127.848 153.226 127.908 153.005 127.908C152.793 127.908 152.626 127.848 152.502 127.728C152.378 127.607 152.316 127.452 152.316 127.264C152.316 127.075 152.377 126.919 152.497 126.795C152.618 126.668 152.787 126.604 153.005 126.604ZM156.242 127.903H156.965C157.329 127.9 157.618 127.806 157.829 127.62C158.044 127.435 158.151 127.166 158.151 126.814C158.151 126.476 158.062 126.214 157.883 126.028C157.707 125.84 157.437 125.745 157.072 125.745C156.753 125.745 156.491 125.838 156.286 126.023C156.081 126.206 155.979 126.445 155.979 126.741H154.792C154.792 126.377 154.888 126.045 155.08 125.745C155.275 125.446 155.546 125.213 155.891 125.047C156.239 124.878 156.628 124.793 157.058 124.793C157.767 124.793 158.324 124.972 158.728 125.33C159.134 125.685 159.338 126.18 159.338 126.814C159.338 127.133 159.235 127.435 159.03 127.718C158.828 127.998 158.566 128.209 158.244 128.353C158.635 128.486 158.931 128.696 159.133 128.982C159.338 129.269 159.44 129.611 159.44 130.008C159.44 130.646 159.221 131.154 158.781 131.531C158.345 131.909 157.771 132.098 157.058 132.098C156.374 132.098 155.814 131.915 155.378 131.551C154.942 131.186 154.724 130.701 154.724 130.096H155.91C155.91 130.408 156.014 130.662 156.223 130.857C156.434 131.053 156.717 131.15 157.072 131.15C157.44 131.15 157.73 131.053 157.941 130.857C158.153 130.662 158.259 130.379 158.259 130.008C158.259 129.633 158.148 129.345 157.927 129.144C157.705 128.942 157.377 128.841 156.94 128.841H156.242V127.903ZM165.188 129.007C165.188 130.029 164.995 130.8 164.611 131.321C164.23 131.839 163.649 132.098 162.868 132.098C162.1 132.098 161.521 131.845 161.13 131.341C160.743 130.833 160.544 130.083 160.534 129.09V127.859C160.534 126.837 160.725 126.071 161.105 125.56C161.49 125.049 162.074 124.793 162.858 124.793C163.636 124.793 164.216 125.042 164.597 125.54C164.981 126.038 165.178 126.784 165.188 127.776V129.007ZM164.001 127.679C164.001 127.011 163.91 126.523 163.728 126.214C163.545 125.901 163.256 125.745 162.858 125.745C162.471 125.745 162.186 125.893 162.004 126.189C161.822 126.482 161.726 126.941 161.716 127.566V129.178C161.716 129.842 161.809 130.337 161.994 130.662C162.18 130.988 162.471 131.15 162.868 131.15C163.249 131.15 163.531 131.001 163.713 130.701C163.895 130.398 163.991 129.926 164.001 129.285V127.679Z" fill="#9B36FF"/>
<path d="M66.5 132.542C69.2845 132.542 71.5417 130.284 71.5417 127.5C71.5417 124.716 69.2845 122.458 66.5 122.458C63.7156 122.458 61.4584 124.716 61.4584 127.5C61.4584 130.284 63.7156 132.542 66.5 132.542Z" fill="#9B36FF"/>
</g>
<defs>
<filter id="filter0_d" x="0" y="0" width="308" height="200.508" filterUnits="userSpaceOnUse" color-interpolation-filters="sRGB">
<feFlood flood-opacity="0" result="BackgroundImageFix"/>
<feColorMatrix in="SourceAlpha" type="matrix" values="0 0 0 0 0 0 0 0 0 0 0 0 0 0 0 0 0 0 127 0"/>
<feOffset dy="4"/>
<feGaussianBlur stdDeviation="13.5"/>
<feColorMatrix type="matrix" values="0 0 0 0 0 0 0 0 0 0 0 0 0 0 0 0 0 0 0.1 0"/>
<feBlend mode="normal" in2="BackgroundImageFix" result="effect1_dropShadow"/>
<feBlend mode="normal" in="SourceGraphic" in2="effect1_dropShadow" result="shape"/>
</filter>
</defs>
</svg>
