<svg width="27" height="27" viewBox="0 0 27 27" fill="none" xmlns="http://www.w3.org/2000/svg">
<g clip-path="url(#clip0)">
<path d="M15.6819 0H6.75C5.85489 0 4.99645 0.355579 4.36351 0.988515C3.73058 1.62145 3.375 2.47989 3.375 3.375V23.625C3.375 24.5201 3.73058 25.3785 4.36351 26.0115C4.99645 26.6444 5.85489 27 6.75 27H20.25C21.1451 27 22.0035 26.6444 22.6365 26.0115C23.2694 25.3785 23.625 24.5201 23.625 23.625V7.94306C23.6249 7.49555 23.4471 7.06639 23.1306 6.75L16.875 0.494438C16.5586 0.177948 16.1295 9.55756e-05 15.6819 0V0ZM16.0312 5.90625V2.53125L21.0938 7.59375H17.7188C17.2712 7.59375 16.842 7.41596 16.5255 7.09949C16.209 6.78302 16.0312 6.3538 16.0312 5.90625ZM18.5625 13.5C18.5625 14.8427 18.0291 16.1303 17.0797 17.0797C16.1303 18.0291 14.8427 18.5625 13.5 18.5625C12.1573 18.5625 10.8697 18.0291 9.92027 17.0797C8.97087 16.1303 8.4375 14.8427 8.4375 13.5C8.4375 12.1573 8.97087 10.8697 9.92027 9.92027C10.8697 8.97087 12.1573 8.4375 13.5 8.4375C14.8427 8.4375 16.1303 8.97087 17.0797 9.92027C18.0291 10.8697 18.5625 12.1573 18.5625 13.5V13.5ZM21.9375 23.2116V23.625C21.9375 24.0726 21.7597 24.5018 21.4432 24.8182C21.1268 25.1347 20.6976 25.3125 20.25 25.3125H6.75C6.30245 25.3125 5.87322 25.1347 5.55676 24.8182C5.24029 24.5018 5.0625 24.0726 5.0625 23.625V23.2116C5.0625 23.2116 6.75 20.25 13.5 20.25C20.25 20.25 21.9375 23.2116 21.9375 23.2116Z" fill="#7C7C7C"/>
</g>
<defs>
<clipPath id="clip0">
<rect width="27" height="27" fill="white"/>
</clipPath>
</defs>
</svg>
