<svg width="43" height="42" viewBox="0 0 43 42" fill="none" xmlns="http://www.w3.org/2000/svg">
<path d="M21.5 1C10.2239 1 1.08334 9.954 1.08334 21C1.08334 32.046 10.2239 41 21.5 41C32.7761 41 41.9167 32.046 41.9167 21C41.9167 9.954 32.7761 1 21.5 1Z" stroke="#959595" stroke-width="1.5" stroke-linecap="round" stroke-linejoin="round"/>
<path d="M5.71997 33.692C5.71997 33.692 10.2708 28 21.5 28C32.7292 28 37.2821 33.692 37.2821 33.692" stroke="#959595" stroke-width="1.5" stroke-linecap="round" stroke-linejoin="round"/>
<path d="M21.5 21C23.1245 21 24.6824 20.3679 25.831 19.2426C26.9797 18.1174 27.625 16.5913 27.625 15C27.625 13.4087 26.9797 11.8826 25.831 10.7574C24.6824 9.63214 23.1245 9 21.5 9C19.8755 9 18.3176 9.63214 17.169 10.7574C16.0203 11.8826 15.375 13.4087 15.375 15C15.375 16.5913 16.0203 18.1174 17.169 19.2426C18.3176 20.3679 19.8755 21 21.5 21V21Z" stroke="#959595" stroke-width="1.5" stroke-linecap="round" stroke-linejoin="round"/>
</svg>
