<svg id="Layer_4" data-name="Layer 4" xmlns="http://www.w3.org/2000/svg" viewBox="0 0 137.41 169.66"><defs><style>.cls-1{fill:#ffb775;}.cls-2{fill:#ff9a3d;}</style></defs><path class="cls-1" d="M101,12.82c2,14.1,4.32,28.19,10,41.36a74.46,74.46,0,0,0,10.93,17.9c3.89,4.73,8.68,9,10.34,15.09l5.24-9.23q-11,4-21.9,8.14c-3.69,1.41-8.09,2.58-11.47,4.68-7.53,4.68-6.33,14.75-7.1,22.45-.92,9.17-1.87,18.39-3.4,27.48-.61,3.66-.91,5.13-4.57,6-4,1-8.31,1-12.38,1.16A164.05,164.05,0,0,1,49,146.79c-3.71-.47-4.08-.6-5-4.25-1.14-4.67-2-9.42-2.91-14.14-1.8-9.6-3.32-19.26-4.47-29q-.91-7.79-1.57-15.59c-.2-2.48,0-5.39-.58-7.81-.35-1.39.73-1.91-.59-.65a13.48,13.48,0,0,1,2.64-1.51q6.81-3.8,13.86-7.13,3.32-1.58,6.68-3c.81-.36,1.61-.71,2.43-1,.39-.16,3.78-1.2,3-1.5L58,57.69c-.53-.7,0-1.42,0,.21,0,.91,0,1.82,0,2.73q.07,3.65.12,7.29.2,12.19.33,24.41c.12,9.65,15.12,9.67,15,0q-.18-15.42-.43-30.85c0-2.66.14-5.59-.57-8.17-1.74-6.3-7.87-8.25-13.62-6.52-6,1.82-12.09,5.05-17.74,7.79-5.29,2.56-11,5.11-15.85,8.54-5.57,4-6.1,9.43-5.64,15.84q.75,10.26,1.95,20.47c1.61,13.63,3.76,27.2,6.53,40.64,1.14,5.57,2,12,6.13,16.32s9.83,4.85,15.63,5.52c13.26,1.52,27.1,1.79,40.32-.24,4.9-.75,9.66-2.52,13.1-6.23,4.59-5,4.92-11.9,5.79-18.25q1.5-11,2.66-22.06c.4-3.82.83-7.66,1.09-11.5.18-2.7.42-2.06-1.22.08.18-.24,2.43-1.17.07-.11,9.62-4.3,19.83-7.58,29.72-11.19,3.81-1.4,6.38-5,5.24-9.23C143.09,70,130.87,61.73,125.19,49.54c-5.89-12.66-7.78-27-9.77-40.7-.57-4-5.67-6.24-9.22-5.24-4.3,1.2-5.82,5.18-5.24,9.22Z" transform="translate(-19.54 -3.36)"/><path class="cls-2" d="M111,22.82c2,14.1,4.32,28.19,10,41.36a74.14,74.14,0,0,0,10.93,17.9c3.89,4.73,8.68,9,10.34,15.09l5.24-9.23c-7.86,2.87-15.72,5.77-23.54,8.76-4.42,1.7-9.88,3.06-13,6.83-2.9,3.5-2.83,7.71-3.21,12q-.67,7.67-1.53,15.32c-.58,5.07-1.2,10.14-1.91,15.19-.49,3.52-.08,8.83-3.91,10.28-3.61,1.36-8,1.23-11.81,1.43q-8.12.43-16.24.1A131.52,131.52,0,0,1,58,156.68c-1.48-.23-2.31-.09-3.14-1.11-1.11-1.33-1.32-5-1.66-6.61A455.32,455.32,0,0,1,44.54,87a14.15,14.15,0,0,0-.17-2.26c.05-1-.19-.78-.72.68l.72-.4A9.25,9.25,0,0,0,47,83.75c1.92-1,3.77-2.14,5.65-3.2q4-2.26,8.13-4.23c1.79-.85,3.59-1.66,5.42-2.43,1.06-.44,2.12-.86,3.19-1.28.65-.26,4.15-1.13,3.12-1.47L68,67.69c-.53-.7,0-1.42,0,.21,0,.91,0,1.82,0,2.73q.08,3.65.12,7.29.19,12.19.33,24.41c.12,9.65,15.12,9.67,15,0q-.18-16.24-.46-32.49C83,66.42,83,63.05,81,60.12c-4.43-6.19-11.36-3.68-17.22-1.33A203.37,203.37,0,0,0,40.86,70c-2.77,1.54-5.7,2.66-7.92,5-4.47,4.75-3.51,11-3,16.86,1.18,15,3.09,29.92,5.68,44.72,1.17,6.66,2.36,13.35,4,19.92,1.47,6.06,4.61,11.63,10.78,13.77,5.83,2,13,2.07,19.12,2.43a170.36,170.36,0,0,0,22.93-.21c5.53-.43,11.32-.81,16.3-3.48,5.93-3.18,8.49-8.83,9.52-15.18,1.33-8.25,2.29-16.6,3.2-24.9q.63-5.75,1.15-11.49c0-.41.35-5.74.49-5.76a1.73,1.73,0,0,1-.72,1.16q-1.36,1.41.09.45c0-.24-1.29.55-.14.06.93-.39,1.88-.75,2.82-1.12,2.07-.81,4.15-1.6,6.22-2.38q10.05-3.81,20.15-7.47c3.81-1.4,6.38-5,5.24-9.23C153.09,80,140.87,71.73,135.19,59.54c-5.89-12.66-7.78-27-9.77-40.7-.57-4-5.67-6.24-9.22-5.24-4.3,1.2-5.82,5.18-5.24,9.22Z" transform="translate(-19.54 -3.36)"/></svg>