<svg width="20" height="20" viewBox="0 0 20 20" fill="none" xmlns="http://www.w3.org/2000/svg">
<path d="M10.001 7.8C9.71201 7.8 9.4258 7.85693 9.15876 7.96754C8.89172 8.07815 8.64909 8.24028 8.44471 8.44466C8.24032 8.64904 8.0782 8.89168 7.96759 9.15872C7.85698 9.42575 7.80005 9.71196 7.80005 10.001C7.80005 10.29 7.85698 10.5763 7.96759 10.8433C8.0782 11.1103 8.24032 11.353 8.44471 11.5573C8.64909 11.7617 8.89172 11.9239 9.15876 12.0345C9.4258 12.1451 9.71201 12.202 10.001 12.202C10.5848 12.2019 11.1446 11.9699 11.5572 11.557C11.9699 11.1441 12.2017 10.5842 12.2015 10.0005C12.2014 9.41676 11.9694 8.85698 11.5565 8.44431C11.1437 8.03163 10.5838 7.79987 10 7.8H10.001ZM3.00105 7.8C2.71201 7.8 2.4258 7.85693 2.15876 7.96754C1.89173 8.07815 1.64909 8.24028 1.44471 8.44466C1.24033 8.64904 1.0782 8.89168 0.96759 9.15872C0.856979 9.42575 0.800049 9.71196 0.800049 10.001C0.800049 10.29 0.856979 10.5763 0.96759 10.8433C1.0782 11.1103 1.24033 11.353 1.44471 11.5573C1.64909 11.7617 1.89173 11.9239 2.15876 12.0345C2.4258 12.1451 2.71201 12.202 3.00105 12.202C3.58479 12.2019 4.14457 11.9699 4.55724 11.557C4.96992 11.1441 5.20168 10.5842 5.20155 10.0005C5.20142 9.41676 4.9694 8.85698 4.55654 8.44431C4.14368 8.03163 3.58379 7.79987 3.00005 7.8H3.00105ZM17.001 7.8C16.712 7.8 16.4258 7.85693 16.1588 7.96754C15.8917 8.07815 15.6491 8.24028 15.4447 8.44466C15.2403 8.64904 15.0782 8.89168 14.9676 9.15872C14.857 9.42575 14.8 9.71196 14.8 10.001C14.8 10.29 14.857 10.5763 14.9676 10.8433C15.0782 11.1103 15.2403 11.353 15.4447 11.5573C15.6491 11.7617 15.8917 11.9239 16.1588 12.0345C16.4258 12.1451 16.712 12.202 17.001 12.202C17.5848 12.2019 18.1446 11.9699 18.5572 11.557C18.9699 11.1441 19.2017 10.5842 19.2015 10.0005C19.2014 9.41676 18.9694 8.85698 18.5565 8.44431C18.1437 8.03163 17.5838 7.79987 17 7.8H17.001Z" fill="#8D8C8E"/>
</svg>
