<svg width="21" height="21" viewBox="0 0 21 21" fill="none" xmlns="http://www.w3.org/2000/svg">
<g clip-path="url(#clip0)">
<path d="M12.1971 0H5.25C4.55381 0 3.88613 0.276562 3.39384 0.768845C2.90156 1.26113 2.625 1.92881 2.625 2.625V18.375C2.625 19.0712 2.90156 19.7389 3.39384 20.2312C3.88613 20.7234 4.55381 21 5.25 21H15.75C16.4462 21 17.1139 20.7234 17.6062 20.2312C18.0984 19.7389 18.375 19.0712 18.375 18.375V6.17794C18.3749 5.82987 18.2366 5.49608 17.9904 5.25L13.125 0.384563C12.8789 0.138404 12.5451 7.43366e-05 12.1971 0V0ZM12.4688 4.59375V1.96875L16.4062 5.90625H13.7812C13.4332 5.90625 13.0993 5.76797 12.8532 5.52183C12.607 5.27569 12.4688 4.94185 12.4688 4.59375ZM5.90625 11.8125C5.7322 11.8125 5.56528 11.7434 5.44221 11.6203C5.31914 11.4972 5.25 11.3303 5.25 11.1562C5.25 10.9822 5.31914 10.8153 5.44221 10.6922C5.56528 10.5691 5.7322 10.5 5.90625 10.5H15.0938C15.2678 10.5 15.4347 10.5691 15.5578 10.6922C15.6809 10.8153 15.75 10.9822 15.75 11.1562C15.75 11.3303 15.6809 11.4972 15.5578 11.6203C15.4347 11.7434 15.2678 11.8125 15.0938 11.8125H5.90625ZM5.25 13.7812C5.25 13.6072 5.31914 13.4403 5.44221 13.3172C5.56528 13.1941 5.7322 13.125 5.90625 13.125H15.0938C15.2678 13.125 15.4347 13.1941 15.5578 13.3172C15.6809 13.4403 15.75 13.6072 15.75 13.7812C15.75 13.9553 15.6809 14.1222 15.5578 14.2453C15.4347 14.3684 15.2678 14.4375 15.0938 14.4375H5.90625C5.7322 14.4375 5.56528 14.3684 5.44221 14.2453C5.31914 14.1222 5.25 13.9553 5.25 13.7812ZM5.90625 17.0625C5.7322 17.0625 5.56528 16.9934 5.44221 16.8703C5.31914 16.7472 5.25 16.5803 5.25 16.4062C5.25 16.2322 5.31914 16.0653 5.44221 15.9422C5.56528 15.8191 5.7322 15.75 5.90625 15.75H11.1562C11.3303 15.75 11.4972 15.8191 11.6203 15.9422C11.7434 16.0653 11.8125 16.2322 11.8125 16.4062C11.8125 16.5803 11.7434 16.7472 11.6203 16.8703C11.4972 16.9934 11.3303 17.0625 11.1562 17.0625H5.90625Z" fill="#8D8C8E"/>
</g>
<defs>
<clipPath id="clip0">
<rect width="21" height="21" fill="white"/>
</clipPath>
</defs>
</svg>
