<svg width="584" height="29" viewBox="0 0 584 29" fill="none" xmlns="http://www.w3.org/2000/svg">
<path d="M7.69922 12H5.94141L2.51953 6.38672V12H0.761719V3.46875H2.51953L5.94727 9.09375V3.46875H7.69922V12ZM14.1562 10.2422H11.0742L10.4883 12H8.61914L11.7949 3.46875H13.4238L16.6172 12H14.748L14.1562 10.2422ZM11.5488 8.81836H13.6816L12.6094 5.625L11.5488 8.81836ZM19.7109 3.46875L21.9023 9.65625L24.082 3.46875H26.3906V12H24.627V9.66797L24.8027 5.64258L22.5 12H21.293L18.9961 5.64844L19.1719 9.66797V12H17.4141V3.46875H19.7109ZM33.0586 8.30273H29.6836V10.5879H33.6445V12H27.9258V3.46875H33.6328V4.89258H29.6836V6.92578H33.0586V8.30273Z" fill="#9C9C9C"/>
<path d="M200.459 10.1582C200.393 11.0762 200.053 11.7988 199.439 12.3262C198.83 12.8535 198.025 13.1172 197.025 13.1172C195.932 13.1172 195.07 12.75 194.441 12.0156C193.816 11.2773 193.504 10.2656 193.504 8.98047V8.45898C193.504 7.63867 193.648 6.91602 193.938 6.29102C194.227 5.66602 194.639 5.1875 195.174 4.85547C195.713 4.51953 196.338 4.35156 197.049 4.35156C198.033 4.35156 198.826 4.61523 199.428 5.14258C200.029 5.66992 200.377 6.41016 200.471 7.36328H198.713C198.67 6.8125 198.516 6.41406 198.25 6.16797C197.988 5.91797 197.588 5.79297 197.049 5.79297C196.463 5.79297 196.023 6.00391 195.73 6.42578C195.441 6.84375 195.293 7.49414 195.285 8.37695V9.02148C195.285 9.94336 195.424 10.6172 195.701 11.043C195.982 11.4688 196.424 11.6816 197.025 11.6816C197.568 11.6816 197.973 11.5586 198.238 11.3125C198.508 11.0625 198.662 10.6777 198.701 10.1582H200.459ZM204.766 10.8848L206.699 4.46875H208.656L205.686 13H203.852L200.893 4.46875H202.844L204.766 10.8848Z" fill="#9C9C9C"/>
<path d="M259.186 10.7617C259.186 10.4297 259.068 10.1758 258.834 10C258.6 9.82031 258.178 9.63281 257.568 9.4375C256.959 9.23828 256.477 9.04297 256.121 8.85156C255.152 8.32812 254.668 7.62305 254.668 6.73633C254.668 6.27539 254.797 5.86523 255.055 5.50586C255.316 5.14258 255.689 4.85938 256.174 4.65625C256.662 4.45312 257.209 4.35156 257.814 4.35156C258.424 4.35156 258.967 4.46289 259.443 4.68555C259.92 4.9043 260.289 5.21484 260.551 5.61719C260.816 6.01953 260.949 6.47656 260.949 6.98828H259.191C259.191 6.59766 259.068 6.29492 258.822 6.08008C258.576 5.86133 258.23 5.75195 257.785 5.75195C257.355 5.75195 257.021 5.84375 256.783 6.02734C256.545 6.20703 256.426 6.44531 256.426 6.74219C256.426 7.01953 256.564 7.25195 256.842 7.43945C257.123 7.62695 257.535 7.80273 258.078 7.9668C259.078 8.26758 259.807 8.64062 260.264 9.08594C260.721 9.53125 260.949 10.0859 260.949 10.75C260.949 11.4883 260.67 12.0684 260.111 12.4902C259.553 12.9082 258.801 13.1172 257.855 13.1172C257.199 13.1172 256.602 12.998 256.062 12.7598C255.523 12.5176 255.111 12.1875 254.826 11.7695C254.545 11.3516 254.404 10.8672 254.404 10.3164H256.168C256.168 11.2578 256.73 11.7285 257.855 11.7285C258.273 11.7285 258.6 11.6445 258.834 11.4766C259.068 11.3047 259.186 11.0664 259.186 10.7617ZM268.842 10.1582C268.775 11.0762 268.436 11.7988 267.822 12.3262C267.213 12.8535 266.408 13.1172 265.408 13.1172C264.314 13.1172 263.453 12.75 262.824 12.0156C262.199 11.2773 261.887 10.2656 261.887 8.98047V8.45898C261.887 7.63867 262.031 6.91602 262.32 6.29102C262.609 5.66602 263.021 5.1875 263.557 4.85547C264.096 4.51953 264.721 4.35156 265.432 4.35156C266.416 4.35156 267.209 4.61523 267.811 5.14258C268.412 5.66992 268.76 6.41016 268.854 7.36328H267.096C267.053 6.8125 266.898 6.41406 266.633 6.16797C266.371 5.91797 265.971 5.79297 265.432 5.79297C264.846 5.79297 264.406 6.00391 264.113 6.42578C263.824 6.84375 263.676 7.49414 263.668 8.37695V9.02148C263.668 9.94336 263.807 10.6172 264.084 11.043C264.365 11.4688 264.807 11.6816 265.408 11.6816C265.951 11.6816 266.355 11.5586 266.621 11.3125C266.891 11.0625 267.045 10.6777 267.084 10.1582H268.842ZM277.004 8.92773C277.004 9.76758 276.855 10.5039 276.559 11.1367C276.262 11.7695 275.836 12.2578 275.281 12.6016C274.73 12.9453 274.098 13.1172 273.383 13.1172C272.676 13.1172 272.045 12.9473 271.49 12.6074C270.936 12.2676 270.506 11.7832 270.201 11.1543C269.896 10.5215 269.742 9.79492 269.738 8.97461V8.55273C269.738 7.71289 269.889 6.97461 270.189 6.33789C270.494 5.69727 270.922 5.20703 271.473 4.86719C272.027 4.52344 272.66 4.35156 273.371 4.35156C274.082 4.35156 274.713 4.52344 275.264 4.86719C275.818 5.20703 276.246 5.69727 276.547 6.33789C276.852 6.97461 277.004 7.71094 277.004 8.54688V8.92773ZM275.223 8.54102C275.223 7.64648 275.062 6.9668 274.742 6.50195C274.422 6.03711 273.965 5.80469 273.371 5.80469C272.781 5.80469 272.326 6.03516 272.006 6.49609C271.686 6.95312 271.523 7.625 271.52 8.51172V8.92773C271.52 9.79883 271.68 10.4746 272 10.9551C272.32 11.4355 272.781 11.6758 273.383 11.6758C273.973 11.6758 274.426 11.4453 274.742 10.9844C275.059 10.5195 275.219 9.84375 275.223 8.95703V8.54102ZM281.439 9.87695H280.039V13H278.281V4.46875H281.451C282.459 4.46875 283.236 4.69336 283.783 5.14258C284.33 5.5918 284.604 6.22656 284.604 7.04688C284.604 7.62891 284.477 8.11523 284.223 8.50586C283.973 8.89258 283.592 9.20117 283.08 9.43164L284.926 12.918V13H283.039L281.439 9.87695ZM280.039 8.45312H281.457C281.898 8.45312 282.24 8.3418 282.482 8.11914C282.725 7.89258 282.846 7.58203 282.846 7.1875C282.846 6.78516 282.73 6.46875 282.5 6.23828C282.273 6.00781 281.924 5.89258 281.451 5.89258H280.039V8.45312ZM291.078 9.30273H287.703V11.5879H291.664V13H285.945V4.46875H291.652V5.89258H287.703V7.92578H291.078V9.30273Z" fill="#9C9C9C"/>
<path d="M361.631 11H359.873V2.46875H361.631V11ZM370.203 11H368.445L365.023 5.38672V11H363.266V2.46875H365.023L368.451 8.09375V2.46875H370.203V11ZM377.984 3.89258H375.371V11H373.613V3.89258H371.035V2.46875H377.984V3.89258ZM384.125 7.30273H380.75V9.58789H384.711V11H378.992V2.46875H384.699V3.89258H380.75V5.92578H384.125V7.30273ZM388.9 7.87695H387.5V11H385.742V2.46875H388.912C389.92 2.46875 390.697 2.69336 391.244 3.14258C391.791 3.5918 392.064 4.22656 392.064 5.04688C392.064 5.62891 391.938 6.11523 391.684 6.50586C391.434 6.89258 391.053 7.20117 390.541 7.43164L392.387 10.918V11H390.5L388.9 7.87695ZM387.5 6.45312H388.918C389.359 6.45312 389.701 6.3418 389.943 6.11914C390.186 5.89258 390.307 5.58203 390.307 5.1875C390.307 4.78516 390.191 4.46875 389.961 4.23828C389.734 4.00781 389.385 3.89258 388.912 3.89258H387.5V6.45312ZM396.441 8.88477L398.375 2.46875H400.332L397.361 11H395.527L392.568 2.46875H394.52L396.441 8.88477ZM403.01 11H401.252V2.46875H403.01V11ZM409.777 7.30273H406.402V9.58789H410.363V11H404.645V2.46875H410.352V3.89258H406.402V5.92578H409.777V7.30273ZM418.039 8.53906L419.188 2.46875H420.939L419.047 11H417.277L415.889 5.29297L414.5 11H412.73L410.838 2.46875H412.59L413.744 8.52734L415.15 2.46875H416.639L418.039 8.53906ZM430.953 3.89258H428.34V11H426.582V3.89258H424.004V2.46875H430.953V3.89258ZM433.83 11H432.072V2.46875H433.83V11ZM437.762 2.46875L439.953 8.65625L442.133 2.46875H444.441V11H442.678V8.66797L442.854 4.64258L440.551 11H439.344L437.047 4.64844L437.223 8.66797V11H435.465V2.46875H437.762ZM451.109 7.30273H447.734V9.58789H451.695V11H445.977V2.46875H451.684V3.89258H447.734V5.92578H451.109V7.30273Z" fill="#9C9C9C"/>
<path d="M538.699 11H536.941L533.52 5.38672V11H531.762V2.46875H533.52L536.947 8.09375V2.46875H538.699V11ZM547.242 6.92773C547.242 7.76758 547.094 8.50391 546.797 9.13672C546.5 9.76953 546.074 10.2578 545.52 10.6016C544.969 10.9453 544.336 11.1172 543.621 11.1172C542.914 11.1172 542.283 10.9473 541.729 10.6074C541.174 10.2676 540.744 9.7832 540.439 9.1543C540.135 8.52148 539.98 7.79492 539.977 6.97461V6.55273C539.977 5.71289 540.127 4.97461 540.428 4.33789C540.732 3.69727 541.16 3.20703 541.711 2.86719C542.266 2.52344 542.898 2.35156 543.609 2.35156C544.32 2.35156 544.951 2.52344 545.502 2.86719C546.057 3.20703 546.484 3.69727 546.785 4.33789C547.09 4.97461 547.242 5.71094 547.242 6.54688V6.92773ZM545.461 6.54102C545.461 5.64648 545.301 4.9668 544.98 4.50195C544.66 4.03711 544.203 3.80469 543.609 3.80469C543.02 3.80469 542.564 4.03516 542.244 4.49609C541.924 4.95312 541.762 5.625 541.758 6.51172V6.92773C541.758 7.79883 541.918 8.47461 542.238 8.95508C542.559 9.43555 543.02 9.67578 543.621 9.67578C544.211 9.67578 544.664 9.44531 544.98 8.98438C545.297 8.51953 545.457 7.84375 545.461 6.95703V6.54102ZM554.438 3.89258H551.824V11H550.066V3.89258H547.488V2.46875H554.438V3.89258ZM560.578 7.30273H557.203V9.58789H561.164V11H555.445V2.46875H561.152V3.89258H557.203V5.92578H560.578V7.30273ZM566.619 8.76172C566.619 8.42969 566.502 8.17578 566.268 8C566.033 7.82031 565.611 7.63281 565.002 7.4375C564.393 7.23828 563.91 7.04297 563.555 6.85156C562.586 6.32812 562.102 5.62305 562.102 4.73633C562.102 4.27539 562.23 3.86523 562.488 3.50586C562.75 3.14258 563.123 2.85938 563.607 2.65625C564.096 2.45312 564.643 2.35156 565.248 2.35156C565.857 2.35156 566.4 2.46289 566.877 2.68555C567.354 2.9043 567.723 3.21484 567.984 3.61719C568.25 4.01953 568.383 4.47656 568.383 4.98828H566.625C566.625 4.59766 566.502 4.29492 566.256 4.08008C566.01 3.86133 565.664 3.75195 565.219 3.75195C564.789 3.75195 564.455 3.84375 564.217 4.02734C563.979 4.20703 563.859 4.44531 563.859 4.74219C563.859 5.01953 563.998 5.25195 564.275 5.43945C564.557 5.62695 564.969 5.80273 565.512 5.9668C566.512 6.26758 567.24 6.64062 567.697 7.08594C568.154 7.53125 568.383 8.08594 568.383 8.75C568.383 9.48828 568.104 10.0684 567.545 10.4902C566.986 10.9082 566.234 11.1172 565.289 11.1172C564.633 11.1172 564.035 10.998 563.496 10.7598C562.957 10.5176 562.545 10.1875 562.26 9.76953C561.979 9.35156 561.838 8.86719 561.838 8.31641H563.602C563.602 9.25781 564.164 9.72852 565.289 9.72852C565.707 9.72852 566.033 9.64453 566.268 9.47656C566.502 9.30469 566.619 9.06641 566.619 8.76172Z" fill="#9C9C9C"/>
</svg>
