<svg width="636" height="138" viewBox="0 0 636 138" fill="none" xmlns="http://www.w3.org/2000/svg">
<path d="M70.6875 37.0625C70.6875 35.2917 70.0625 33.9375 68.8125 33C67.5625 32.0417 65.3125 31.0417 62.0625 30C58.8125 28.9375 56.2396 27.8958 54.3438 26.875C49.1771 24.0833 46.5938 20.3229 46.5938 15.5938C46.5938 13.1354 47.2812 10.9479 48.6562 9.03125C50.0521 7.09375 52.0417 5.58333 54.625 4.5C57.2292 3.41667 60.1458 2.875 63.375 2.875C66.625 2.875 69.5208 3.46875 72.0625 4.65625C74.6042 5.82292 76.5729 7.47917 77.9688 9.625C79.3854 11.7708 80.0938 14.2083 80.0938 16.9375H70.7188C70.7188 14.8542 70.0625 13.2396 68.75 12.0938C67.4375 10.9271 65.5938 10.3438 63.2188 10.3438C60.9271 10.3438 59.1458 10.8333 57.875 11.8125C56.6042 12.7708 55.9688 14.0417 55.9688 15.625C55.9688 17.1042 56.7083 18.3438 58.1875 19.3438C59.6875 20.3438 61.8854 21.2812 64.7812 22.1562C70.1146 23.7604 74 25.75 76.4375 28.125C78.875 30.5 80.0938 33.4583 80.0938 37C80.0938 40.9375 78.6042 44.0312 75.625 46.2812C72.6458 48.5104 68.6354 49.625 63.5938 49.625C60.0938 49.625 56.9062 48.9896 54.0312 47.7188C51.1562 46.4271 48.9583 44.6667 47.4375 42.4375C45.9375 40.2083 45.1875 37.625 45.1875 34.6875H54.5938C54.5938 39.7083 57.5938 42.2188 63.5938 42.2188C65.8229 42.2188 67.5625 41.7708 68.8125 40.875C70.0625 39.9583 70.6875 38.6875 70.6875 37.0625ZM95.4062 49H86.3438V15.1875H95.4062V49ZM85.8125 6.4375C85.8125 5.08333 86.2604 3.96875 87.1562 3.09375C88.0729 2.21875 89.3125 1.78125 90.875 1.78125C92.4167 1.78125 93.6458 2.21875 94.5625 3.09375C95.4792 3.96875 95.9375 5.08333 95.9375 6.4375C95.9375 7.8125 95.4688 8.9375 94.5312 9.8125C93.6146 10.6875 92.3958 11.125 90.875 11.125C89.3542 11.125 88.125 10.6875 87.1875 9.8125C86.2708 8.9375 85.8125 7.8125 85.8125 6.4375ZM111.344 15.1875L111.625 18.9688C114.021 16.0312 117.26 14.5625 121.344 14.5625C125.698 14.5625 128.688 16.2812 130.312 19.7188C132.688 16.2812 136.073 14.5625 140.469 14.5625C144.135 14.5625 146.865 15.6354 148.656 17.7812C150.448 19.9062 151.344 23.1146 151.344 27.4062V49H142.281V27.4375C142.281 25.5208 141.906 24.125 141.156 23.25C140.406 22.3542 139.083 21.9062 137.188 21.9062C134.479 21.9062 132.604 23.1979 131.562 25.7812L131.594 49H122.562V27.4688C122.562 25.5104 122.177 24.0938 121.406 23.2188C120.635 22.3438 119.323 21.9062 117.469 21.9062C114.906 21.9062 113.052 22.9688 111.906 25.0938V49H102.875V15.1875H111.344ZM188.75 32.4062C188.75 37.6146 187.562 41.7917 185.188 44.9375C182.833 48.0625 179.646 49.625 175.625 49.625C172.208 49.625 169.448 48.4375 167.344 46.0625V62H158.312V15.1875H166.688L167 18.5C169.188 15.875 172.042 14.5625 175.562 14.5625C179.729 14.5625 182.969 16.1042 185.281 19.1875C187.594 22.2708 188.75 26.5208 188.75 31.9375V32.4062ZM179.719 31.75C179.719 28.6042 179.156 26.1771 178.031 24.4688C176.927 22.7604 175.312 21.9062 173.188 21.9062C170.354 21.9062 168.406 22.9896 167.344 25.1562V39C168.448 41.2292 170.417 42.3438 173.25 42.3438C177.562 42.3438 179.719 38.8125 179.719 31.75ZM203.906 49H194.844V1H203.906V49ZM220.906 49H211.844V15.1875H220.906V49ZM211.312 6.4375C211.312 5.08333 211.76 3.96875 212.656 3.09375C213.573 2.21875 214.812 1.78125 216.375 1.78125C217.917 1.78125 219.146 2.21875 220.062 3.09375C220.979 3.96875 221.438 5.08333 221.438 6.4375C221.438 7.8125 220.969 8.9375 220.031 9.8125C219.115 10.6875 217.896 11.125 216.375 11.125C214.854 11.125 213.625 10.6875 212.688 9.8125C211.771 8.9375 211.312 7.8125 211.312 6.4375ZM230.844 49V21.8125H225.812V15.1875H230.844V12.3125C230.844 8.52083 231.927 5.58333 234.094 3.5C236.281 1.39583 239.333 0.34375 243.25 0.34375C244.5 0.34375 246.031 0.552083 247.844 0.96875L247.75 7.96875C247 7.78125 246.083 7.6875 245 7.6875C241.604 7.6875 239.906 9.28125 239.906 12.4688V15.1875H246.625V21.8125H239.906V49H230.844ZM263.938 36.2188L270.188 15.1875H279.875L266.281 54.25L265.531 56.0312C263.51 60.4479 260.177 62.6562 255.531 62.6562C254.219 62.6562 252.885 62.4583 251.531 62.0625V55.2188L252.906 55.25C254.615 55.25 255.885 54.9896 256.719 54.4688C257.573 53.9479 258.24 53.0833 258.719 51.875L259.781 49.0938L247.938 15.1875H257.656L263.938 36.2188ZM39.1875 102.281C39.1875 106.76 38.3958 110.688 36.8125 114.062C35.2292 117.438 32.9583 120.042 30 121.875C27.0625 123.708 23.6875 124.625 19.875 124.625C16.1042 124.625 12.7396 123.719 9.78125 121.906C6.82292 120.094 4.53125 117.51 2.90625 114.156C1.28125 110.781 0.458333 106.906 0.4375 102.531V100.281C0.4375 95.8021 1.23958 91.8646 2.84375 88.4688C4.46875 85.0521 6.75 82.4375 9.6875 80.625C12.6458 78.7917 16.0208 77.875 19.8125 77.875C23.6042 77.875 26.9688 78.7917 29.9062 80.625C32.8646 82.4375 35.1458 85.0521 36.75 88.4688C38.375 91.8646 39.1875 95.7917 39.1875 100.25V102.281ZM29.6875 100.219C29.6875 95.4479 28.8333 91.8229 27.125 89.3438C25.4167 86.8646 22.9792 85.625 19.8125 85.625C16.6667 85.625 14.2396 86.8542 12.5312 89.3125C10.8229 91.75 9.95833 95.3333 9.9375 100.062V102.281C9.9375 106.927 10.7917 110.531 12.5 113.094C14.2083 115.656 16.6667 116.938 19.875 116.938C23.0208 116.938 25.4375 115.708 27.125 113.25C28.8125 110.771 29.6667 107.167 29.6875 102.438V100.219ZM64.4062 98.6562C63.1771 98.4896 62.0938 98.4062 61.1562 98.4062C57.7396 98.4062 55.5 99.5625 54.4375 101.875V124H45.4062V90.1875H53.9375L54.1875 94.2188C56 91.1146 58.5104 89.5625 61.7188 89.5625C62.7188 89.5625 63.6562 89.6979 64.5312 89.9688L64.4062 98.6562ZM66.8438 106.844C66.8438 101.656 68.0729 97.4792 70.5312 94.3125C73.0104 91.1458 76.3438 89.5625 80.5312 89.5625C84.2396 89.5625 87.125 90.8333 89.1875 93.375L89.5625 90.1875H97.75V122.875C97.75 125.833 97.0729 128.406 95.7188 130.594C94.3854 132.781 92.5 134.448 90.0625 135.594C87.625 136.74 84.7708 137.312 81.5 137.312C79.0208 137.312 76.6042 136.812 74.25 135.812C71.8958 134.833 70.1146 133.562 68.9062 132L72.9062 126.5C75.1562 129.021 77.8854 130.281 81.0938 130.281C83.4896 130.281 85.3542 129.635 86.6875 128.344C88.0208 127.073 88.6875 125.26 88.6875 122.906V121.094C86.6042 123.448 83.8646 124.625 80.4688 124.625C76.4062 124.625 73.1146 123.042 70.5938 119.875C68.0938 116.688 66.8438 112.469 66.8438 107.219V106.844ZM75.875 107.5C75.875 110.562 76.4896 112.969 77.7188 114.719C78.9479 116.448 80.6354 117.312 82.7812 117.312C85.5312 117.312 87.5 116.281 88.6875 114.219V100C87.4792 97.9375 85.5312 96.9062 82.8438 96.9062C80.6771 96.9062 78.9688 97.7917 77.7188 99.5625C76.4896 101.333 75.875 103.979 75.875 107.5ZM124.312 124C123.896 123.188 123.594 122.177 123.406 120.969C121.219 123.406 118.375 124.625 114.875 124.625C111.562 124.625 108.812 123.667 106.625 121.75C104.458 119.833 103.375 117.417 103.375 114.5C103.375 110.917 104.698 108.167 107.344 106.25C110.01 104.333 113.854 103.365 118.875 103.344H123.031V101.406C123.031 99.8438 122.625 98.5938 121.812 97.6562C121.021 96.7188 119.76 96.25 118.031 96.25C116.51 96.25 115.312 96.6146 114.438 97.3438C113.583 98.0729 113.156 99.0729 113.156 100.344H104.125C104.125 98.3854 104.729 96.5729 105.938 94.9062C107.146 93.2396 108.854 91.9375 111.062 91C113.271 90.0417 115.75 89.5625 118.5 89.5625C122.667 89.5625 125.969 90.6146 128.406 92.7188C130.865 94.8021 132.094 97.7396 132.094 101.531V116.188C132.115 119.396 132.562 121.823 133.438 123.469V124H124.312ZM116.844 117.719C118.177 117.719 119.406 117.427 120.531 116.844C121.656 116.24 122.49 115.438 123.031 114.438V108.625H119.656C115.135 108.625 112.729 110.188 112.438 113.312L112.406 113.844C112.406 114.969 112.802 115.896 113.594 116.625C114.385 117.354 115.469 117.719 116.844 117.719ZM147.344 90.1875L147.625 94.0938C150.042 91.0729 153.281 89.5625 157.344 89.5625C160.927 89.5625 163.594 90.6146 165.344 92.7188C167.094 94.8229 167.99 97.9688 168.031 102.156V124H159V102.375C159 100.458 158.583 99.0729 157.75 98.2188C156.917 97.3438 155.531 96.9062 153.594 96.9062C151.052 96.9062 149.146 97.9896 147.875 100.156V124H138.844V90.1875H147.344ZM184.438 124H175.375V90.1875H184.438V124ZM174.844 81.4375C174.844 80.0833 175.292 78.9688 176.188 78.0938C177.104 77.2188 178.344 76.7812 179.906 76.7812C181.448 76.7812 182.677 77.2188 183.594 78.0938C184.51 78.9688 184.969 80.0833 184.969 81.4375C184.969 82.8125 184.5 83.9375 183.562 84.8125C182.646 85.6875 181.427 86.125 179.906 86.125C178.385 86.125 177.156 85.6875 176.219 84.8125C175.302 83.9375 174.844 82.8125 174.844 81.4375ZM210.219 114.656C210.219 113.552 209.667 112.688 208.562 112.062C207.479 111.417 205.729 110.844 203.312 110.344C195.271 108.656 191.25 105.24 191.25 100.094C191.25 97.0938 192.49 94.5938 194.969 92.5938C197.469 90.5729 200.729 89.5625 204.75 89.5625C209.042 89.5625 212.469 90.5729 215.031 92.5938C217.615 94.6146 218.906 97.2396 218.906 100.469H209.875C209.875 99.1771 209.458 98.1146 208.625 97.2812C207.792 96.4271 206.49 96 204.719 96C203.198 96 202.021 96.3438 201.188 97.0312C200.354 97.7188 199.938 98.5938 199.938 99.6562C199.938 100.656 200.406 101.469 201.344 102.094C202.302 102.698 203.906 103.229 206.156 103.688C208.406 104.125 210.302 104.625 211.844 105.188C216.615 106.938 219 109.969 219 114.281C219 117.365 217.677 119.865 215.031 121.781C212.385 123.677 208.969 124.625 204.781 124.625C201.948 124.625 199.427 124.125 197.219 123.125C195.031 122.104 193.312 120.719 192.062 118.969C190.812 117.198 190.188 115.292 190.188 113.25H198.75C198.833 114.854 199.427 116.083 200.531 116.938C201.635 117.792 203.115 118.219 204.969 118.219C206.698 118.219 208 117.896 208.875 117.25C209.771 116.583 210.219 115.719 210.219 114.656ZM240.406 124.625C235.448 124.625 231.406 123.104 228.281 120.062C225.177 117.021 223.625 112.969 223.625 107.906V107.031C223.625 103.635 224.281 100.604 225.594 97.9375C226.906 95.25 228.76 93.1875 231.156 91.75C233.573 90.2917 236.323 89.5625 239.406 89.5625C244.031 89.5625 247.667 91.0208 250.312 93.9375C252.979 96.8542 254.312 100.99 254.312 106.344V110.031H232.781C233.073 112.24 233.948 114.01 235.406 115.344C236.885 116.677 238.75 117.344 241 117.344C244.479 117.344 247.198 116.083 249.156 113.562L253.594 118.531C252.24 120.448 250.406 121.948 248.094 123.031C245.781 124.094 243.219 124.625 240.406 124.625ZM239.375 96.875C237.583 96.875 236.125 97.4792 235 98.6875C233.896 99.8958 233.188 101.625 232.875 103.875H245.438V103.156C245.396 101.156 244.854 99.6146 243.812 98.5312C242.771 97.4271 241.292 96.875 239.375 96.875Z" fill="#8D5018"/>
<path d="M308.906 49H299.844V15.1875H308.906V49ZM299.312 6.4375C299.312 5.08333 299.76 3.96875 300.656 3.09375C301.573 2.21875 302.812 1.78125 304.375 1.78125C305.917 1.78125 307.146 2.21875 308.062 3.09375C308.979 3.96875 309.438 5.08333 309.438 6.4375C309.438 7.8125 308.969 8.9375 308.031 9.8125C307.115 10.6875 305.896 11.125 304.375 11.125C302.854 11.125 301.625 10.6875 300.688 9.8125C299.771 8.9375 299.312 7.8125 299.312 6.4375ZM324.688 15.1875L324.969 19.0938C327.385 16.0729 330.625 14.5625 334.688 14.5625C338.271 14.5625 340.938 15.6146 342.688 17.7188C344.438 19.8229 345.333 22.9688 345.375 27.1562V49H336.344V27.375C336.344 25.4583 335.927 24.0729 335.094 23.2188C334.26 22.3438 332.875 21.9062 330.938 21.9062C328.396 21.9062 326.49 22.9896 325.219 25.1562V49H316.188V15.1875H324.688ZM363.062 6.875V15.1875H368.844V21.8125H363.062V38.6875C363.062 39.9375 363.302 40.8333 363.781 41.375C364.26 41.9167 365.177 42.1875 366.531 42.1875C367.531 42.1875 368.417 42.1146 369.188 41.9688V48.8125C367.417 49.3542 365.594 49.625 363.719 49.625C357.385 49.625 354.156 46.4271 354.031 40.0312V21.8125H349.094V15.1875H354.031V6.875H363.062ZM389.438 49.625C384.479 49.625 380.438 48.1042 377.312 45.0625C374.208 42.0208 372.656 37.9688 372.656 32.9062V32.0312C372.656 28.6354 373.312 25.6042 374.625 22.9375C375.938 20.25 377.792 18.1875 380.188 16.75C382.604 15.2917 385.354 14.5625 388.438 14.5625C393.062 14.5625 396.698 16.0208 399.344 18.9375C402.01 21.8542 403.344 25.9896 403.344 31.3438V35.0312H381.812C382.104 37.2396 382.979 39.0104 384.438 40.3438C385.917 41.6771 387.781 42.3438 390.031 42.3438C393.51 42.3438 396.229 41.0833 398.188 38.5625L402.625 43.5312C401.271 45.4479 399.438 46.9479 397.125 48.0312C394.812 49.0938 392.25 49.625 389.438 49.625ZM388.406 21.875C386.615 21.875 385.156 22.4792 384.031 23.6875C382.927 24.8958 382.219 26.625 381.906 28.875H394.469V28.1562C394.427 26.1562 393.885 24.6146 392.844 23.5312C391.802 22.4271 390.323 21.875 388.406 21.875ZM427.5 23.6562C426.271 23.4896 425.188 23.4062 424.25 23.4062C420.833 23.4062 418.594 24.5625 417.531 26.875V49H408.5V15.1875H417.031L417.281 19.2188C419.094 16.1146 421.604 14.5625 424.812 14.5625C425.812 14.5625 426.75 14.6979 427.625 14.9688L427.5 23.6562ZM445.094 37.9688L451.375 15.1875H460.812L449.406 49H440.781L429.375 15.1875H438.812L445.094 37.9688ZM474.344 49H465.281V15.1875H474.344V49ZM464.75 6.4375C464.75 5.08333 465.198 3.96875 466.094 3.09375C467.01 2.21875 468.25 1.78125 469.812 1.78125C471.354 1.78125 472.583 2.21875 473.5 3.09375C474.417 3.96875 474.875 5.08333 474.875 6.4375C474.875 7.8125 474.406 8.9375 473.469 9.8125C472.552 10.6875 471.333 11.125 469.812 11.125C468.292 11.125 467.062 10.6875 466.125 9.8125C465.208 8.9375 464.75 7.8125 464.75 6.4375ZM497.375 49.625C492.417 49.625 488.375 48.1042 485.25 45.0625C482.146 42.0208 480.594 37.9688 480.594 32.9062V32.0312C480.594 28.6354 481.25 25.6042 482.562 22.9375C483.875 20.25 485.729 18.1875 488.125 16.75C490.542 15.2917 493.292 14.5625 496.375 14.5625C501 14.5625 504.635 16.0208 507.281 18.9375C509.948 21.8542 511.281 25.9896 511.281 31.3438V35.0312H489.75C490.042 37.2396 490.917 39.0104 492.375 40.3438C493.854 41.6771 495.719 42.3438 497.969 42.3438C501.448 42.3438 504.167 41.0833 506.125 38.5625L510.562 43.5312C509.208 45.4479 507.375 46.9479 505.062 48.0312C502.75 49.0938 500.188 49.625 497.375 49.625ZM496.344 21.875C494.552 21.875 493.094 22.4792 491.969 23.6875C490.865 24.8958 490.156 26.625 489.844 28.875H502.406V28.1562C502.365 26.1562 501.823 24.6146 500.781 23.5312C499.74 22.4271 498.26 21.875 496.344 21.875ZM545.844 36.7188L550.281 15.1875H559L550.375 49H542.812L536.406 27.7188L530 49H522.469L513.844 15.1875H522.562L526.969 36.6875L533.156 15.1875H539.688L545.844 36.7188ZM581.812 39.6562C581.812 38.5521 581.26 37.6875 580.156 37.0625C579.073 36.4167 577.323 35.8438 574.906 35.3438C566.865 33.6562 562.844 30.2396 562.844 25.0938C562.844 22.0938 564.083 19.5938 566.562 17.5938C569.062 15.5729 572.323 14.5625 576.344 14.5625C580.635 14.5625 584.062 15.5729 586.625 17.5938C589.208 19.6146 590.5 22.2396 590.5 25.4688H581.469C581.469 24.1771 581.052 23.1146 580.219 22.2812C579.385 21.4271 578.083 21 576.312 21C574.792 21 573.615 21.3438 572.781 22.0312C571.948 22.7188 571.531 23.5938 571.531 24.6562C571.531 25.6562 572 26.4688 572.938 27.0938C573.896 27.6979 575.5 28.2292 577.75 28.6875C580 29.125 581.896 29.625 583.438 30.1875C588.208 31.9375 590.594 34.9688 590.594 39.2812C590.594 42.3646 589.271 44.8646 586.625 46.7812C583.979 48.6771 580.562 49.625 576.375 49.625C573.542 49.625 571.021 49.125 568.812 48.125C566.625 47.1042 564.906 45.7188 563.656 43.9688C562.406 42.1979 561.781 40.2917 561.781 38.25H570.344C570.427 39.8542 571.021 41.0833 572.125 41.9375C573.229 42.7917 574.708 43.2188 576.562 43.2188C578.292 43.2188 579.594 42.8958 580.469 42.25C581.365 41.5833 581.812 40.7188 581.812 39.6562ZM284.938 124H275.875V90.1875H284.938V124ZM275.344 81.4375C275.344 80.0833 275.792 78.9688 276.688 78.0938C277.604 77.2188 278.844 76.7812 280.406 76.7812C281.948 76.7812 283.177 77.2188 284.094 78.0938C285.01 78.9688 285.469 80.0833 285.469 81.4375C285.469 82.8125 285 83.9375 284.062 84.8125C283.146 85.6875 281.927 86.125 280.406 86.125C278.885 86.125 277.656 85.6875 276.719 84.8125C275.802 83.9375 275.344 82.8125 275.344 81.4375ZM300.719 90.1875L301 94.0938C303.417 91.0729 306.656 89.5625 310.719 89.5625C314.302 89.5625 316.969 90.6146 318.719 92.7188C320.469 94.8229 321.365 97.9688 321.406 102.156V124H312.375V102.375C312.375 100.458 311.958 99.0729 311.125 98.2188C310.292 97.3438 308.906 96.9062 306.969 96.9062C304.427 96.9062 302.521 97.9896 301.25 100.156V124H292.219V90.1875H300.719ZM339.094 81.875V90.1875H344.875V96.8125H339.094V113.688C339.094 114.938 339.333 115.833 339.812 116.375C340.292 116.917 341.208 117.188 342.562 117.188C343.562 117.188 344.448 117.115 345.219 116.969V123.812C343.448 124.354 341.625 124.625 339.75 124.625C333.417 124.625 330.188 121.427 330.062 115.031V96.8125H325.125V90.1875H330.062V81.875H339.094ZM365.469 124.625C360.51 124.625 356.469 123.104 353.344 120.062C350.24 117.021 348.688 112.969 348.688 107.906V107.031C348.688 103.635 349.344 100.604 350.656 97.9375C351.969 95.25 353.823 93.1875 356.219 91.75C358.635 90.2917 361.385 89.5625 364.469 89.5625C369.094 89.5625 372.729 91.0208 375.375 93.9375C378.042 96.8542 379.375 100.99 379.375 106.344V110.031H357.844C358.135 112.24 359.01 114.01 360.469 115.344C361.948 116.677 363.812 117.344 366.062 117.344C369.542 117.344 372.26 116.083 374.219 113.562L378.656 118.531C377.302 120.448 375.469 121.948 373.156 123.031C370.844 124.094 368.281 124.625 365.469 124.625ZM364.438 96.875C362.646 96.875 361.188 97.4792 360.062 98.6875C358.958 99.8958 358.25 101.625 357.938 103.875H370.5V103.156C370.458 101.156 369.917 99.6146 368.875 98.5312C367.833 97.4271 366.354 96.875 364.438 96.875ZM403.531 98.6562C402.302 98.4896 401.219 98.4062 400.281 98.4062C396.865 98.4062 394.625 99.5625 393.562 101.875V124H384.531V90.1875H393.062L393.312 94.2188C395.125 91.1146 397.635 89.5625 400.844 89.5625C401.844 89.5625 402.781 89.6979 403.656 89.9688L403.531 98.6562ZM421.125 112.969L427.406 90.1875H436.844L425.438 124H416.812L405.406 90.1875H414.844L421.125 112.969ZM450.375 124H441.312V90.1875H450.375V124ZM440.781 81.4375C440.781 80.0833 441.229 78.9688 442.125 78.0938C443.042 77.2188 444.281 76.7812 445.844 76.7812C447.385 76.7812 448.615 77.2188 449.531 78.0938C450.448 78.9688 450.906 80.0833 450.906 81.4375C450.906 82.8125 450.438 83.9375 449.5 84.8125C448.583 85.6875 447.365 86.125 445.844 86.125C444.323 86.125 443.094 85.6875 442.156 84.8125C441.24 83.9375 440.781 82.8125 440.781 81.4375ZM473.406 124.625C468.448 124.625 464.406 123.104 461.281 120.062C458.177 117.021 456.625 112.969 456.625 107.906V107.031C456.625 103.635 457.281 100.604 458.594 97.9375C459.906 95.25 461.76 93.1875 464.156 91.75C466.573 90.2917 469.323 89.5625 472.406 89.5625C477.031 89.5625 480.667 91.0208 483.312 93.9375C485.979 96.8542 487.312 100.99 487.312 106.344V110.031H465.781C466.073 112.24 466.948 114.01 468.406 115.344C469.885 116.677 471.75 117.344 474 117.344C477.479 117.344 480.198 116.083 482.156 113.562L486.594 118.531C485.24 120.448 483.406 121.948 481.094 123.031C478.781 124.094 476.219 124.625 473.406 124.625ZM472.375 96.875C470.583 96.875 469.125 97.4792 468 98.6875C466.896 99.8958 466.188 101.625 465.875 103.875H478.438V103.156C478.396 101.156 477.854 99.6146 476.812 98.5312C475.771 97.4271 474.292 96.875 472.375 96.875ZM521.875 111.719L526.312 90.1875H535.031L526.406 124H518.844L512.438 102.719L506.031 124H498.5L489.875 90.1875H498.594L503 111.688L509.188 90.1875H515.719L521.875 111.719ZM555.094 124.625C550.135 124.625 546.094 123.104 542.969 120.062C539.865 117.021 538.312 112.969 538.312 107.906V107.031C538.312 103.635 538.969 100.604 540.281 97.9375C541.594 95.25 543.448 93.1875 545.844 91.75C548.26 90.2917 551.01 89.5625 554.094 89.5625C558.719 89.5625 562.354 91.0208 565 93.9375C567.667 96.8542 569 100.99 569 106.344V110.031H547.469C547.76 112.24 548.635 114.01 550.094 115.344C551.573 116.677 553.438 117.344 555.688 117.344C559.167 117.344 561.885 116.083 563.844 113.562L568.281 118.531C566.927 120.448 565.094 121.948 562.781 123.031C560.469 124.094 557.906 124.625 555.094 124.625ZM554.062 96.875C552.271 96.875 550.812 97.4792 549.688 98.6875C548.583 99.8958 547.875 101.625 547.562 103.875H560.125V103.156C560.083 101.156 559.542 99.6146 558.5 98.5312C557.458 97.4271 555.979 96.875 554.062 96.875ZM589.719 124.625C584.76 124.625 580.719 123.104 577.594 120.062C574.49 117.021 572.938 112.969 572.938 107.906V107.031C572.938 103.635 573.594 100.604 574.906 97.9375C576.219 95.25 578.073 93.1875 580.469 91.75C582.885 90.2917 585.635 89.5625 588.719 89.5625C593.344 89.5625 596.979 91.0208 599.625 93.9375C602.292 96.8542 603.625 100.99 603.625 106.344V110.031H582.094C582.385 112.24 583.26 114.01 584.719 115.344C586.198 116.677 588.062 117.344 590.312 117.344C593.792 117.344 596.51 116.083 598.469 113.562L602.906 118.531C601.552 120.448 599.719 121.948 597.406 123.031C595.094 124.094 592.531 124.625 589.719 124.625ZM588.688 96.875C586.896 96.875 585.438 97.4792 584.312 98.6875C583.208 99.8958 582.5 101.625 582.188 103.875H594.75V103.156C594.708 101.156 594.167 99.6146 593.125 98.5312C592.083 97.4271 590.604 96.875 588.688 96.875ZM627.094 114.656C627.094 113.552 626.542 112.688 625.438 112.062C624.354 111.417 622.604 110.844 620.188 110.344C612.146 108.656 608.125 105.24 608.125 100.094C608.125 97.0938 609.365 94.5938 611.844 92.5938C614.344 90.5729 617.604 89.5625 621.625 89.5625C625.917 89.5625 629.344 90.5729 631.906 92.5938C634.49 94.6146 635.781 97.2396 635.781 100.469H626.75C626.75 99.1771 626.333 98.1146 625.5 97.2812C624.667 96.4271 623.365 96 621.594 96C620.073 96 618.896 96.3438 618.062 97.0312C617.229 97.7188 616.812 98.5938 616.812 99.6562C616.812 100.656 617.281 101.469 618.219 102.094C619.177 102.698 620.781 103.229 623.031 103.688C625.281 104.125 627.177 104.625 628.719 105.188C633.49 106.938 635.875 109.969 635.875 114.281C635.875 117.365 634.552 119.865 631.906 121.781C629.26 123.677 625.844 124.625 621.656 124.625C618.823 124.625 616.302 124.125 614.094 123.125C611.906 122.104 610.188 120.719 608.938 118.969C607.688 117.198 607.062 115.292 607.062 113.25H615.625C615.708 114.854 616.302 116.083 617.406 116.938C618.51 117.792 619.99 118.219 621.844 118.219C623.573 118.219 624.875 117.896 625.75 117.25C626.646 116.583 627.094 115.719 627.094 114.656Z" fill="#FFD0A5"/>
</svg>
