<svg width="363" height="81" viewBox="0 0 363 81" fill="none" xmlns="http://www.w3.org/2000/svg">
<rect width="363" height="81" rx="40" fill="#FF9A3D"/>
<path d="M94.5156 33.4023C92.6328 33.4023 91.1445 34.0312 90.0508 35.2891C88.9648 36.5391 88.4219 38.2539 88.4219 40.4336C88.4219 42.6758 88.9453 44.4102 89.9922 45.6367C91.0469 46.8555 92.5469 47.4648 94.4922 47.4648C95.6875 47.4648 97.0508 47.25 98.582 46.8203V48.5664C97.3945 49.0117 95.9297 49.2344 94.1875 49.2344C91.6641 49.2344 89.7148 48.4688 88.3398 46.9375C86.9727 45.4062 86.2891 43.2305 86.2891 40.4102C86.2891 38.6445 86.6172 37.0977 87.2734 35.7695C87.9375 34.4414 88.8906 33.418 90.1328 32.6992C91.3828 31.9805 92.8516 31.6211 94.5391 31.6211C96.3359 31.6211 97.9062 31.9492 99.25 32.6055L98.4062 34.3164C97.1094 33.707 95.8125 33.4023 94.5156 33.4023ZM107.887 35.9219C108.457 35.9219 108.969 35.9688 109.422 36.0625L109.152 37.8672C108.621 37.75 108.152 37.6914 107.746 37.6914C106.707 37.6914 105.816 38.1133 105.074 38.957C104.34 39.8008 103.973 40.8516 103.973 42.1094V49H102.027V36.1562H103.633L103.855 38.5352H103.949C104.426 37.6992 105 37.0547 105.672 36.6016C106.344 36.1484 107.082 35.9219 107.887 35.9219ZM117.25 49.2344C115.352 49.2344 113.852 48.6562 112.75 47.5C111.656 46.3438 111.109 44.7383 111.109 42.6836C111.109 40.6133 111.617 38.9688 112.633 37.75C113.656 36.5312 115.027 35.9219 116.746 35.9219C118.355 35.9219 119.629 36.4531 120.566 37.5156C121.504 38.5703 121.973 39.9648 121.973 41.6992V42.9297H113.125C113.164 44.4375 113.543 45.582 114.262 46.3633C114.988 47.1445 116.008 47.5352 117.32 47.5352C118.703 47.5352 120.07 47.2461 121.422 46.668V48.4023C120.734 48.6992 120.082 48.9102 119.465 49.0352C118.855 49.168 118.117 49.2344 117.25 49.2344ZM116.723 37.5508C115.691 37.5508 114.867 37.8867 114.25 38.5586C113.641 39.2305 113.281 40.1602 113.172 41.3477H119.887C119.887 40.1211 119.613 39.1836 119.066 38.5352C118.52 37.8789 117.738 37.5508 116.723 37.5508ZM133.199 49L132.812 47.1719H132.719C132.078 47.9766 131.438 48.5234 130.797 48.8125C130.164 49.0938 129.371 49.2344 128.418 49.2344C127.145 49.2344 126.145 48.9062 125.418 48.25C124.699 47.5938 124.34 46.6602 124.34 45.4492C124.34 42.8555 126.414 41.4961 130.562 41.3711L132.742 41.3008V40.5039C132.742 39.4961 132.523 38.7539 132.086 38.2773C131.656 37.793 130.965 37.5508 130.012 37.5508C128.941 37.5508 127.73 37.8789 126.379 38.5352L125.781 37.0469C126.414 36.7031 127.105 36.4336 127.855 36.2383C128.613 36.043 129.371 35.9453 130.129 35.9453C131.66 35.9453 132.793 36.2852 133.527 36.9648C134.27 37.6445 134.641 38.7344 134.641 40.2344V49H133.199ZM128.805 47.6289C130.016 47.6289 130.965 47.2969 131.652 46.6328C132.348 45.9688 132.695 45.0391 132.695 43.8438V42.6836L130.75 42.7656C129.203 42.8203 128.086 43.0625 127.398 43.4922C126.719 43.9141 126.379 44.5742 126.379 45.4727C126.379 46.1758 126.59 46.7109 127.012 47.0781C127.441 47.4453 128.039 47.6289 128.805 47.6289ZM142.809 47.6289C143.152 47.6289 143.484 47.6055 143.805 47.5586C144.125 47.5039 144.379 47.4492 144.566 47.3945V48.8828C144.355 48.9844 144.043 49.0664 143.629 49.1289C143.223 49.1992 142.855 49.2344 142.527 49.2344C140.043 49.2344 138.801 47.9258 138.801 45.3086V37.668H136.961V36.7305L138.801 35.9219L139.621 33.1797H140.746V36.1562H144.473V37.668H140.746V45.2266C140.746 46 140.93 46.5938 141.297 47.0078C141.664 47.4219 142.168 47.6289 142.809 47.6289ZM152.57 49.2344C150.672 49.2344 149.172 48.6562 148.07 47.5C146.977 46.3438 146.43 44.7383 146.43 42.6836C146.43 40.6133 146.938 38.9688 147.953 37.75C148.977 36.5312 150.348 35.9219 152.066 35.9219C153.676 35.9219 154.949 36.4531 155.887 37.5156C156.824 38.5703 157.293 39.9648 157.293 41.6992V42.9297H148.445C148.484 44.4375 148.863 45.582 149.582 46.3633C150.309 47.1445 151.328 47.5352 152.641 47.5352C154.023 47.5352 155.391 47.2461 156.742 46.668V48.4023C156.055 48.6992 155.402 48.9102 154.785 49.0352C154.176 49.168 153.438 49.2344 152.57 49.2344ZM152.043 37.5508C151.012 37.5508 150.188 37.8867 149.57 38.5586C148.961 39.2305 148.602 40.1602 148.492 41.3477H155.207C155.207 40.1211 154.934 39.1836 154.387 38.5352C153.84 37.8789 153.059 37.5508 152.043 37.5508ZM180.531 49H178.258L168.895 34.6211H168.801C168.926 36.3086 168.988 37.8555 168.988 39.2617V49H167.148V31.8672H169.398L178.738 46.1875H178.832C178.816 45.9766 178.781 45.3008 178.727 44.1602C178.672 43.0117 178.652 42.1914 178.668 41.6992V31.8672H180.531V49ZM190.375 49.2344C188.477 49.2344 186.977 48.6562 185.875 47.5C184.781 46.3438 184.234 44.7383 184.234 42.6836C184.234 40.6133 184.742 38.9688 185.758 37.75C186.781 36.5312 188.152 35.9219 189.871 35.9219C191.48 35.9219 192.754 36.4531 193.691 37.5156C194.629 38.5703 195.098 39.9648 195.098 41.6992V42.9297H186.25C186.289 44.4375 186.668 45.582 187.387 46.3633C188.113 47.1445 189.133 47.5352 190.445 47.5352C191.828 47.5352 193.195 47.2461 194.547 46.668V48.4023C193.859 48.6992 193.207 48.9102 192.59 49.0352C191.98 49.168 191.242 49.2344 190.375 49.2344ZM189.848 37.5508C188.816 37.5508 187.992 37.8867 187.375 38.5586C186.766 39.2305 186.406 40.1602 186.297 41.3477H193.012C193.012 40.1211 192.738 39.1836 192.191 38.5352C191.645 37.8789 190.863 37.5508 189.848 37.5508ZM208.914 49L206.559 41.4648C206.41 41.0039 206.133 39.957 205.727 38.3242H205.633C205.32 39.6914 205.047 40.7461 204.812 41.4883L202.387 49H200.137L196.633 36.1562H198.672C199.5 39.3828 200.129 41.8398 200.559 43.5273C200.996 45.2148 201.246 46.3516 201.309 46.9375H201.402C201.488 46.4922 201.625 45.918 201.812 45.2148C202.008 44.5039 202.176 43.9414 202.316 43.5273L204.672 36.1562H206.781L209.078 43.5273C209.516 44.8711 209.812 46 209.969 46.9141H210.062C210.094 46.6328 210.176 46.1992 210.309 45.6133C210.449 45.0273 211.266 41.875 212.758 36.1562H214.773L211.223 49H208.914ZM230.969 33.4023C229.086 33.4023 227.598 34.0312 226.504 35.2891C225.418 36.5391 224.875 38.2539 224.875 40.4336C224.875 42.6758 225.398 44.4102 226.445 45.6367C227.5 46.8555 229 47.4648 230.945 47.4648C232.141 47.4648 233.504 47.25 235.035 46.8203V48.5664C233.848 49.0117 232.383 49.2344 230.641 49.2344C228.117 49.2344 226.168 48.4688 224.793 46.9375C223.426 45.4062 222.742 43.2305 222.742 40.4102C222.742 38.6445 223.07 37.0977 223.727 35.7695C224.391 34.4414 225.344 33.418 226.586 32.6992C227.836 31.9805 229.305 31.6211 230.992 31.6211C232.789 31.6211 234.359 31.9492 235.703 32.6055L234.859 34.3164C233.562 33.707 232.266 33.4023 230.969 33.4023ZM249.566 42.5664C249.566 44.6602 249.039 46.2969 247.984 47.4766C246.93 48.6484 245.473 49.2344 243.613 49.2344C242.465 49.2344 241.445 48.9648 240.555 48.4258C239.664 47.8867 238.977 47.1133 238.492 46.1055C238.008 45.0977 237.766 43.918 237.766 42.5664C237.766 40.4727 238.289 38.8438 239.336 37.6797C240.383 36.5078 241.836 35.9219 243.695 35.9219C245.492 35.9219 246.918 36.5195 247.973 37.7148C249.035 38.9102 249.566 40.5273 249.566 42.5664ZM239.781 42.5664C239.781 44.207 240.109 45.457 240.766 46.3164C241.422 47.1758 242.387 47.6055 243.66 47.6055C244.934 47.6055 245.898 47.1797 246.555 46.3281C247.219 45.4688 247.551 44.2148 247.551 42.5664C247.551 40.9336 247.219 39.6953 246.555 38.8516C245.898 38 244.926 37.5742 243.637 37.5742C242.363 37.5742 241.402 37.9922 240.754 38.8281C240.105 39.6641 239.781 40.9102 239.781 42.5664ZM269.359 49V40.6445C269.359 39.6211 269.141 38.8555 268.703 38.3477C268.266 37.832 267.586 37.5742 266.664 37.5742C265.453 37.5742 264.559 37.9219 263.98 38.6172C263.402 39.3125 263.113 40.3828 263.113 41.8281V49H261.168V40.6445C261.168 39.6211 260.949 38.8555 260.512 38.3477C260.074 37.832 259.391 37.5742 258.461 37.5742C257.242 37.5742 256.348 37.9414 255.777 38.6758C255.215 39.4023 254.934 40.5977 254.934 42.2617V49H252.988V36.1562H254.57L254.887 37.9141H254.98C255.348 37.2891 255.863 36.8008 256.527 36.4492C257.199 36.0977 257.949 35.9219 258.777 35.9219C260.785 35.9219 262.098 36.6484 262.715 38.1016H262.809C263.191 37.4297 263.746 36.8984 264.473 36.5078C265.199 36.1172 266.027 35.9219 266.957 35.9219C268.41 35.9219 269.496 36.2969 270.215 37.0469C270.941 37.7891 271.305 38.9805 271.305 40.6211V49H269.359ZM281.301 49.2344C280.465 49.2344 279.699 49.082 279.004 48.7773C278.316 48.4648 277.738 47.9883 277.27 47.3477H277.129C277.223 48.0977 277.27 48.8086 277.27 49.4805V54.7656H275.324V36.1562H276.906L277.176 37.9141H277.27C277.77 37.2109 278.352 36.7031 279.016 36.3906C279.68 36.0781 280.441 35.9219 281.301 35.9219C283.004 35.9219 284.316 36.5039 285.238 37.668C286.168 38.832 286.633 40.4648 286.633 42.5664C286.633 44.6758 286.16 46.3164 285.215 47.4883C284.277 48.6523 282.973 49.2344 281.301 49.2344ZM281.02 37.5742C279.707 37.5742 278.758 37.9375 278.172 38.6641C277.586 39.3906 277.285 40.5469 277.27 42.1328V42.5664C277.27 44.3711 277.57 45.6641 278.172 46.4453C278.773 47.2188 279.738 47.6055 281.066 47.6055C282.176 47.6055 283.043 47.1562 283.668 46.2578C284.301 45.3594 284.617 44.1211 284.617 42.543C284.617 40.9414 284.301 39.7148 283.668 38.8633C283.043 38.0039 282.16 37.5742 281.02 37.5742ZM297.941 49L297.555 47.1719H297.461C296.82 47.9766 296.18 48.5234 295.539 48.8125C294.906 49.0938 294.113 49.2344 293.16 49.2344C291.887 49.2344 290.887 48.9062 290.16 48.25C289.441 47.5938 289.082 46.6602 289.082 45.4492C289.082 42.8555 291.156 41.4961 295.305 41.3711L297.484 41.3008V40.5039C297.484 39.4961 297.266 38.7539 296.828 38.2773C296.398 37.793 295.707 37.5508 294.754 37.5508C293.684 37.5508 292.473 37.8789 291.121 38.5352L290.523 37.0469C291.156 36.7031 291.848 36.4336 292.598 36.2383C293.355 36.043 294.113 35.9453 294.871 35.9453C296.402 35.9453 297.535 36.2852 298.27 36.9648C299.012 37.6445 299.383 38.7344 299.383 40.2344V49H297.941ZM293.547 47.6289C294.758 47.6289 295.707 47.2969 296.395 46.6328C297.09 45.9688 297.438 45.0391 297.438 43.8438V42.6836L295.492 42.7656C293.945 42.8203 292.828 43.0625 292.141 43.4922C291.461 43.9141 291.121 44.5742 291.121 45.4727C291.121 46.1758 291.332 46.7109 291.754 47.0781C292.184 47.4453 292.781 47.6289 293.547 47.6289ZM312.191 49V40.6914C312.191 39.6445 311.953 38.8633 311.477 38.3477C311 37.832 310.254 37.5742 309.238 37.5742C307.895 37.5742 306.91 37.9375 306.285 38.6641C305.66 39.3906 305.348 40.5898 305.348 42.2617V49H303.402V36.1562H304.984L305.301 37.9141H305.395C305.793 37.2812 306.352 36.793 307.07 36.4492C307.789 36.0977 308.59 35.9219 309.473 35.9219C311.02 35.9219 312.184 36.2969 312.965 37.0469C313.746 37.7891 314.137 38.9805 314.137 40.6211V49H312.191ZM316.105 36.1562H318.191L321.004 43.4805C321.621 45.1523 322.004 46.3594 322.152 47.1016H322.246C322.348 46.7031 322.559 46.0234 322.879 45.0625C323.207 44.0938 324.27 41.125 326.066 36.1562H328.152L322.633 50.7812C322.086 52.2266 321.445 53.25 320.711 53.8516C319.984 54.4609 319.09 54.7656 318.027 54.7656C317.434 54.7656 316.848 54.6992 316.27 54.5664V53.0078C316.699 53.1016 317.18 53.1484 317.711 53.1484C319.047 53.1484 320 52.3984 320.57 50.8984L321.285 49.0703L316.105 36.1562Z" fill="#9F6229"/>
<path d="M44.5 17.3125C31.6951 17.3125 21.3125 27.6951 21.3125 40.5C21.3125 53.3049 31.6951 63.6875 44.5 63.6875C57.3049 63.6875 67.6875 53.3049 67.6875 40.5C67.6875 27.6951 57.3049 17.3125 44.5 17.3125ZM54.4375 41.7422C54.4375 41.9699 54.2512 42.1562 54.0234 42.1562H46.1562V50.0234C46.1562 50.2512 45.9699 50.4375 45.7422 50.4375H43.2578C43.0301 50.4375 42.8438 50.2512 42.8438 50.0234V42.1562H34.9766C34.7488 42.1562 34.5625 41.9699 34.5625 41.7422V39.2578C34.5625 39.0301 34.7488 38.8438 34.9766 38.8438H42.8438V30.9766C42.8438 30.7488 43.0301 30.5625 43.2578 30.5625H45.7422C45.9699 30.5625 46.1562 30.7488 46.1562 30.9766V38.8438H54.0234C54.2512 38.8438 54.4375 39.0301 54.4375 39.2578V41.7422Z" fill="#9F6229"/>
</svg>
