<svg width="365" height="321" viewBox="0 0 365 321" fill="none" xmlns="http://www.w3.org/2000/svg">
<rect y="40" width="365" height="281" rx="40" fill="#FF9A3D"/>
<path d="M184.5 75.7083C204.497 75.7083 220.708 59.4973 220.708 39.5C220.708 19.5027 204.497 3.29169 184.5 3.29169C164.503 3.29169 148.292 19.5027 148.292 39.5C148.292 59.4973 164.503 75.7083 184.5 75.7083Z" fill="#9F6229"/>
<g clip-path="url(#clip0)">
<path d="M183.662 53.4741C183.662 53.4741 181.333 53.4741 181.333 51.145C181.333 48.816 183.662 41.829 192.978 41.829C202.294 41.829 204.623 48.816 204.623 51.145C204.623 53.4741 202.294 53.4741 202.294 53.4741H183.662ZM192.978 39.5C194.831 39.5 196.608 38.7639 197.918 37.4535C199.228 36.1432 199.965 34.366 199.965 32.513C199.965 30.6599 199.228 28.8827 197.918 27.5724C196.608 26.2621 194.831 25.5259 192.978 25.5259C191.124 25.5259 189.347 26.2621 188.037 27.5724C186.727 28.8827 185.991 30.6599 185.991 32.513C185.991 34.366 186.727 36.1432 188.037 37.4535C189.347 38.7639 191.124 39.5 192.978 39.5Z" fill="#FF9A3D"/>
<path fill-rule="evenodd" clip-rule="evenodd" d="M179.507 53.474C179.161 52.747 178.989 51.9498 179.004 51.145C179.004 47.9892 180.587 44.7403 183.513 42.4811C182.052 42.0312 180.531 41.8112 179.004 41.829C169.688 41.829 167.359 48.816 167.359 51.145C167.359 53.474 169.688 53.474 169.688 53.474H179.507Z" fill="#FF9A3D"/>
<path d="M177.839 39.5C179.383 39.5 180.864 38.8866 181.956 37.7947C183.048 36.7027 183.662 35.2217 183.662 33.6775C183.662 32.1333 183.048 30.6523 181.956 29.5604C180.864 28.4684 179.383 27.855 177.839 27.855C176.295 27.855 174.814 28.4684 173.722 29.5604C172.63 30.6523 172.016 32.1333 172.016 33.6775C172.016 35.2217 172.63 36.7027 173.722 37.7947C174.814 38.8866 176.295 39.5 177.839 39.5Z" fill="#FF9A3D"/>
</g>
<defs>
<clipPath id="clip0">
<rect width="37.2641" height="37.2642" fill="white" transform="translate(167.359 20.8679)"/>
</clipPath>
</defs>
</svg>
