<svg width="363" height="81" viewBox="0 0 363 81" fill="none" xmlns="http://www.w3.org/2000/svg">
<rect width="363" height="81" rx="40" fill="#FF9A3D"/>
<path d="M86.0938 53.5117C85.3594 53.5117 84.7812 53.4062 84.3594 53.1953V51.4961C84.9141 51.6523 85.4922 51.7305 86.0938 51.7305C86.8672 51.7305 87.4531 51.4961 87.8516 51.0273C88.2578 50.5586 88.4609 49.8828 88.4609 49V31.8672H90.4531V48.8359C90.4531 50.3203 90.0781 51.4688 89.3281 52.2812C88.5781 53.1016 87.5 53.5117 86.0938 53.5117ZM105.805 42.5664C105.805 44.6602 105.277 46.2969 104.223 47.4766C103.168 48.6484 101.711 49.2344 99.8516 49.2344C98.7031 49.2344 97.6836 48.9648 96.793 48.4258C95.9023 47.8867 95.2148 47.1133 94.7305 46.1055C94.2461 45.0977 94.0039 43.918 94.0039 42.5664C94.0039 40.4727 94.5273 38.8438 95.5742 37.6797C96.6211 36.5078 98.0742 35.9219 99.9336 35.9219C101.73 35.9219 103.156 36.5195 104.211 37.7148C105.273 38.9102 105.805 40.5273 105.805 42.5664ZM96.0195 42.5664C96.0195 44.207 96.3477 45.457 97.0039 46.3164C97.6602 47.1758 98.625 47.6055 99.8984 47.6055C101.172 47.6055 102.137 47.1797 102.793 46.3281C103.457 45.4688 103.789 44.2148 103.789 42.5664C103.789 40.9336 103.457 39.6953 102.793 38.8516C102.137 38 101.164 37.5742 99.875 37.5742C98.6016 37.5742 97.6406 37.9922 96.9922 38.8281C96.3438 39.6641 96.0195 40.9102 96.0195 42.5664ZM111.172 49H109.227V36.1562H111.172V49ZM109.062 32.6758C109.062 32.2305 109.172 31.9062 109.391 31.7031C109.609 31.4922 109.883 31.3867 110.211 31.3867C110.523 31.3867 110.793 31.4922 111.02 31.7031C111.246 31.9141 111.359 32.2383 111.359 32.6758C111.359 33.1133 111.246 33.4414 111.02 33.6602C110.793 33.8711 110.523 33.9766 110.211 33.9766C109.883 33.9766 109.609 33.8711 109.391 33.6602C109.172 33.4414 109.062 33.1133 109.062 32.6758ZM124.086 49V40.6914C124.086 39.6445 123.848 38.8633 123.371 38.3477C122.895 37.832 122.148 37.5742 121.133 37.5742C119.789 37.5742 118.805 37.9375 118.18 38.6641C117.555 39.3906 117.242 40.5898 117.242 42.2617V49H115.297V36.1562H116.879L117.195 37.9141H117.289C117.688 37.2812 118.246 36.793 118.965 36.4492C119.684 36.0977 120.484 35.9219 121.367 35.9219C122.914 35.9219 124.078 36.2969 124.859 37.0469C125.641 37.7891 126.031 38.9805 126.031 40.6211V49H124.086ZM143.902 33.4023C142.02 33.4023 140.531 34.0312 139.438 35.2891C138.352 36.5391 137.809 38.2539 137.809 40.4336C137.809 42.6758 138.332 44.4102 139.379 45.6367C140.434 46.8555 141.934 47.4648 143.879 47.4648C145.074 47.4648 146.438 47.25 147.969 46.8203V48.5664C146.781 49.0117 145.316 49.2344 143.574 49.2344C141.051 49.2344 139.102 48.4688 137.727 46.9375C136.359 45.4062 135.676 43.2305 135.676 40.4102C135.676 38.6445 136.004 37.0977 136.66 35.7695C137.324 34.4414 138.277 33.418 139.52 32.6992C140.77 31.9805 142.238 31.6211 143.926 31.6211C145.723 31.6211 147.293 31.9492 148.637 32.6055L147.793 34.3164C146.496 33.707 145.199 33.4023 143.902 33.4023ZM162.5 42.5664C162.5 44.6602 161.973 46.2969 160.918 47.4766C159.863 48.6484 158.406 49.2344 156.547 49.2344C155.398 49.2344 154.379 48.9648 153.488 48.4258C152.598 47.8867 151.91 47.1133 151.426 46.1055C150.941 45.0977 150.699 43.918 150.699 42.5664C150.699 40.4727 151.223 38.8438 152.27 37.6797C153.316 36.5078 154.77 35.9219 156.629 35.9219C158.426 35.9219 159.852 36.5195 160.906 37.7148C161.969 38.9102 162.5 40.5273 162.5 42.5664ZM152.715 42.5664C152.715 44.207 153.043 45.457 153.699 46.3164C154.355 47.1758 155.32 47.6055 156.594 47.6055C157.867 47.6055 158.832 47.1797 159.488 46.3281C160.152 45.4688 160.484 44.2148 160.484 42.5664C160.484 40.9336 160.152 39.6953 159.488 38.8516C158.832 38 157.859 37.5742 156.57 37.5742C155.297 37.5742 154.336 37.9922 153.688 38.8281C153.039 39.6641 152.715 40.9102 152.715 42.5664ZM182.293 49V40.6445C182.293 39.6211 182.074 38.8555 181.637 38.3477C181.199 37.832 180.52 37.5742 179.598 37.5742C178.387 37.5742 177.492 37.9219 176.914 38.6172C176.336 39.3125 176.047 40.3828 176.047 41.8281V49H174.102V40.6445C174.102 39.6211 173.883 38.8555 173.445 38.3477C173.008 37.832 172.324 37.5742 171.395 37.5742C170.176 37.5742 169.281 37.9414 168.711 38.6758C168.148 39.4023 167.867 40.5977 167.867 42.2617V49H165.922V36.1562H167.504L167.82 37.9141H167.914C168.281 37.2891 168.797 36.8008 169.461 36.4492C170.133 36.0977 170.883 35.9219 171.711 35.9219C173.719 35.9219 175.031 36.6484 175.648 38.1016H175.742C176.125 37.4297 176.68 36.8984 177.406 36.5078C178.133 36.1172 178.961 35.9219 179.891 35.9219C181.344 35.9219 182.43 36.2969 183.148 37.0469C183.875 37.7891 184.238 38.9805 184.238 40.6211V49H182.293ZM194.234 49.2344C193.398 49.2344 192.633 49.082 191.938 48.7773C191.25 48.4648 190.672 47.9883 190.203 47.3477H190.062C190.156 48.0977 190.203 48.8086 190.203 49.4805V54.7656H188.258V36.1562H189.84L190.109 37.9141H190.203C190.703 37.2109 191.285 36.7031 191.949 36.3906C192.613 36.0781 193.375 35.9219 194.234 35.9219C195.938 35.9219 197.25 36.5039 198.172 37.668C199.102 38.832 199.566 40.4648 199.566 42.5664C199.566 44.6758 199.094 46.3164 198.148 47.4883C197.211 48.6523 195.906 49.2344 194.234 49.2344ZM193.953 37.5742C192.641 37.5742 191.691 37.9375 191.105 38.6641C190.52 39.3906 190.219 40.5469 190.203 42.1328V42.5664C190.203 44.3711 190.504 45.6641 191.105 46.4453C191.707 47.2188 192.672 47.6055 194 47.6055C195.109 47.6055 195.977 47.1562 196.602 46.2578C197.234 45.3594 197.551 44.1211 197.551 42.543C197.551 40.9414 197.234 39.7148 196.602 38.8633C195.977 38.0039 195.094 37.5742 193.953 37.5742ZM210.875 49L210.488 47.1719H210.395C209.754 47.9766 209.113 48.5234 208.473 48.8125C207.84 49.0938 207.047 49.2344 206.094 49.2344C204.82 49.2344 203.82 48.9062 203.094 48.25C202.375 47.5938 202.016 46.6602 202.016 45.4492C202.016 42.8555 204.09 41.4961 208.238 41.3711L210.418 41.3008V40.5039C210.418 39.4961 210.199 38.7539 209.762 38.2773C209.332 37.793 208.641 37.5508 207.688 37.5508C206.617 37.5508 205.406 37.8789 204.055 38.5352L203.457 37.0469C204.09 36.7031 204.781 36.4336 205.531 36.2383C206.289 36.043 207.047 35.9453 207.805 35.9453C209.336 35.9453 210.469 36.2852 211.203 36.9648C211.945 37.6445 212.316 38.7344 212.316 40.2344V49H210.875ZM206.48 47.6289C207.691 47.6289 208.641 47.2969 209.328 46.6328C210.023 45.9688 210.371 45.0391 210.371 43.8438V42.6836L208.426 42.7656C206.879 42.8203 205.762 43.0625 205.074 43.4922C204.395 43.9141 204.055 44.5742 204.055 45.4727C204.055 46.1758 204.266 46.7109 204.688 47.0781C205.117 47.4453 205.715 47.6289 206.48 47.6289ZM225.125 49V40.6914C225.125 39.6445 224.887 38.8633 224.41 38.3477C223.934 37.832 223.188 37.5742 222.172 37.5742C220.828 37.5742 219.844 37.9375 219.219 38.6641C218.594 39.3906 218.281 40.5898 218.281 42.2617V49H216.336V36.1562H217.918L218.234 37.9141H218.328C218.727 37.2812 219.285 36.793 220.004 36.4492C220.723 36.0977 221.523 35.9219 222.406 35.9219C223.953 35.9219 225.117 36.2969 225.898 37.0469C226.68 37.7891 227.07 38.9805 227.07 40.6211V49H225.125ZM229.039 36.1562H231.125L233.938 43.4805C234.555 45.1523 234.938 46.3594 235.086 47.1016H235.18C235.281 46.7031 235.492 46.0234 235.812 45.0625C236.141 44.0938 237.203 41.125 239 36.1562H241.086L235.566 50.7812C235.02 52.2266 234.379 53.25 233.645 53.8516C232.918 54.4609 232.023 54.7656 230.961 54.7656C230.367 54.7656 229.781 54.6992 229.203 54.5664V53.0078C229.633 53.1016 230.113 53.1484 230.645 53.1484C231.98 53.1484 232.934 52.3984 233.504 50.8984L234.219 49.0703L229.039 36.1562Z" fill="#9F6229"/>
<path d="M44.4999 64.7917C57.9158 64.7917 68.7916 53.9159 68.7916 40.5C68.7916 27.0841 57.9158 16.2083 44.4999 16.2083C31.084 16.2083 20.2083 27.0841 20.2083 40.5C20.2083 53.9159 31.084 64.7917 44.4999 64.7917Z" fill="#9F6229"/>
<path d="M43.9375 49.875C43.9375 49.875 42.375 49.875 42.375 48.3125C42.375 46.75 43.9375 42.0625 50.1875 42.0625C56.4375 42.0625 58 46.75 58 48.3125C58 49.875 56.4375 49.875 56.4375 49.875H43.9375ZM50.1875 40.5C51.4307 40.5 52.623 40.0061 53.5021 39.1271C54.3811 38.248 54.875 37.0557 54.875 35.8125C54.875 34.5693 54.3811 33.377 53.5021 32.4979C52.623 31.6189 51.4307 31.125 50.1875 31.125C48.9443 31.125 47.752 31.6189 46.8729 32.4979C45.9939 33.377 45.5 34.5693 45.5 35.8125C45.5 37.0557 45.9939 38.248 46.8729 39.1271C47.752 40.0061 48.9443 40.5 50.1875 40.5Z" fill="#FF9A3D"/>
<path fill-rule="evenodd" clip-rule="evenodd" d="M41.15 49.875C40.9184 49.3872 40.8028 48.8524 40.8125 48.3125C40.8125 46.1953 41.875 44.0156 43.8375 42.5C42.858 42.1982 41.8374 42.0506 40.8125 42.0625C34.5625 42.0625 33 46.75 33 48.3125C33 49.875 34.5625 49.875 34.5625 49.875H41.15Z" fill="#FF9A3D"/>
<path d="M40.0312 40.5C41.0673 40.5 42.0608 40.0884 42.7934 39.3559C43.5259 38.6233 43.9375 37.6298 43.9375 36.5938C43.9375 35.5577 43.5259 34.5642 42.7934 33.8316C42.0608 33.0991 41.0673 32.6875 40.0312 32.6875C38.9952 32.6875 38.0017 33.0991 37.2691 33.8316C36.5366 34.5642 36.125 35.5577 36.125 36.5938C36.125 37.6298 36.5366 38.6233 37.2691 39.3559C38.0017 40.0884 38.9952 40.5 40.0312 40.5Z" fill="#FF9A3D"/>
</svg>
